<svg xmlns="http://www.w3.org/2000/svg" viewBox="0 0 800 500">
  <rect fill="#0a0a0a" width="800" height="500"/>
  <rect fill="#141414" x="0" y="0" width="180" height="500"/>
  <rect fill="#14b8a6" x="15" y="15" width="28" height="28" rx="5"/>
  <text x="50" y="35" fill="#ffffff" font-family="system-ui" font-size="12" font-weight="600">AdManager</text>
  <rect fill="#1a1a1a" x="12" y="60" width="156" height="32" rx="5"/>
  <text x="30" y="81" fill="#ffffff" font-family="system-ui" font-size="11">Dashboard</text>
  <rect fill="transparent" x="12" y="98" width="156" height="32" rx="5"/>
  <text x="30" y="119" fill="#888888" font-family="system-ui" font-size="11">Campaigns</text>
  <rect fill="transparent" x="12" y="136" width="156" height="32" rx="5"/>
  <text x="30" y="157" fill="#888888" font-family="system-ui" font-size="11">Analytics</text>
  <rect fill="transparent" x="12" y="174" width="156" height="32" rx="5"/>
  <text x="30" y="195" fill="#888888" font-family="system-ui" font-size="11">Automation</text>
  <text x="200" y="40" fill="#ffffff" font-family="system-ui" font-size="18" font-weight="600">Performance Overview</text>
  <text x="200" y="58" fill="#666666" font-family="system-ui" font-size="11">Last 30 days • All accounts</text>
  <!-- KPI Cards -->
  <rect fill="#141414" x="200" y="75" width="140" height="85" rx="6"/>
  <text x="215" y="98" fill="#888888" font-family="system-ui" font-size="9">Total Spend</text>
  <text x="215" y="125" fill="#ffffff" font-family="system-ui" font-size="22" font-weight="600">$847.2K</text>
  <text x="215" y="145" fill="#22c55e" font-family="system-ui" font-size="10">↑ 12.4% vs prev</text>
  <rect fill="#141414" x="350" y="75" width="140" height="85" rx="6"/>
  <text x="365" y="98" fill="#888888" font-family="system-ui" font-size="9">Conversions</text>
  <text x="365" y="125" fill="#ffffff" font-family="system-ui" font-size="22" font-weight="600">24,847</text>
  <text x="365" y="145" fill="#22c55e" font-family="system-ui" font-size="10">↑ 8.2% vs prev</text>
  <rect fill="#141414" x="500" y="75" width="140" height="85" rx="6"/>
  <text x="515" y="98" fill="#888888" font-family="system-ui" font-size="9">ROAS</text>
  <text x="515" y="125" fill="#14b8a6" font-family="system-ui" font-size="22" font-weight="600">4.2x</text>
  <text x="515" y="145" fill="#22c55e" font-family="system-ui" font-size="10">↑ 0.3x vs prev</text>
  <rect fill="#141414" x="650" y="75" width="130" height="85" rx="6"/>
  <text x="665" y="98" fill="#888888" font-family="system-ui" font-size="9">CPA</text>
  <text x="665" y="125" fill="#ffffff" font-family="system-ui" font-size="22" font-weight="600">$34.08</text>
  <text x="665" y="145" fill="#ef4444" font-family="system-ui" font-size="10">↑ 2.1% vs prev</text>
  <!-- Chart -->
  <rect fill="#141414" x="200" y="175" width="380" height="200" rx="6"/>
  <text x="220" y="200" fill="#ffffff" font-family="system-ui" font-size="12" font-weight="500">Spend vs Conversions</text>
  <polyline fill="none" stroke="#14b8a6" stroke-width="2" points="230,350 280,330 330,340 380,300 430,280 480,260 530,250"/>
  <polyline fill="none" stroke="#3b82f6" stroke-width="2" points="230,340 280,320 330,310 380,290 430,300 480,270 530,265"/>
  <circle fill="#14b8a6" cx="530" cy="250" r="4"/>
  <circle fill="#3b82f6" cx="530" cy="265" r="4"/>
  <rect fill="#14b8a620" x="230" y="360" width="50" height="6" rx="3"/>
  <text x="285" y="366" fill="#888888" font-family="system-ui" font-size="8">Spend</text>
  <rect fill="#3b82f620" x="340" y="360" width="50" height="6" rx="3"/>
  <text x="395" y="366" fill="#888888" font-family="system-ui" font-size="8">Conversions</text>
  <!-- Alerts -->
  <rect fill="#141414" x="590" y="175" width="190" height="200" rx="6"/>
  <text x="610" y="200" fill="#ffffff" font-family="system-ui" font-size="12" font-weight="500">Alerts</text>
  <rect fill="#ef444420" x="602" y="215" width="166" height="50" rx="4"/>
  <text x="612" y="235" fill="#ef4444" font-family="system-ui" font-size="10" font-weight="500">Budget Alert</text>
  <text x="612" y="252" fill="#666666" font-family="system-ui" font-size="9">Campaign "Summer" at 95%</text>
  <rect fill="#f59e0b20" x="602" y="275" width="166" height="50" rx="4"/>
  <text x="612" y="295" fill="#f59e0b" font-family="system-ui" font-size="10" font-weight="500">CPA Anomaly</text>
  <text x="612" y="312" fill="#666666" font-family="system-ui" font-size="9">Brand campaign +45% CPA</text>
  <rect fill="#22c55e20" x="602" y="335" width="166" height="30" rx="4"/>
  <text x="612" y="355" fill="#22c55e" font-family="system-ui" font-size="10">3 optimizations applied</text>
  <!-- Top Campaigns -->
  <rect fill="#141414" x="200" y="390" width="580" height="95" rx="6"/>
  <text x="220" y="415" fill="#ffffff" font-family="system-ui" font-size="12" font-weight="500">Top Performing Campaigns</text>
  <text x="220" y="445" fill="#888888" font-family="system-ui" font-size="9">Brand Awareness</text>
  <text x="220" y="460" fill="#ffffff" font-family="system-ui" font-size="11">$124K spend • 5.2x ROAS</text>
  <text x="400" y="445" fill="#888888" font-family="system-ui" font-size="9">Summer Sale</text>
  <text x="400" y="460" fill="#ffffff" font-family="system-ui" font-size="11">$89K spend • 4.8x ROAS</text>
  <text x="580" y="445" fill="#888888" font-family="system-ui" font-size="9">Retargeting</text>
  <text x="580" y="460" fill="#ffffff" font-family="system-ui" font-size="11">$67K spend • 6.1x ROAS</text>
</svg>
