<svg xmlns="http://www.w3.org/2000/svg" viewBox="0 0 800 500">
  <rect fill="#0a0a0a" width="800" height="500"/>
  <rect fill="#141414" x="0" y="0" width="180" height="500"/>
  <rect fill="#14b8a6" x="15" y="15" width="28" height="28" rx="5"/>
  <text x="50" y="35" fill="#ffffff" font-family="system-ui" font-size="12" font-weight="600">AdManager</text>
  <rect fill="transparent" x="12" y="60" width="156" height="32" rx="5"/>
  <text x="30" y="81" fill="#888888" font-family="system-ui" font-size="11">Dashboard</text>
  <rect fill="#1a1a1a" x="12" y="98" width="156" height="32" rx="5"/>
  <circle fill="#14b8a6" cx="26" cy="114" r="6"/>
  <text x="40" y="119" fill="#ffffff" font-family="system-ui" font-size="11">Campaigns</text>
  <text x="200" y="40" fill="#ffffff" font-family="system-ui" font-size="18" font-weight="600">Campaign Management</text>
  <rect fill="#14b8a6" x="680" y="20" width="100" height="32" rx="5"/>
  <text x="697" y="41" fill="#000000" font-family="system-ui" font-size="10" font-weight="500">+ New Campaign</text>
  <!-- Filters -->
  <rect fill="#141414" x="200" y="60" width="200" height="30" rx="5"/>
  <text x="220" y="80" fill="#666666" font-family="system-ui" font-size="10">Search campaigns...</text>
  <rect fill="#1a1a1a" x="410" y="60" width="80" height="30" rx="5"/>
  <text x="430" y="80" fill="#888888" font-family="system-ui" font-size="10">Status ▼</text>
  <rect fill="#1a1a1a" x="500" y="60" width="80" height="30" rx="5"/>
  <text x="520" y="80" fill="#888888" font-family="system-ui" font-size="10">Type ▼</text>
  <!-- Campaign Table -->
  <rect fill="#141414" x="200" y="100" width="580" height="35" rx="4"/>
  <text x="220" y="123" fill="#888888" font-family="system-ui" font-size="9" font-weight="500">CAMPAIGN</text>
  <text x="380" y="123" fill="#888888" font-family="system-ui" font-size="9" font-weight="500">BUDGET</text>
  <text x="470" y="123" fill="#888888" font-family="system-ui" font-size="9" font-weight="500">SPENT</text>
  <text x="550" y="123" fill="#888888" font-family="system-ui" font-size="9" font-weight="500">ROAS</text>
  <text x="620" y="123" fill="#888888" font-family="system-ui" font-size="9" font-weight="500">STATUS</text>
  <text x="710" y="123" fill="#888888" font-family="system-ui" font-size="9" font-weight="500">ACTIONS</text>
  <!-- Campaign rows -->
  <rect fill="#0f0f0f" x="200" y="140" width="580" height="55"/>
  <rect fill="#22c55e" x="210" y="155" width="3" height="25" rx="1"/>
  <text x="225" y="168" fill="#ffffff" font-family="system-ui" font-size="11">Brand Awareness 2025</text>
  <text x="225" y="183" fill="#666666" font-family="system-ui" font-size="9">Search • 12 ad groups</text>
  <text x="380" y="173" fill="#ffffff" font-family="system-ui" font-size="11">$150K</text>
  <text x="470" y="168" fill="#ffffff" font-family="system-ui" font-size="11">$124.2K</text>
  <text x="470" y="183" fill="#666666" font-family="system-ui" font-size="9">83%</text>
  <text x="550" y="173" fill="#22c55e" font-family="system-ui" font-size="11">5.2x</text>
  <rect fill="#22c55e20" x="620" y="163" width="50" height="18" rx="9"/>
  <text x="630" y="176" fill="#22c55e" font-family="system-ui" font-size="9">Active</text>
  <rect fill="#1a1a1a" x="710" y="160" width="55" height="24" rx="4"/>
  <text x="725" y="176" fill="#888888" font-family="system-ui" font-size="9">Edit</text>
  
  <rect fill="#141414" x="200" y="200" width="580" height="55"/>
  <rect fill="#22c55e" x="210" y="215" width="3" height="25" rx="1"/>
  <text x="225" y="228" fill="#ffffff" font-family="system-ui" font-size="11">Summer Sale Campaign</text>
  <text x="225" y="243" fill="#666666" font-family="system-ui" font-size="9">Shopping • 8 ad groups</text>
  <text x="380" y="233" fill="#ffffff" font-family="system-ui" font-size="11">$100K</text>
  <text x="470" y="228" fill="#ffffff" font-family="system-ui" font-size="11">$89.5K</text>
  <text x="470" y="243" fill="#f59e0b" font-family="system-ui" font-size="9">90%</text>
  <text x="550" y="233" fill="#22c55e" font-family="system-ui" font-size="11">4.8x</text>
  <rect fill="#22c55e20" x="620" y="223" width="50" height="18" rx="9"/>
  <text x="630" y="236" fill="#22c55e" font-family="system-ui" font-size="9">Active</text>
  
  <rect fill="#0f0f0f" x="200" y="260" width="580" height="55"/>
  <rect fill="#f59e0b" x="210" y="275" width="3" height="25" rx="1"/>
  <text x="225" y="288" fill="#ffffff" font-family="system-ui" font-size="11">Retargeting - Cart Abandoners</text>
  <text x="225" y="303" fill="#666666" font-family="system-ui" font-size="9">Display • 4 ad groups</text>
  <text x="380" y="293" fill="#ffffff" font-family="system-ui" font-size="11">$80K</text>
  <text x="470" y="288" fill="#ffffff" font-family="system-ui" font-size="11">$67.1K</text>
  <text x="470" y="303" fill="#666666" font-family="system-ui" font-size="9">84%</text>
  <text x="550" y="293" fill="#14b8a6" font-family="system-ui" font-size="11">6.1x</text>
  <rect fill="#f59e0b20" x="620" y="283" width="50" height="18" rx="9"/>
  <text x="628" y="296" fill="#f59e0b" font-family="system-ui" font-size="9">Limited</text>
  
  <rect fill="#141414" x="200" y="320" width="580" height="55"/>
  <rect fill="#888888" x="210" y="335" width="3" height="25" rx="1"/>
  <text x="225" y="348" fill="#ffffff" font-family="system-ui" font-size="11">Q4 Promotional</text>
  <text x="225" y="363" fill="#666666" font-family="system-ui" font-size="9">Video • 6 ad groups</text>
  <text x="380" y="353" fill="#ffffff" font-family="system-ui" font-size="11">$50K</text>
  <text x="470" y="348" fill="#ffffff" font-family="system-ui" font-size="11">$0</text>
  <text x="470" y="363" fill="#666666" font-family="system-ui" font-size="9">0%</text>
  <text x="550" y="353" fill="#888888" font-family="system-ui" font-size="11">--</text>
  <rect fill="#88888820" x="620" y="343" width="50" height="18" rx="9"/>
  <text x="628" y="356" fill="#888888" font-family="system-ui" font-size="9">Paused</text>
  <!-- Summary -->
  <rect fill="#141414" x="200" y="400" width="580" height="80" rx="6"/>
  <text x="220" y="430" fill="#888888" font-family="system-ui" font-size="10">Total Campaigns: 24</text>
  <text x="370" y="430" fill="#22c55e" font-family="system-ui" font-size="10">18 Active</text>
  <text x="470" y="430" fill="#f59e0b" font-family="system-ui" font-size="10">4 Limited</text>
  <text x="560" y="430" fill="#888888" font-family="system-ui" font-size="10">2 Paused</text>
  <text x="220" y="460" fill="#666666" font-family="system-ui" font-size="9">Combined Budget: $847.2K • Average ROAS: 4.2x</text>
</svg>
