<svg xmlns="http://www.w3.org/2000/svg" viewBox="0 0 800 500">
  <rect fill="#0a0a0a" width="800" height="500"/>
  <rect fill="#141414" x="0" y="0" width="180" height="500"/>
  <rect fill="#14b8a6" x="15" y="15" width="28" height="28" rx="5"/>
  <text x="50" y="35" fill="#ffffff" font-family="system-ui" font-size="12" font-weight="600">AdManager</text>
  <rect fill="transparent" x="12" y="60" width="156" height="32" rx="5"/>
  <text x="30" y="81" fill="#888888" font-family="system-ui" font-size="11">Dashboard</text>
  <rect fill="transparent" x="12" y="98" width="156" height="32" rx="5"/>
  <text x="30" y="119" fill="#888888" font-family="system-ui" font-size="11">Campaigns</text>
  <rect fill="transparent" x="12" y="136" width="156" height="32" rx="5"/>
  <text x="30" y="157" fill="#888888" font-family="system-ui" font-size="11">Analytics</text>
  <rect fill="#1a1a1a" x="12" y="174" width="156" height="32" rx="5"/>
  <circle fill="#14b8a6" cx="26" cy="190" r="6"/>
  <text x="40" y="195" fill="#ffffff" font-family="system-ui" font-size="11">Automation</text>
  <text x="200" y="40" fill="#ffffff" font-family="system-ui" font-size="18" font-weight="600">Automation Rules</text>
  <rect fill="#14b8a6" x="680" y="20" width="100" height="32" rx="5"/>
  <text x="700" y="41" fill="#000000" font-family="system-ui" font-size="10" font-weight="500">+ New Rule</text>
  <!-- Active Rules -->
  <rect fill="#141414" x="200" y="60" width="580" height="70" rx="6"/>
  <rect fill="#22c55e" x="215" y="80" width="4" height="30" rx="2"/>
  <text x="230" y="95" fill="#ffffff" font-family="system-ui" font-size="12" font-weight="500">Budget Pacing Optimizer</text>
  <text x="230" y="112" fill="#666666" font-family="system-ui" font-size="10">Automatically adjusts daily budgets to optimize monthly spend pacing</text>
  <rect fill="#22c55e20" x="640" y="82" width="55" height="20" rx="10"/>
  <text x="652" y="96" fill="#22c55e" font-family="system-ui" font-size="9">Active</text>
  <rect fill="#1a1a1a" x="710" y="80" width="55" height="24" rx="4"/>
  <text x="725" y="96" fill="#888888" font-family="system-ui" font-size="9">Edit</text>
  
  <rect fill="#141414" x="200" y="140" width="580" height="70" rx="6"/>
  <rect fill="#22c55e" x="215" y="160" width="4" height="30" rx="2"/>
  <text x="230" y="175" fill="#ffffff" font-family="system-ui" font-size="12" font-weight="500">CPA Threshold Alert</text>
  <text x="230" y="192" fill="#666666" font-family="system-ui" font-size="10">Pauses ad groups when CPA exceeds $50 for 3 consecutive days</text>
  <rect fill="#22c55e20" x="640" y="162" width="55" height="20" rx="10"/>
  <text x="652" y="176" fill="#22c55e" font-family="system-ui" font-size="9">Active</text>
  
  <rect fill="#141414" x="200" y="220" width="580" height="70" rx="6"/>
  <rect fill="#22c55e" x="215" y="240" width="4" height="30" rx="2"/>
  <text x="230" y="255" fill="#ffffff" font-family="system-ui" font-size="12" font-weight="500">Low Performer Auto-Pause</text>
  <text x="230" y="272" fill="#666666" font-family="system-ui" font-size="10">Pauses keywords with CTR below 0.5% after 1000 impressions</text>
  <rect fill="#22c55e20" x="640" y="242" width="55" height="20" rx="10"/>
  <text x="652" y="256" fill="#22c55e" font-family="system-ui" font-size="9">Active</text>
  
  <rect fill="#141414" x="200" y="300" width="580" height="70" rx="6"/>
  <rect fill="#f59e0b" x="215" y="320" width="4" height="30" rx="2"/>
  <text x="230" y="335" fill="#ffffff" font-family="system-ui" font-size="12" font-weight="500">Bid Adjustment by Time</text>
  <text x="230" y="352" fill="#666666" font-family="system-ui" font-size="10">Increases bids by 20% during peak hours (10am-2pm, 7pm-10pm)</text>
  <rect fill="#f59e0b20" x="640" y="322" width="55" height="20" rx="10"/>
  <text x="650" y="336" fill="#f59e0b" font-family="system-ui" font-size="9">Paused</text>
  <!-- Automation Stats -->
  <rect fill="#141414" x="200" y="385" width="280" height="100" rx="6"/>
  <text x="220" y="410" fill="#ffffff" font-family="system-ui" font-size="12" font-weight="500">Automation Impact</text>
  <text x="220" y="440" fill="#888888" font-family="system-ui" font-size="10">Rules triggered this month</text>
  <text x="220" y="465" fill="#14b8a6" font-family="system-ui" font-size="24" font-weight="600">847</text>
  <text x="290" y="465" fill="#22c55e" font-family="system-ui" font-size="10">Saved $12.4K</text>
  <!-- Recent Actions -->
  <rect fill="#141414" x="500" y="385" width="280" height="100" rx="6"/>
  <text x="520" y="410" fill="#ffffff" font-family="system-ui" font-size="12" font-weight="500">Recent Actions</text>
  <text x="520" y="435" fill="#666666" font-family="system-ui" font-size="9">2 min ago • Budget adjusted for "Summer Sale"</text>
  <text x="520" y="455" fill="#666666" font-family="system-ui" font-size="9">15 min ago • 3 keywords paused (low CTR)</text>
  <text x="520" y="475" fill="#666666" font-family="system-ui" font-size="9">1 hr ago • CPA alert triggered for "Retargeting"</text>
</svg>
