<svg xmlns="http://www.w3.org/2000/svg" viewBox="0 0 800 500">
  <rect fill="#0a0a0a" width="800" height="500"/>
  <rect fill="#141414" x="0" y="0" width="180" height="500"/>
  <rect fill="#14b8a6" x="15" y="15" width="28" height="28" rx="5"/>
  <text x="50" y="35" fill="#ffffff" font-family="system-ui" font-size="12" font-weight="600">AdManager</text>
  <rect fill="transparent" x="12" y="60" width="156" height="32" rx="5"/>
  <text x="30" y="81" fill="#888888" font-family="system-ui" font-size="11">Dashboard</text>
  <rect fill="transparent" x="12" y="98" width="156" height="32" rx="5"/>
  <text x="30" y="119" fill="#888888" font-family="system-ui" font-size="11">Campaigns</text>
  <rect fill="#1a1a1a" x="12" y="136" width="156" height="32" rx="5"/>
  <circle fill="#14b8a6" cx="26" cy="152" r="6"/>
  <text x="40" y="157" fill="#ffffff" font-family="system-ui" font-size="11">Analytics</text>
  <text x="200" y="40" fill="#ffffff" font-family="system-ui" font-size="18" font-weight="600">Analytics & Reports</text>
  <!-- Date Range -->
  <rect fill="#1a1a1a" x="560" y="20" width="100" height="30" rx="5"/>
  <text x="578" y="40" fill="#888888" font-family="system-ui" font-size="10">Last 30 days</text>
  <rect fill="#14b8a6" x="670" y="20" width="110" height="30" rx="5"/>
  <text x="690" y="40" fill="#000000" font-family="system-ui" font-size="10" font-weight="500">Export Report</text>
  <!-- Performance by Channel -->
  <rect fill="#141414" x="200" y="60" width="280" height="200" rx="6"/>
  <text x="220" y="85" fill="#ffffff" font-family="system-ui" font-size="12" font-weight="500">Performance by Channel</text>
  <!-- Donut chart simulation -->
  <circle cx="340" cy="160" r="50" fill="none" stroke="#3b82f6" stroke-width="20" stroke-dasharray="100 200"/>
  <circle cx="340" cy="160" r="50" fill="none" stroke="#22c55e" stroke-width="20" stroke-dasharray="70 230" stroke-dashoffset="-100"/>
  <circle cx="340" cy="160" r="50" fill="none" stroke="#f59e0b" stroke-width="20" stroke-dasharray="45 255" stroke-dashoffset="-170"/>
  <text x="320" y="165" fill="#ffffff" font-family="system-ui" font-size="14" font-weight="600">$847K</text>
  <text x="220" y="230" fill="#3b82f6" font-family="system-ui" font-size="9">● Search 47%</text>
  <text x="300" y="230" fill="#22c55e" font-family="system-ui" font-size="9">● Shopping 33%</text>
  <text x="390" y="230" fill="#f59e0b" font-family="system-ui" font-size="9">● Display 20%</text>
  <!-- Conversion Funnel -->
  <rect fill="#141414" x="500" y="60" width="280" height="200" rx="6"/>
  <text x="520" y="85" fill="#ffffff" font-family="system-ui" font-size="12" font-weight="500">Conversion Funnel</text>
  <rect fill="#3b82f620" x="520" y="105" width="240" height="30" rx="4"/>
  <text x="530" y="125" fill="#3b82f6" font-family="system-ui" font-size="10">Impressions: 12.4M</text>
  <rect fill="#14b8a620" x="540" y="145" width="200" height="30" rx="4"/>
  <text x="550" y="165" fill="#14b8a6" font-family="system-ui" font-size="10">Clicks: 248K (2.0%)</text>
  <rect fill="#f59e0b20" x="560" y="185" width="160" height="30" rx="4"/>
  <text x="570" y="205" fill="#f59e0b" font-family="system-ui" font-size="10">Add to Cart: 42K (17%)</text>
  <rect fill="#22c55e20" x="580" y="225" width="120" height="30" rx="4"/>
  <text x="590" y="245" fill="#22c55e" font-family="system-ui" font-size="10">Purchases: 24.8K (59%)</text>
  <!-- Time Series -->
  <rect fill="#141414" x="200" y="275" width="580" height="140" rx="6"/>
  <text x="220" y="300" fill="#ffffff" font-family="system-ui" font-size="12" font-weight="500">Daily Performance Trend</text>
  <polyline fill="none" stroke="#14b8a6" stroke-width="2" points="230,380 280,365 330,370 380,350 430,340 480,355 530,330 580,320 630,315 680,305 730,295"/>
  <polyline fill="none" stroke="#3b82f680" stroke-width="1" stroke-dasharray="4" points="230,370 280,375 330,365 380,360 430,365 480,355 530,350 580,348 630,345 680,340 730,338"/>
  <text x="220" y="400" fill="#888888" font-family="system-ui" font-size="9">Jan 1</text>
  <text x="470" y="400" fill="#888888" font-family="system-ui" font-size="9">Jan 15</text>
  <text x="720" y="400" fill="#888888" font-family="system-ui" font-size="9">Jan 30</text>
  <!-- Key Insights -->
  <rect fill="#141414" x="200" y="430" width="580" height="55" rx="6"/>
  <text x="220" y="455" fill="#ffffff" font-family="system-ui" font-size="11" font-weight="500">Key Insights</text>
  <text x="320" y="455" fill="#22c55e" font-family="system-ui" font-size="10">↑ Best day: Jan 28 ($42K)</text>
  <text x="500" y="455" fill="#888888" font-family="system-ui" font-size="10">Avg daily: $28.2K</text>
  <text x="640" y="455" fill="#f59e0b" font-family="system-ui" font-size="10">Weekend dip: -15%</text>
</svg>
