<svg xmlns="http://www.w3.org/2000/svg" viewBox="0 0 800 500">
  <rect fill="#0a0a0b" width="800" height="500"/>
  <rect fill="#111113" x="0" y="0" width="180" height="500"/>
  <rect fill="#ec4899" x="20" y="20" width="32" height="32" rx="6"/>
  <text fill="#fff" x="60" y="42" font-family="system-ui" font-size="14" font-weight="600">AdFlow</text>
  <rect fill="#ec4899" x="0" y="80" width="4" height="36"/>
  <rect fill="#1a1a1d" x="12" y="80" width="156" height="36" rx="6"/>
  <text fill="#fff" x="44" y="103" font-family="system-ui" font-size="12">Dashboard</text>
  <text fill="#71717a" x="44" y="143" font-family="system-ui" font-size="12">Campaigns</text>
  <text fill="#71717a" x="44" y="179" font-family="system-ui" font-size="12">Automation</text>
  <text fill="#71717a" x="44" y="215" font-family="system-ui" font-size="12">Reports</text>
  <text fill="#fff" x="200" y="45" font-family="system-ui" font-size="20" font-weight="600">Performance Overview</text>
  <text fill="#71717a" x="200" y="65" font-family="system-ui" font-size="12">Last 30 days across all accounts</text>
  <rect fill="#111113" x="200" y="85" width="140" height="90" rx="8"/>
  <text fill="#71717a" x="216" y="110" font-family="system-ui" font-size="10">Ad Spend</text>
  <text fill="#fff" x="216" y="140" font-family="system-ui" font-size="24" font-weight="600">$847K</text>
  <text fill="#22c55e" x="216" y="160" font-family="system-ui" font-size="10">-8% vs prev period</text>
  <rect fill="#111113" x="350" y="85" width="140" height="90" rx="8"/>
  <text fill="#71717a" x="366" y="110" font-family="system-ui" font-size="10">Revenue</text>
  <text fill="#fff" x="366" y="140" font-family="system-ui" font-size="24" font-weight="600">$2.4M</text>
  <text fill="#22c55e" x="366" y="160" font-family="system-ui" font-size="10">+15% vs prev period</text>
  <rect fill="#111113" x="500" y="85" width="140" height="90" rx="8"/>
  <text fill="#71717a" x="516" y="110" font-family="system-ui" font-size="10">ROAS</text>
  <text fill="#fff" x="516" y="140" font-family="system-ui" font-size="24" font-weight="600">2.83x</text>
  <text fill="#22c55e" x="516" y="160" font-family="system-ui" font-size="10">+25% vs prev period</text>
  <rect fill="#111113" x="650" y="85" width="130" height="90" rx="8"/>
  <text fill="#71717a" x="666" y="110" font-family="system-ui" font-size="10">Conversions</text>
  <text fill="#fff" x="666" y="140" font-family="system-ui" font-size="24" font-weight="600">12.4K</text>
  <text fill="#22c55e" x="666" y="160" font-family="system-ui" font-size="10">+18% vs prev period</text>
  <rect fill="#111113" x="200" y="190" width="380" height="190" rx="8"/>
  <text fill="#fff" x="216" y="215" font-family="system-ui" font-size="13" font-weight="500">ROAS Trend</text>
  <polyline points="230,340 280,320 330,350 380,290 430,310 480,270 530,285" fill="none" stroke="#ec4899" stroke-width="2"/>
  <polyline points="230,350 280,345 330,360 380,340 430,355 480,330 530,340" fill="none" stroke="#3f3f46" stroke-width="1.5" stroke-dasharray="4"/>
  <line x1="230" y1="360" x2="560" y2="360" stroke="#3f3f46" stroke-width="1"/>
  <text fill="#71717a" x="230" y="375" font-family="system-ui" font-size="9">Week 1</text>
  <text fill="#71717a" x="380" y="375" font-family="system-ui" font-size="9">Week 2</text>
  <text fill="#71717a" x="530" y="375" font-family="system-ui" font-size="9">Week 4</text>
  <rect fill="#ec4899" x="450" y="205" width="8" height="8" rx="2"/>
  <text fill="#a1a1aa" x="465" y="213" font-family="system-ui" font-size="9">Actual</text>
  <rect fill="#3f3f46" x="510" y="205" width="8" height="8" rx="2"/>
  <text fill="#a1a1aa" x="525" y="213" font-family="system-ui" font-size="9">Target</text>
  <rect fill="#111113" x="590" y="190" width="190" height="190" rx="8"/>
  <text fill="#fff" x="606" y="215" font-family="system-ui" font-size="13" font-weight="500">Top Campaigns</text>
  <rect fill="#1a1a1d" x="606" y="235" width="158" height="40" rx="4"/>
  <text fill="#fff" x="616" y="255" font-family="system-ui" font-size="10">Brand - Search</text>
  <text fill="#22c55e" x="616" y="270" font-family="system-ui" font-size="9">ROAS: 4.2x</text>
  <rect fill="#1a1a1d" x="606" y="285" width="158" height="40" rx="4"/>
  <text fill="#fff" x="616" y="305" font-family="system-ui" font-size="10">Retargeting - Display</text>
  <text fill="#22c55e" x="616" y="320" font-family="system-ui" font-size="9">ROAS: 3.8x</text>
  <rect fill="#1a1a1d" x="606" y="335" width="158" height="40" rx="4"/>
  <text fill="#fff" x="616" y="355" font-family="system-ui" font-size="10">Prospecting - Video</text>
  <text fill="#f59e0b" x="616" y="370" font-family="system-ui" font-size="9">ROAS: 1.9x</text>
  <rect fill="#111113" x="200" y="395" width="580" height="85" rx="8"/>
  <text fill="#fff" x="216" y="420" font-family="system-ui" font-size="13" font-weight="500">Recent Alerts</text>
  <rect fill="#ef444420" x="216" y="435" width="180" height="35" rx="4"/>
  <text fill="#ef4444" x="230" y="458" font-family="system-ui" font-size="10">Budget cap reached: Campaign A</text>
  <rect fill="#f59e0b20" x="406" y="435" width="180" height="35" rx="4"/>
  <text fill="#f59e0b" x="420" y="458" font-family="system-ui" font-size="10">CTR drop detected: Ad Group 5</text>
  <rect fill="#22c55e20" x="596" y="435" width="170" height="35" rx="4"/>
  <text fill="#22c55e" x="610" y="458" font-family="system-ui" font-size="10">Auto-bid optimized: +12%</text>
</svg>
