<svg xmlns="http://www.w3.org/2000/svg" viewBox="0 0 800 500">
  <rect fill="#0a0a0b" width="800" height="500"/>
  <rect fill="#111113" x="0" y="0" width="180" height="500"/>
  <rect fill="#ec4899" x="20" y="20" width="32" height="32" rx="6"/>
  <text fill="#fff" x="60" y="42" font-family="system-ui" font-size="14" font-weight="600">AdFlow</text>
  <rect fill="#ec4899" x="0" y="192" width="4" height="36"/>
  <rect fill="#1a1a1d" x="12" y="192" width="156" height="36" rx="6"/>
  <text fill="#fff" x="44" y="215" font-family="system-ui" font-size="12">Reports</text>
  <text fill="#fff" x="200" y="45" font-family="system-ui" font-size="20" font-weight="600">Performance Report</text>
  <rect fill="#1a1a1d" x="200" y="60" width="140" height="36" rx="6"/>
  <text fill="#a1a1aa" x="220" y="83" font-family="system-ui" font-size="11">Last 30 Days</text>
  <rect fill="#1a1a1d" x="350" y="60" width="120" height="36" rx="6"/>
  <text fill="#a1a1aa" x="370" y="83" font-family="system-ui" font-size="11">All Accounts</text>
  <rect fill="#ec4899" x="680" y="60" width="100" height="36" rx="6"/>
  <text fill="#fff" x="700" y="83" font-family="system-ui" font-size="11">Export PDF</text>
  <rect fill="#111113" x="200" y="110" width="580" height="180" rx="8"/>
  <text fill="#fff" x="216" y="135" font-family="system-ui" font-size="13" font-weight="500">Spend vs Revenue</text>
  <!-- Bar chart -->
  <rect fill="#ec489950" x="250" y="180" width="40" height="80" rx="2"/>
  <rect fill="#22c55e50" x="250" y="155" width="40" height="105" rx="2"/>
  <rect fill="#ec489950" x="320" y="165" width="40" height="95" rx="2"/>
  <rect fill="#22c55e50" x="320" y="145" width="40" height="115" rx="2"/>
  <rect fill="#ec489950" x="390" y="190" width="40" height="70" rx="2"/>
  <rect fill="#22c55e50" x="390" y="150" width="40" height="110" rx="2"/>
  <rect fill="#ec489950" x="460" y="175" width="40" height="85" rx="2"/>
  <rect fill="#22c55e50" x="460" y="140" width="40" height="120" rx="2"/>
  <rect fill="#ec489950" x="530" y="160" width="40" height="100" rx="2"/>
  <rect fill="#22c55e50" x="530" y="130" width="40" height="130" rx="2"/>
  <rect fill="#ec489950" x="600" y="170" width="40" height="90" rx="2"/>
  <rect fill="#22c55e50" x="600" y="135" width="40" height="125" rx="2"/>
  <rect fill="#ec489950" x="670" y="155" width="40" height="105" rx="2"/>
  <rect fill="#22c55e50" x="670" y="120" width="40" height="140" rx="2"/>
  <line x1="240" y1="265" x2="720" y2="265" stroke="#3f3f46" stroke-width="1"/>
  <text fill="#71717a" x="255" y="280" font-family="system-ui" font-size="8">W1</text>
  <text fill="#71717a" x="325" y="280" font-family="system-ui" font-size="8">W2</text>
  <text fill="#71717a" x="395" y="280" font-family="system-ui" font-size="8">W3</text>
  <text fill="#71717a" x="465" y="280" font-family="system-ui" font-size="8">W4</text>
  <rect fill="#ec4899" x="550" y="125" width="8" height="8" rx="2"/>
  <text fill="#a1a1aa" x="565" y="133" font-family="system-ui" font-size="9">Spend</text>
  <rect fill="#22c55e" x="610" y="125" width="8" height="8" rx="2"/>
  <text fill="#a1a1aa" x="625" y="133" font-family="system-ui" font-size="9">Revenue</text>
  <rect fill="#111113" x="200" y="305" width="280" height="175" rx="8"/>
  <text fill="#fff" x="216" y="330" font-family="system-ui" font-size="13" font-weight="500">Channel Performance</text>
  <text fill="#a1a1aa" x="230" y="365" font-family="system-ui" font-size="10">Google Search</text>
  <rect fill="#1a1a1d" x="340" y="352" width="120" height="20" rx="3"/>
  <rect fill="#ec4899" x="340" y="352" width="100" height="20" rx="3"/>
  <text fill="#fff" x="420" y="367" font-family="system-ui" font-size="9">48%</text>
  <text fill="#a1a1aa" x="230" y="400" font-family="system-ui" font-size="10">Google Display</text>
  <rect fill="#1a1a1d" x="340" y="387" width="120" height="20" rx="3"/>
  <rect fill="#06b6d4" x="340" y="387" width="70" height="20" rx="3"/>
  <text fill="#fff" x="370" y="402" font-family="system-ui" font-size="9">28%</text>
  <text fill="#a1a1aa" x="230" y="435" font-family="system-ui" font-size="10">YouTube</text>
  <rect fill="#1a1a1d" x="340" y="422" width="120" height="20" rx="3"/>
  <rect fill="#f59e0b" x="340" y="422" width="50" height="20" rx="3"/>
  <text fill="#fff" x="355" y="437" font-family="system-ui" font-size="9">18%</text>
  <text fill="#a1a1aa" x="230" y="470" font-family="system-ui" font-size="10">Shopping</text>
  <rect fill="#1a1a1d" x="340" y="457" width="120" height="20" rx="3"/>
  <rect fill="#22c55e" x="340" y="457" width="20" height="20" rx="3"/>
  <text fill="#fff" x="345" y="472" font-family="system-ui" font-size="9">6%</text>
  <rect fill="#111113" x="500" y="305" width="280" height="175" rx="8"/>
  <text fill="#fff" x="516" y="330" font-family="system-ui" font-size="13" font-weight="500">Key Metrics Summary</text>
  <rect fill="#1a1a1d" x="516" y="350" width="248" height="50" rx="4"/>
  <text fill="#71717a" x="530" y="370" font-family="system-ui" font-size="10">Impressions</text>
  <text fill="#fff" x="530" y="390" font-family="system-ui" font-size="16" font-weight="600">24.8M</text>
  <text fill="#22c55e" x="620" y="375" font-family="system-ui" font-size="10">+18%</text>
  <rect fill="#1a1a1d" x="516" y="410" width="248" height="50" rx="4"/>
  <text fill="#71717a" x="530" y="430" font-family="system-ui" font-size="10">Click-through Rate</text>
  <text fill="#fff" x="530" y="450" font-family="system-ui" font-size="16" font-weight="600">3.42%</text>
  <text fill="#22c55e" x="620" y="435" font-family="system-ui" font-size="10">+0.8%</text>
</svg>
