<svg xmlns="http://www.w3.org/2000/svg" viewBox="0 0 800 500">
  <rect fill="#0a0a0b" width="800" height="500"/>
  <rect fill="#111113" x="0" y="0" width="180" height="500"/>
  <rect fill="#ec4899" x="20" y="20" width="32" height="32" rx="6"/>
  <text fill="#fff" x="60" y="42" font-family="system-ui" font-size="14" font-weight="600">AdFlow</text>
  <rect fill="#ec4899" x="0" y="120" width="4" height="36"/>
  <rect fill="#1a1a1d" x="12" y="120" width="156" height="36" rx="6"/>
  <text fill="#fff" x="44" y="143" font-family="system-ui" font-size="12">Campaigns</text>
  <text fill="#fff" x="200" y="45" font-family="system-ui" font-size="20" font-weight="600">Campaign Manager</text>
  <rect fill="#1a1a1d" x="200" y="60" width="200" height="36" rx="6"/>
  <text fill="#71717a" x="220" y="83" font-family="system-ui" font-size="11">Search campaigns...</text>
  <rect fill="#1a1a1d" x="410" y="60" width="100" height="36" rx="6"/>
  <text fill="#a1a1aa" x="430" y="83" font-family="system-ui" font-size="11">All Status</text>
  <rect fill="#ec4899" x="680" y="60" width="100" height="36" rx="6"/>
  <text fill="#fff" x="695" y="83" font-family="system-ui" font-size="11">+ Campaign</text>
  <rect fill="#111113" x="200" y="110" width="580" height="370" rx="8"/>
  <rect fill="#1a1a1d" x="216" y="126" width="548" height="35" rx="4"/>
  <text fill="#71717a" x="230" y="148" font-family="system-ui" font-size="10">CAMPAIGN</text>
  <text fill="#71717a" x="360" y="148" font-family="system-ui" font-size="10">STATUS</text>
  <text fill="#71717a" x="440" y="148" font-family="system-ui" font-size="10">SPEND</text>
  <text fill="#71717a" x="520" y="148" font-family="system-ui" font-size="10">ROAS</text>
  <text fill="#71717a" x="590" y="148" font-family="system-ui" font-size="10">CONV.</text>
  <text fill="#71717a" x="670" y="148" font-family="system-ui" font-size="10">ACTIONS</text>
  <text fill="#fff" x="230" y="188" font-family="system-ui" font-size="11">Brand - Search Campaign</text>
  <text fill="#71717a" x="230" y="203" font-family="system-ui" font-size="9">Google Ads - 24 ad groups</text>
  <rect fill="#22c55e20" x="360" y="180" width="55" height="20" rx="3"/>
  <text fill="#22c55e" x="373" y="194" font-family="system-ui" font-size="9">Active</text>
  <text fill="#fff" x="440" y="193" font-family="system-ui" font-size="11">$124,500</text>
  <text fill="#22c55e" x="520" y="193" font-family="system-ui" font-size="11">4.2x</text>
  <text fill="#fff" x="590" y="193" font-family="system-ui" font-size="11">3,842</text>
  <rect fill="#1a1a1d" x="670" y="180" width="50" height="24" rx="4"/>
  <text fill="#a1a1aa" x="685" y="196" font-family="system-ui" font-size="10">Edit</text>
  <line x1="216" y1="220" x2="764" y2="220" stroke="#27272a" stroke-width="1"/>
  <text fill="#fff" x="230" y="248" font-family="system-ui" font-size="11">Retargeting - Display</text>
  <text fill="#71717a" x="230" y="263" font-family="system-ui" font-size="9">Google Ads - 12 ad groups</text>
  <rect fill="#22c55e20" x="360" y="240" width="55" height="20" rx="3"/>
  <text fill="#22c55e" x="373" y="254" font-family="system-ui" font-size="9">Active</text>
  <text fill="#fff" x="440" y="253" font-family="system-ui" font-size="11">$89,200</text>
  <text fill="#22c55e" x="520" y="253" font-family="system-ui" font-size="11">3.8x</text>
  <text fill="#fff" x="590" y="253" font-family="system-ui" font-size="11">2,156</text>
  <rect fill="#1a1a1d" x="670" y="240" width="50" height="24" rx="4"/>
  <text fill="#a1a1aa" x="685" y="256" font-family="system-ui" font-size="10">Edit</text>
  <line x1="216" y1="280" x2="764" y2="280" stroke="#27272a" stroke-width="1"/>
  <text fill="#fff" x="230" y="308" font-family="system-ui" font-size="11">Prospecting - Video</text>
  <text fill="#71717a" x="230" y="323" font-family="system-ui" font-size="9">YouTube - 8 ad groups</text>
  <rect fill="#f59e0b20" x="360" y="300" width="55" height="20" rx="3"/>
  <text fill="#f59e0b" x="368" y="314" font-family="system-ui" font-size="9">Learning</text>
  <text fill="#fff" x="440" y="313" font-family="system-ui" font-size="11">$67,800</text>
  <text fill="#f59e0b" x="520" y="313" font-family="system-ui" font-size="11">1.9x</text>
  <text fill="#fff" x="590" y="313" font-family="system-ui" font-size="11">1,245</text>
  <rect fill="#1a1a1d" x="670" y="300" width="50" height="24" rx="4"/>
  <text fill="#a1a1aa" x="685" y="316" font-family="system-ui" font-size="10">Edit</text>
  <line x1="216" y1="340" x2="764" y2="340" stroke="#27272a" stroke-width="1"/>
  <text fill="#fff" x="230" y="368" font-family="system-ui" font-size="11">Holiday Sale - Shopping</text>
  <text fill="#71717a" x="230" y="383" font-family="system-ui" font-size="9">Google Shopping - 156 products</text>
  <rect fill="#71717a20" x="360" y="360" width="55" height="20" rx="3"/>
  <text fill="#71717a" x="370" y="374" font-family="system-ui" font-size="9">Paused</text>
  <text fill="#71717a" x="440" y="373" font-family="system-ui" font-size="11">$0</text>
  <text fill="#71717a" x="520" y="373" font-family="system-ui" font-size="11">-</text>
  <text fill="#71717a" x="590" y="373" font-family="system-ui" font-size="11">-</text>
  <rect fill="#1a1a1d" x="670" y="360" width="50" height="24" rx="4"/>
  <text fill="#a1a1aa" x="685" y="376" font-family="system-ui" font-size="10">Edit</text>
  <text fill="#71717a" x="230" y="455" font-family="system-ui" font-size="10">Showing 4 campaigns</text>
</svg>
