<svg xmlns="http://www.w3.org/2000/svg" viewBox="0 0 800 500">
  <rect fill="#ffffff" width="800" height="500"/>
  <rect fill="#f8fafc" x="0" y="0" width="800" height="50"/>
  <text fill="#1e293b" x="30" y="32" font-size="16" font-weight="bold">Seller Dashboard</text>
  <rect fill="#3b82f6" x="650" y="12" width="120" height="28" rx="6"/>
  <text fill="#fff" x="675" y="31" font-size="11">+ Add Listing</text>
  
  <rect fill="#ffffff" x="30" y="65" width="175" height="85" rx="10" stroke="#e2e8f0" stroke-width="1"/>
  <text fill="#64748b" x="50" y="90" font-size="10">Active Listings</text>
  <text fill="#3b82f6" x="50" y="125" font-size="26" font-weight="bold">12</text>
  <text fill="#64748b" x="50" y="142" font-size="9">3 pending review</text>
  
  <rect fill="#ffffff" x="220" y="65" width="175" height="85" rx="10" stroke="#e2e8f0" stroke-width="1"/>
  <text fill="#64748b" x="240" y="90" font-size="10">Total Views</text>
  <text fill="#16a34a" x="240" y="125" font-size="26" font-weight="bold">4.8K</text>
  <text fill="#16a34a" x="240" y="142" font-size="9">+24% this week</text>
  
  <rect fill="#ffffff" x="410" y="65" width="175" height="85" rx="10" stroke="#e2e8f0" stroke-width="1"/>
  <text fill="#64748b" x="430" y="90" font-size="10">Inquiries</text>
  <text fill="#f59e0b" x="430" y="125" font-size="26" font-weight="bold">47</text>
  <text fill="#f59e0b" x="430" y="142" font-size="9">8 unread messages</text>
  
  <rect fill="#ffffff" x="600" y="65" width="175" height="85" rx="10" stroke="#e2e8f0" stroke-width="1"/>
  <text fill="#64748b" x="620" y="90" font-size="10">Monthly Sales</text>
  <text fill="#1e293b" x="620" y="125" font-size="26" font-weight="bold">$245K</text>
  <text fill="#16a34a" x="620" y="142" font-size="9">3 vehicles sold</text>
  
  <rect fill="#ffffff" x="30" y="165" width="745" height="315" rx="12" stroke="#e2e8f0" stroke-width="1"/>
  <text fill="#1e293b" x="50" y="195" font-size="13" font-weight="600">My Listings</text>
  
  <rect fill="#f8fafc" x="50" y="215" width="705" height="40" rx="6"/>
  <text fill="#64748b" x="70" y="240" font-size="9" font-weight="500">Vehicle</text>
  <text fill="#64748b" x="280" y="240" font-size="9" font-weight="500">Price</text>
  <text fill="#64748b" x="370" y="240" font-size="9" font-weight="500">Views</text>
  <text fill="#64748b" x="450" y="240" font-size="9" font-weight="500">Inquiries</text>
  <text fill="#64748b" x="540" y="240" font-size="9" font-weight="500">Status</text>
  <text fill="#64748b" x="660" y="240" font-size="9" font-weight="500">Actions</text>
  
  <rect fill="#ffffff" x="50" y="265" width="705" height="55" rx="6" stroke="#e2e8f0" stroke-width="1"/>
  <rect fill="#f1f5f9" x="65" y="275" width="55" height="35" rx="4"/>
  <text fill="#1e293b" x="135" y="298" font-size="11" font-weight="500">2024 BMW M4 Competition</text>
  <text fill="#1e293b" x="280" y="298" font-size="11">$78,900</text>
  <text fill="#1e293b" x="370" y="298" font-size="11">1,245</text>
  <text fill="#1e293b" x="450" y="298" font-size="11">23</text>
  <rect fill="#dcfce7" x="540" y="285" width="55" height="22" rx="11"/>
  <text fill="#16a34a" x="553" y="300" font-size="9">Active</text>
  <text fill="#3b82f6" x="660" y="298" font-size="10">Edit</text>
  <text fill="#64748b" x="695" y="298" font-size="10">Delete</text>
  
  <rect fill="#ffffff" x="50" y="330" width="705" height="55" rx="6" stroke="#e2e8f0" stroke-width="1"/>
  <rect fill="#f1f5f9" x="65" y="340" width="55" height="35" rx="4"/>
  <text fill="#1e293b" x="135" y="363" font-size="11" font-weight="500">2023 Mercedes-AMG GT</text>
  <text fill="#1e293b" x="280" y="363" font-size="11">$124,500</text>
  <text fill="#1e293b" x="370" y="363" font-size="11">892</text>
  <text fill="#1e293b" x="450" y="363" font-size="11">15</text>
  <rect fill="#dcfce7" x="540" y="350" width="55" height="22" rx="11"/>
  <text fill="#16a34a" x="553" y="365" font-size="9">Active</text>
  <text fill="#3b82f6" x="660" y="363" font-size="10">Edit</text>
  <text fill="#64748b" x="695" y="363" font-size="10">Delete</text>
  
  <rect fill="#ffffff" x="50" y="395" width="705" height="55" rx="6" stroke="#e2e8f0" stroke-width="1"/>
  <rect fill="#f1f5f9" x="65" y="405" width="55" height="35" rx="4"/>
  <text fill="#1e293b" x="135" y="428" font-size="11" font-weight="500">2022 Porsche Taycan</text>
  <text fill="#1e293b" x="280" y="428" font-size="11">$89,000</text>
  <text fill="#1e293b" x="370" y="428" font-size="11">567</text>
  <text fill="#1e293b" x="450" y="428" font-size="11">9</text>
  <rect fill="#fef3c7" x="540" y="415" width="60" height="22" rx="11"/>
  <text fill="#d97706" x="550" y="430" font-size="9">Pending</text>
  <text fill="#3b82f6" x="660" y="428" font-size="10">Edit</text>
  <text fill="#64748b" x="695" y="428" font-size="10">Delete</text>
</svg>
