<svg xmlns="http://www.w3.org/2000/svg" viewBox="0 0 800 500">
  <rect fill="#ffffff" width="800" height="500"/>
  <rect fill="#f8fafc" x="0" y="0" width="800" height="50"/>
  <text fill="#1e293b" x="30" y="32" font-size="16" font-weight="bold">Vehicle Search</text>
  <rect fill="#3b82f6" x="680" y="12" width="90" height="28" rx="6"/>
  <text fill="#fff" x="700" y="31" font-size="11">Save Search</text>
  
  <rect fill="#f8fafc" x="30" y="65" width="200" height="415" rx="12"/>
  <text fill="#1e293b" x="50" y="100" font-size="13" font-weight="600">Filters</text>
  
  <text fill="#64748b" x="50" y="130" font-size="11">Make</text>
  <rect fill="#ffffff" x="50" y="140" width="160" height="32" rx="6" stroke="#e2e8f0" stroke-width="1"/>
  <text fill="#475569" x="65" y="161" font-size="10">Any Make</text>
  
  <text fill="#64748b" x="50" y="195" font-size="11">Price Range</text>
  <rect fill="#ffffff" x="50" y="205" width="75" height="32" rx="6" stroke="#e2e8f0" stroke-width="1"/>
  <text fill="#475569" x="65" y="226" font-size="10">$0</text>
  <rect fill="#ffffff" x="135" y="205" width="75" height="32" rx="6" stroke="#e2e8f0" stroke-width="1"/>
  <text fill="#475569" x="150" y="226" font-size="10">$150k+</text>
  
  <text fill="#64748b" x="50" y="260" font-size="11">Year</text>
  <rect fill="#ffffff" x="50" y="270" width="75" height="32" rx="6" stroke="#e2e8f0" stroke-width="1"/>
  <text fill="#475569" x="65" y="291" font-size="10">2020</text>
  <rect fill="#ffffff" x="135" y="270" width="75" height="32" rx="6" stroke="#e2e8f0" stroke-width="1"/>
  <text fill="#475569" x="150" y="291" font-size="10">2025</text>
  
  <text fill="#64748b" x="50" y="325" font-size="11">Mileage</text>
  <rect fill="#ffffff" x="50" y="335" width="160" height="32" rx="6" stroke="#e2e8f0" stroke-width="1"/>
  <text fill="#475569" x="65" y="356" font-size="10">Under 50,000 mi</text>
  
  <text fill="#64748b" x="50" y="390" font-size="11">Body Style</text>
  <rect fill="#dbeafe" x="50" y="400" width="60" height="26" rx="13"/>
  <text fill="#3b82f6" x="65" y="418" font-size="10">Coupe</text>
  <rect fill="#f1f5f9" x="115" y="400" width="55" height="26" rx="13"/>
  <text fill="#64748b" x="127" y="418" font-size="10">Sedan</text>
  <rect fill="#f1f5f9" x="50" y="432" width="45" height="26" rx="13"/>
  <text fill="#64748b" x="62" y="450" font-size="10">SUV</text>
  <rect fill="#f1f5f9" x="100" y="432" width="70" height="26" rx="13"/>
  <text fill="#64748b" x="110" y="450" font-size="10">Hatchback</text>
  
  <rect fill="#3b82f6" x="50" y="465" width="160" height="36" rx="8"/>
  <text fill="#fff" x="90" y="488" font-size="12">Apply Filters</text>
  
  <rect fill="#ffffff" x="250" y="65" width="530" height="415" rx="12" stroke="#e2e8f0" stroke-width="1"/>
  <text fill="#1e293b" x="270" y="100" font-size="13" font-weight="600">234 Results</text>
  <text fill="#64748b" x="360" y="100" font-size="11">Sorted by: Best Match</text>
  
  <rect fill="#ffffff" x="270" y="120" width="490" height="90" rx="8" stroke="#e2e8f0" stroke-width="1"/>
  <rect fill="#f1f5f9" x="285" y="135" width="110" height="60" rx="6"/>
  <text fill="#1e293b" x="410" y="155" font-size="12" font-weight="500">2024 BMW M4 Competition</text>
  <text fill="#64748b" x="410" y="175" font-size="10">12,450 mi | Automatic | AWD</text>
  <text fill="#3b82f6" x="410" y="195" font-size="16" font-weight="bold">$78,900</text>
  <rect fill="#dcfce7" x="660" y="145" width="80" height="24" rx="4"/>
  <text fill="#16a34a" x="675" y="162" font-size="10">Great Deal</text>
  
  <rect fill="#ffffff" x="270" y="220" width="490" height="90" rx="8" stroke="#e2e8f0" stroke-width="1"/>
  <rect fill="#f1f5f9" x="285" y="235" width="110" height="60" rx="6"/>
  <text fill="#1e293b" x="410" y="255" font-size="12" font-weight="500">2023 Audi RS5 Sportback</text>
  <text fill="#64748b" x="410" y="275" font-size="10">18,900 mi | Automatic | AWD</text>
  <text fill="#3b82f6" x="410" y="295" font-size="16" font-weight="bold">$72,450</text>
  
  <rect fill="#ffffff" x="270" y="320" width="490" height="90" rx="8" stroke="#e2e8f0" stroke-width="1"/>
  <rect fill="#f1f5f9" x="285" y="335" width="110" height="60" rx="6"/>
  <text fill="#1e293b" x="410" y="355" font-size="12" font-weight="500">2024 Mercedes-AMG C63</text>
  <text fill="#64748b" x="410" y="375" font-size="10">5,200 mi | Automatic | AWD</text>
  <text fill="#3b82f6" x="410" y="395" font-size="16" font-weight="bold">$89,000</text>
  <rect fill="#fef3c7" x="660" y="345" width="80" height="24" rx="4"/>
  <text fill="#d97706" x="675" y="362" font-size="10">Fair Price</text>
  
  <rect fill="#f8fafc" x="270" y="425" width="490" height="40" rx="8"/>
  <text fill="#64748b" x="450" y="450" font-size="11">Showing 1-10 of 234 results</text>
</svg>
