<svg xmlns="http://www.w3.org/2000/svg" viewBox="0 0 800 500">
  <!-- LIGHT Theme Automotive Marketplace -->
  <rect width="800" height="500" fill="#f8fafc"/>
  
  <!-- Header -->
  <rect x="0" y="0" width="800" height="65" fill="#ffffff"/>
  <rect x="0" y="64" width="800" height="1" fill="#e2e8f0"/>
  
  <circle cx="40" cy="32" r="16" fill="#2563eb"/>
  <text x="65" y="38" font-family="Arial" font-size="16" font-weight="700" fill="#1e293b">AutoMarket</text>
  
  <rect x="200" y="16" width="300" height="36" rx="18" fill="#f1f5f9" stroke="#e2e8f0"/>
  <text x="220" y="39" font-family="Arial" font-size="12" fill="#94a3b8">Search by make, model, or keyword...</text>
  
  <text x="540" y="38" font-family="Arial" font-size="12" fill="#64748b">Browse</text>
  <text x="600" y="38" font-family="Arial" font-size="12" fill="#64748b">Sell</text>
  <text x="650" y="38" font-family="Arial" font-size="12" fill="#64748b">Saved</text>
  
  <rect x="710" y="16" width="70" height="36" rx="6" fill="#2563eb"/>
  <text x="725" y="39" font-family="Arial" font-size="11" fill="#ffffff">Sign In</text>
  
  <!-- Page content -->
  <text x="30" y="105" font-family="Arial" font-size="22" font-weight="700" fill="#1e293b">Featured Listings</text>
  <text x="30" y="125" font-family="Arial" font-size="12" fill="#64748b">1,247 vehicles available near you</text>
  
  <!-- Vehicle cards -->
  <rect x="30" y="145" width="240" height="330" rx="12" fill="#ffffff" stroke="#e2e8f0"/>
  <rect x="30" y="145" width="240" height="140" rx="12" fill="#e2e8f0"/>
  <rect x="30" y="273" width="240" height="1" fill="#e2e8f0"/>
  <text x="120" y="220" font-family="Arial" font-size="11" fill="#94a3b8">Vehicle Image</text>
  <text x="50" y="310" font-family="Arial" font-size="15" font-weight="600" fill="#1e293b">2024 BMW M4 Competition</text>
  <text x="50" y="330" font-family="Arial" font-size="11" fill="#64748b">12,450 mi • Auto • AWD</text>
  <text x="50" y="365" font-family="Arial" font-size="22" font-weight="700" fill="#2563eb">$78,900</text>
  <text x="50" y="390" font-family="Arial" font-size="10" fill="#64748b">New York, NY • Dealer</text>
  <rect x="50" y="405" width="80" height="26" rx="13" fill="#dcfce7"/>
  <text x="63" y="422" font-family="Arial" font-size="10" fill="#16a34a">Great Deal</text>
  <rect x="140" y="405" width="60" height="26" rx="13" fill="#f1f5f9"/>
  <text x="155" y="422" font-family="Arial" font-size="10" fill="#64748b">Save</text>
  
  <rect x="285" y="145" width="240" height="330" rx="12" fill="#ffffff" stroke="#e2e8f0"/>
  <rect x="285" y="145" width="240" height="140" rx="12" fill="#e2e8f0"/>
  <rect x="285" y="273" width="240" height="1" fill="#e2e8f0"/>
  <text x="375" y="220" font-family="Arial" font-size="11" fill="#94a3b8">Vehicle Image</text>
  <text x="305" y="310" font-family="Arial" font-size="15" font-weight="600" fill="#1e293b">2023 Mercedes-AMG GT</text>
  <text x="305" y="330" font-family="Arial" font-size="11" fill="#64748b">8,200 mi • Auto • RWD</text>
  <text x="305" y="365" font-family="Arial" font-size="22" font-weight="700" fill="#2563eb">$124,500</text>
  <text x="305" y="390" font-family="Arial" font-size="10" fill="#64748b">Los Angeles, CA • Private</text>
  <rect x="305" y="405" width="70" height="26" rx="13" fill="#fef3c7"/>
  <text x="318" y="422" font-family="Arial" font-size="10" fill="#d97706">Premium</text>
  <rect x="385" y="405" width="60" height="26" rx="13" fill="#f1f5f9"/>
  <text x="400" y="422" font-family="Arial" font-size="10" fill="#64748b">Save</text>
  
  <rect x="540" y="145" width="240" height="330" rx="12" fill="#ffffff" stroke="#e2e8f0"/>
  <rect x="540" y="145" width="240" height="140" rx="12" fill="#e2e8f0"/>
  <rect x="540" y="273" width="240" height="1" fill="#e2e8f0"/>
  <text x="630" y="220" font-family="Arial" font-size="11" fill="#94a3b8">Vehicle Image</text>
  <text x="560" y="310" font-family="Arial" font-size="15" font-weight="600" fill="#1e293b">2024 Porsche 911 Carrera</text>
  <text x="560" y="330" font-family="Arial" font-size="11" fill="#64748b">3,100 mi • PDK • AWD</text>
  <text x="560" y="365" font-family="Arial" font-size="22" font-weight="700" fill="#2563eb">$142,000</text>
  <text x="560" y="390" font-family="Arial" font-size="10" fill="#64748b">Miami, FL • Dealer</text>
  <rect x="560" y="405" width="55" height="26" rx="13" fill="#dbeafe"/>
  <text x="572" y="422" font-family="Arial" font-size="10" fill="#2563eb">New</text>
  <rect x="625" y="405" width="60" height="26" rx="13" fill="#f1f5f9"/>
  <text x="640" y="422" font-family="Arial" font-size="10" fill="#64748b">Save</text>
</svg>
