<svg xmlns="http://www.w3.org/2000/svg" viewBox="0 0 800 500">
  <rect fill="#0f1419" width="800" height="500"/>
  <text fill="#f3f4f6" x="30" y="35" font-size="18" font-weight="bold">Maintenance Schedule</text>
  <rect fill="#1e2433" x="30" y="55" width="740" height="60" rx="10"/>
  <rect fill="#ef4444" x="50" y="70" width="150" height="30" rx="6"/>
  <text fill="#fff" x="88" y="90" font-size="11">Critical (8)</text>
  <rect fill="#f59e0b" opacity="0.3" x="210" y="70" width="120" height="30" rx="6"/>
  <text fill="#f59e0b" x="238" y="90" font-size="11">Due Soon (23)</text>
  <rect fill="#374151" x="340" y="70" width="120" height="30" rx="6"/>
  <text fill="#9ca3af" x="365" y="90" font-size="11">Scheduled (16)</text>
  <rect fill="#374151" x="470" y="70" width="120" height="30" rx="6"/>
  <text fill="#9ca3af" x="495" y="90" font-size="11">Completed</text>
  <rect fill="#ef4444" opacity="0.1" x="30" y="130" width="740" height="80" rx="10"/>
  <rect fill="#ef4444" x="30" y="130" width="4" height="80"/>
  <circle fill="#ef4444" cx="60" cy="170" r="18"/>
  <text fill="#fff" x="55" y="175" font-size="12">!</text>
  <text fill="#f3f4f6" x="95" y="160" font-size="13" font-weight="500">CNC Machine XR-500 - Critical Inspection Overdue</text>
  <text fill="#9ca3af" x="95" y="180" font-size="11">Asset #A-001 • Building A • Last maintained: 45 days ago</text>
  <rect fill="#ef4444" x="650" y="155" width="100" height="32" rx="6"/>
  <text fill="#fff" x="670" y="176" font-size="11">Schedule</text>
  <rect fill="#f59e0b" opacity="0.1" x="30" y="220" width="740" height="75" rx="10"/>
  <rect fill="#f59e0b" x="30" y="220" width="4" height="75"/>
  <circle fill="#f59e0b" cx="60" cy="257" r="18"/>
  <text fill="#fff" x="52" y="262" font-size="10">⏰</text>
  <text fill="#f3f4f6" x="95" y="250" font-size="13" font-weight="500">Industrial Printer P200 - Oil Change Due</text>
  <text fill="#9ca3af" x="95" y="268" font-size="11">Asset #A-002 • Building B • Due in 3 days</text>
  <rect fill="#f59e0b" x="650" y="242" width="100" height="32" rx="6"/>
  <text fill="#fff" x="670" y="263" font-size="11">Schedule</text>
  <rect fill="#f59e0b" opacity="0.1" x="30" y="305" width="740" height="75" rx="10"/>
  <rect fill="#f59e0b" x="30" y="305" width="4" height="75"/>
  <circle fill="#f59e0b" cx="60" cy="342" r="18"/>
  <text fill="#fff" x="52" y="347" font-size="10">⏰</text>
  <text fill="#f3f4f6" x="95" y="335" font-size="13" font-weight="500">HVAC Unit #12 - Filter Replacement</text>
  <text fill="#9ca3af" x="95" y="353" font-size="11">Asset #H-012 • Building C • Due in 5 days</text>
  <rect fill="#f59e0b" x="650" y="327" width="100" height="32" rx="6"/>
  <text fill="#fff" x="670" y="348" font-size="11">Schedule</text>
  <rect fill="#0f1419" x="30" y="390" width="740" height="75" rx="10"/>
  <circle fill="#3b82f6" cx="60" cy="427" r="18"/>
  <text fill="#fff" x="52" y="432" font-size="10">📅</text>
  <text fill="#f3f4f6" x="95" y="420" font-size="13" font-weight="500">Server Rack A1 - Quarterly Inspection</text>
  <text fill="#9ca3af" x="95" y="438" font-size="11">Asset #S-001 • Data Center • Scheduled: Feb 15, 2026</text>
  <rect fill="#374151" x="650" y="412" width="100" height="32" rx="6"/>
  <text fill="#9ca3af" x="675" y="433" font-size="11">Details</text>
</svg>
