<svg xmlns="http://www.w3.org/2000/svg" viewBox="0 0 800 500">
  <rect fill="#0f1419" width="800" height="500"/>
  <text fill="#f3f4f6" x="30" y="35" font-size="18" font-weight="bold">Reports &amp; Analytics</text>
  <rect fill="#1e2433" x="30" y="55" width="480" height="220" rx="12"/>
  <text fill="#f3f4f6" x="50" y="85" font-size="14" font-weight="500">Asset Value Trend</text>
  <rect fill="#0f1419" x="50" y="105" width="440" height="150" rx="8"/>
  <line stroke="#374151" x1="70" y1="200" x2="470" y2="200"/>
  <polyline fill="none" stroke="#f59e0b" stroke-width="2" points="90,150 130,155 170,160 210,152 250,158 290,165 330,162 370,170 410,168 450,175"/>
  <circle fill="#f59e0b" cx="450" cy="175" r="4"/>
  <text fill="#9ca3af" x="90" y="220" font-size="9">Jul</text>
  <text fill="#9ca3af" x="170" y="220" font-size="9">Sep</text>
  <text fill="#9ca3af" x="250" y="220" font-size="9">Nov</text>
  <text fill="#9ca3af" x="330" y="220" font-size="9">Jan</text>
  <text fill="#9ca3af" x="410" y="220" font-size="9">Mar</text>
  <text fill="#f59e0b" x="370" y="145" font-size="10">$14.2M current</text>
  <rect fill="#1e2433" x="530" y="55" width="250" height="220" rx="12"/>
  <text fill="#f3f4f6" x="550" y="85" font-size="14" font-weight="500">Asset by Status</text>
  <circle fill="none" stroke="#22c55e" stroke-width="25" cx="655" cy="175" r="60" stroke-dasharray="280 100"/>
  <circle fill="none" stroke="#f59e0b" stroke-width="25" cx="655" cy="175" r="60" stroke-dasharray="50 330" stroke-dashoffset="-280"/>
  <circle fill="none" stroke="#ef4444" stroke-width="25" cx="655" cy="175" r="60" stroke-dasharray="25 355" stroke-dashoffset="-330"/>
  <rect fill="#22c55e" x="550" y="235" width="10" height="10" rx="2"/>
  <text fill="#9ca3af" x="565" y="244" font-size="9">Active (92%)</text>
  <rect fill="#f59e0b" x="550" y="250" width="10" height="10" rx="2"/>
  <text fill="#9ca3af" x="565" y="259" font-size="9">Maint. (5%)</text>
  <rect fill="#ef4444" x="660" y="235" width="10" height="10" rx="2"/>
  <text fill="#9ca3af" x="675" y="244" font-size="9">Critical (3%)</text>
  <rect fill="#1e2433" x="30" y="290" width="370" height="190" rx="12"/>
  <text fill="#f3f4f6" x="50" y="320" font-size="14" font-weight="500">Maintenance Costs</text>
  <rect fill="#0f1419" x="50" y="340" width="330" height="120" rx="8"/>
  <rect fill="#ef4444" x="70" y="370" width="30" height="70" rx="3"/>
  <rect fill="#f59e0b" x="115" y="390" width="30" height="50" rx="3"/>
  <rect fill="#22c55e" x="160" y="380" width="30" height="60" rx="3"/>
  <rect fill="#3b82f6" x="205" y="395" width="30" height="45" rx="3"/>
  <rect fill="#a855f7" x="250" y="400" width="30" height="40" rx="3"/>
  <rect fill="#ec4899" opacity="0.5" x="295" y="410" width="30" height="30" rx="3"/>
  <text fill="#9ca3af" x="72" y="455" font-size="8">Sep</text>
  <text fill="#9ca3af" x="117" y="455" font-size="8">Oct</text>
  <text fill="#9ca3af" x="162" y="455" font-size="8">Nov</text>
  <text fill="#9ca3af" x="207" y="455" font-size="8">Dec</text>
  <text fill="#9ca3af" x="252" y="455" font-size="8">Jan</text>
  <text fill="#9ca3af" x="297" y="455" font-size="8">Feb</text>
  <rect fill="#1e2433" x="415" y="290" width="365" height="190" rx="12"/>
  <text fill="#f3f4f6" x="435" y="320" font-size="14" font-weight="500">Top Cost Centers</text>
  <rect fill="#0f1419" x="435" y="340" width="325" height="45" rx="6"/>
  <text fill="#f3f4f6" x="455" y="368" font-size="11">Manufacturing Equipment</text>
  <rect fill="#0f1419" x="620" y="355" width="100" height="16" rx="3"/>
  <rect fill="#ef4444" x="620" y="355" width="80" height="16" rx="3"/>
  <text fill="#f3f4f6" x="730" y="368" font-size="10">$42K</text>
  <rect fill="#0f1419" x="435" y="395" width="325" height="45" rx="6"/>
  <text fill="#f3f4f6" x="455" y="423" font-size="11">HVAC Systems</text>
  <rect fill="#0f1419" x="620" y="410" width="100" height="16" rx="3"/>
  <rect fill="#f59e0b" x="620" y="410" width="55" height="16" rx="3"/>
  <text fill="#f3f4f6" x="730" y="423" font-size="10">$28K</text>
</svg>
