<svg xmlns="http://www.w3.org/2000/svg" viewBox="0 0 800 500">
  <rect fill="#0f1419" width="800" height="500"/>
  <text fill="#f3f4f6" x="30" y="35" font-size="18" font-weight="bold">Asset Details - CNC Machine XR-500</text>
  <rect fill="#1e2433" x="30" y="55" width="450" height="200" rx="12"/>
  <rect fill="#374151" x="50" y="75" width="180" height="120" rx="8"/>
  <text fill="#9ca3af" x="110" y="140" font-size="12">Asset Image</text>
  <text fill="#f3f4f6" x="250" y="100" font-size="14" font-weight="500">CNC Machine XR-500</text>
  <text fill="#9ca3af" x="250" y="120" font-size="11">Asset ID: #A-001</text>
  <text fill="#9ca3af" x="250" y="145" font-size="10">Category: Manufacturing Equipment</text>
  <text fill="#9ca3af" x="250" y="165" font-size="10">Location: Building A, Floor 2</text>
  <text fill="#9ca3af" x="250" y="185" font-size="10">Purchased: March 15, 2022</text>
  <rect fill="#ef4444" opacity="0.3" x="250" y="200" width="100" height="24" rx="4"/>
  <text fill="#ef4444" x="262" y="217" font-size="10">Maint. Overdue</text>
  <rect fill="#1e2433" x="500" y="55" width="280" height="200" rx="12"/>
  <text fill="#f3f4f6" x="520" y="85" font-size="14" font-weight="500">Financial Info</text>
  <rect fill="#0f1419" x="520" y="105" width="120" height="55" rx="6"/>
  <text fill="#9ca3af" x="535" y="125" font-size="9">Purchase Price</text>
  <text fill="#f3f4f6" x="535" y="148" font-size="16" font-weight="bold">$150,000</text>
  <rect fill="#0f1419" x="650" y="105" width="110" height="55" rx="6"/>
  <text fill="#9ca3af" x="665" y="125" font-size="9">Current Value</text>
  <text fill="#f3f4f6" x="665" y="148" font-size="16" font-weight="bold">$125,000</text>
  <rect fill="#0f1419" x="520" y="170" width="120" height="55" rx="6"/>
  <text fill="#9ca3af" x="535" y="190" font-size="9">Depreciation</text>
  <text fill="#f59e0b" x="535" y="213" font-size="16" font-weight="bold">$25,000</text>
  <rect fill="#0f1419" x="650" y="170" width="110" height="55" rx="6"/>
  <text fill="#9ca3af" x="665" y="190" font-size="9">Maint. Costs YTD</text>
  <text fill="#ef4444" x="665" y="213" font-size="16" font-weight="bold">$8,420</text>
  <rect fill="#1e2433" x="30" y="270" width="370" height="210" rx="12"/>
  <text fill="#f3f4f6" x="50" y="300" font-size="14" font-weight="500">Maintenance History</text>
  <rect fill="#22c55e" opacity="0.1" x="50" y="320" width="330" height="45" rx="6"/>
  <text fill="#22c55e" x="70" y="340" font-size="10">Preventive Maintenance</text>
  <text fill="#9ca3af" x="70" y="355" font-size="9">Dec 15, 2025 • Completed by John D.</text>
  <rect fill="#22c55e" opacity="0.1" x="50" y="375" width="330" height="45" rx="6"/>
  <text fill="#22c55e" x="70" y="395" font-size="10">Oil Change</text>
  <text fill="#9ca3af" x="70" y="410" font-size="9">Nov 1, 2025 • Completed by Sarah M.</text>
  <rect fill="#f59e0b" opacity="0.1" x="50" y="430" width="330" height="40" rx="6"/>
  <text fill="#f59e0b" x="70" y="455" font-size="10">Repair - Spindle replacement</text>
  <rect fill="#1e2433" x="415" y="270" width="365" height="210" rx="12"/>
  <text fill="#f3f4f6" x="435" y="300" font-size="14" font-weight="500">Performance Metrics</text>
  <rect fill="#0f1419" x="435" y="320" width="160" height="65" rx="8"/>
  <text fill="#9ca3af" x="455" y="345" font-size="9">Uptime (30 days)</text>
  <text fill="#22c55e" x="455" y="372" font-size="22" font-weight="bold">94.2%</text>
  <rect fill="#0f1419" x="605" y="320" width="155" height="65" rx="8"/>
  <text fill="#9ca3af" x="625" y="345" font-size="9">Efficiency Rating</text>
  <text fill="#3b82f6" x="625" y="372" font-size="22" font-weight="bold">87%</text>
  <rect fill="#ef4444" x="435" y="400" width="150" height="40" rx="8"/>
  <text fill="#fff" x="455" y="425" font-size="11">Schedule Maint.</text>
  <rect fill="#374151" x="595" y="400" width="150" height="40" rx="8"/>
  <text fill="#f3f4f6" x="630" y="425" font-size="11">View Docs</text>
</svg>
