<svg xmlns="http://www.w3.org/2000/svg" viewBox="0 0 800 500">
  <rect fill="#0f1419" width="800" height="500"/>
  <rect fill="#1a1f2e" x="0" y="0" width="60" height="500"/>
  <rect fill="#f59e0b" opacity="0.3" x="12" y="80" width="36" height="36" rx="8"/>
  <rect fill="#374151" x="12" y="130" width="36" height="36" rx="8"/>
  <rect fill="#374151" x="12" y="180" width="36" height="36" rx="8"/>
  <rect fill="#374151" x="12" y="230" width="36" height="36" rx="8"/>
  <text fill="#f3f4f6" x="80" y="35" font-size="18" font-weight="bold">Asset Overview</text>
  <rect fill="#1e2433" x="80" y="55" width="170" height="90" rx="10"/>
  <text fill="#9ca3af" x="100" y="80" font-size="10">Total Assets</text>
  <text fill="#f59e0b" x="100" y="115" font-size="28" font-weight="bold">2,847</text>
  <text fill="#22c55e" x="100" y="135" font-size="10">+12 this week</text>
  <rect fill="#1e2433" x="260" y="55" width="170" height="90" rx="10"/>
  <text fill="#9ca3af" x="280" y="80" font-size="10">Active</text>
  <text fill="#22c55e" x="280" y="115" font-size="28" font-weight="bold">2,614</text>
  <text fill="#9ca3af" x="280" y="135" font-size="10">92% utilization</text>
  <rect fill="#1e2433" x="440" y="55" width="170" height="90" rx="10"/>
  <text fill="#9ca3af" x="460" y="80" font-size="10">Maintenance Due</text>
  <text fill="#ef4444" x="460" y="115" font-size="28" font-weight="bold">47</text>
  <text fill="#ef4444" x="460" y="135" font-size="10">8 critical</text>
  <rect fill="#1e2433" x="620" y="55" width="160" height="90" rx="10"/>
  <text fill="#9ca3af" x="640" y="80" font-size="10">Total Value</text>
  <text fill="#f3f4f6" x="640" y="115" font-size="28" font-weight="bold">$14.2M</text>
  <text fill="#9ca3af" x="640" y="135" font-size="10">Book value</text>
  <rect fill="#1e2433" x="80" y="160" width="500" height="320" rx="12"/>
  <text fill="#f3f4f6" x="100" y="195" font-size="14" font-weight="500">Asset List</text>
  <rect fill="#0f1419" x="100" y="215" width="460" height="40" rx="6"/>
  <text fill="#9ca3af" x="120" y="238" font-size="9">ID</text>
  <text fill="#9ca3af" x="180" y="238" font-size="9">Asset Name</text>
  <text fill="#9ca3af" x="330" y="238" font-size="9">Location</text>
  <text fill="#9ca3af" x="420" y="238" font-size="9">Status</text>
  <text fill="#9ca3af" x="500" y="238" font-size="9">Value</text>
  <rect fill="#0f1419" x="100" y="265" width="460" height="45" rx="6"/>
  <text fill="#f3f4f6" x="120" y="292" font-size="10">#A-001</text>
  <text fill="#f3f4f6" x="180" y="292" font-size="10">CNC Machine XR-500</text>
  <text fill="#9ca3af" x="330" y="292" font-size="10">Building A</text>
  <rect fill="#22c55e" opacity="0.3" x="420" y="280" width="50" height="20" rx="4"/>
  <text fill="#22c55e" x="432" y="294" font-size="9">Active</text>
  <text fill="#f3f4f6" x="500" y="292" font-size="10">$125,000</text>
  <rect fill="#0f1419" x="100" y="320" width="460" height="45" rx="6"/>
  <text fill="#f3f4f6" x="120" y="347" font-size="10">#A-002</text>
  <text fill="#f3f4f6" x="180" y="347" font-size="10">Industrial Printer P200</text>
  <text fill="#9ca3af" x="330" y="347" font-size="10">Building B</text>
  <rect fill="#f59e0b" opacity="0.3" x="420" y="335" width="70" height="20" rx="4"/>
  <text fill="#f59e0b" x="428" y="349" font-size="9">Maintenance</text>
  <text fill="#f3f4f6" x="500" y="347" font-size="10">$45,000</text>
  <rect fill="#0f1419" x="100" y="375" width="460" height="45" rx="6"/>
  <text fill="#f3f4f6" x="120" y="402" font-size="10">#A-003</text>
  <text fill="#f3f4f6" x="180" y="402" font-size="10">Forklift Model FL-30</text>
  <text fill="#9ca3af" x="330" y="402" font-size="10">Warehouse</text>
  <rect fill="#22c55e" opacity="0.3" x="420" y="390" width="50" height="20" rx="4"/>
  <text fill="#22c55e" x="432" y="404" font-size="9">Active</text>
  <text fill="#f3f4f6" x="500" y="402" font-size="10">$38,000</text>
  <rect fill="#1e2433" x="600" y="160" width="180" height="320" rx="12"/>
  <text fill="#f3f4f6" x="620" y="195" font-size="14" font-weight="500">Quick Actions</text>
  <rect fill="#f59e0b" x="620" y="215" width="140" height="40" rx="8"/>
  <text fill="#fff" x="655" y="240" font-size="11">Add Asset</text>
  <rect fill="#374151" x="620" y="265" width="140" height="40" rx="8"/>
  <text fill="#f3f4f6" x="640" y="290" font-size="11">Schedule Maint.</text>
  <rect fill="#374151" x="620" y="315" width="140" height="40" rx="8"/>
  <text fill="#f3f4f6" x="650" y="340" font-size="11">Run Report</text>
</svg>
