<svg xmlns="http://www.w3.org/2000/svg" viewBox="0 0 800 500">
  <!-- LIGHT Theme HR Employee Table -->
  <rect width="800" height="500" fill="#f8fafc"/>
  
  <!-- Header bar -->
  <rect x="0" y="0" width="800" height="60" fill="#ffffff"/>
  <rect x="0" y="59" width="800" height="1" fill="#e2e8f0"/>
  
  <text x="20" y="38" font-family="Arial" font-size="18" font-weight="600" fill="#1e293b">Employee Directory</text>
  
  <!-- Search and filters -->
  <rect x="200" y="18" width="250" height="32" rx="6" fill="#f1f5f9" stroke="#e2e8f0"/>
  <text x="215" y="38" font-family="Arial" font-size="12" fill="#94a3b8">Search employees...</text>
  
  <rect x="460" y="18" width="100" height="32" rx="6" fill="#ffffff" stroke="#e2e8f0"/>
  <text x="475" y="38" font-family="Arial" font-size="11" fill="#64748b">Department</text>
  
  <rect x="570" y="18" width="80" height="32" rx="6" fill="#ffffff" stroke="#e2e8f0"/>
  <text x="588" y="38" font-family="Arial" font-size="11" fill="#64748b">Status</text>
  
  <rect x="700" y="18" width="80" height="32" rx="6" fill="#6366f1"/>
  <text x="717" y="38" font-family="Arial" font-size="11" fill="#ffffff">+ Add New</text>
  
  <!-- Table header -->
  <rect x="20" y="80" width="760" height="40" fill="#f1f5f9"/>
  <text x="40" y="105" font-family="Arial" font-size="11" font-weight="600" fill="#64748b">EMPLOYEE</text>
  <text x="230" y="105" font-family="Arial" font-size="11" font-weight="600" fill="#64748b">DEPARTMENT</text>
  <text x="370" y="105" font-family="Arial" font-size="11" font-weight="600" fill="#64748b">ROLE</text>
  <text x="520" y="105" font-family="Arial" font-size="11" font-weight="600" fill="#64748b">START DATE</text>
  <text x="630" y="105" font-family="Arial" font-size="11" font-weight="600" fill="#64748b">STATUS</text>
  <text x="720" y="105" font-family="Arial" font-size="11" font-weight="600" fill="#64748b">ACTIONS</text>
  
  <!-- Table rows -->
  <rect x="20" y="120" width="760" height="60" fill="#ffffff"/>
  <rect x="20" y="179" width="760" height="1" fill="#e2e8f0"/>
  <circle cx="55" cy="150" r="18" fill="#ddd6fe"/>
  <text x="48" y="155" font-family="Arial" font-size="12" font-weight="600" fill="#6366f1">SC</text>
  <text x="85" y="145" font-family="Arial" font-size="13" font-weight="500" fill="#1e293b">Sarah Chen</text>
  <text x="85" y="160" font-family="Arial" font-size="11" fill="#64748b">sarah.chen@company.com</text>
  <text x="230" y="152" font-family="Arial" font-size="12" fill="#475569">Engineering</text>
  <text x="370" y="152" font-family="Arial" font-size="12" fill="#475569">Senior Developer</text>
  <text x="520" y="152" font-family="Arial" font-size="12" fill="#475569">Jan 15, 2022</text>
  <rect x="630" y="140" width="55" height="24" rx="12" fill="#dcfce7"/>
  <text x="643" y="156" font-family="Arial" font-size="10" fill="#16a34a">Active</text>
  <rect x="720" y="142" width="50" height="20" rx="4" fill="#f1f5f9"/>
  <text x="735" y="156" font-family="Arial" font-size="10" fill="#64748b">Edit</text>
  
  <rect x="20" y="180" width="760" height="60" fill="#ffffff"/>
  <rect x="20" y="239" width="760" height="1" fill="#e2e8f0"/>
  <circle cx="55" cy="210" r="18" fill="#fecaca"/>
  <text x="48" y="215" font-family="Arial" font-size="12" font-weight="600" fill="#dc2626">MJ</text>
  <text x="85" y="205" font-family="Arial" font-size="13" font-weight="500" fill="#1e293b">Mike Johnson</text>
  <text x="85" y="220" font-family="Arial" font-size="11" fill="#64748b">mike.johnson@company.com</text>
  <text x="230" y="212" font-family="Arial" font-size="12" fill="#475569">Product</text>
  <text x="370" y="212" font-family="Arial" font-size="12" fill="#475569">Product Manager</text>
  <text x="520" y="212" font-family="Arial" font-size="12" fill="#475569">Mar 3, 2021</text>
  <rect x="630" y="200" width="55" height="24" rx="12" fill="#dcfce7"/>
  <text x="643" y="216" font-family="Arial" font-size="10" fill="#16a34a">Active</text>
  <rect x="720" y="202" width="50" height="20" rx="4" fill="#f1f5f9"/>
  <text x="735" y="216" font-family="Arial" font-size="10" fill="#64748b">Edit</text>
  
  <rect x="20" y="240" width="760" height="60" fill="#ffffff"/>
  <rect x="20" y="299" width="760" height="1" fill="#e2e8f0"/>
  <circle cx="55" cy="270" r="18" fill="#bfdbfe"/>
  <text x="48" y="275" font-family="Arial" font-size="12" font-weight="600" fill="#2563eb">EW</text>
  <text x="85" y="265" font-family="Arial" font-size="13" font-weight="500" fill="#1e293b">Emily Wang</text>
  <text x="85" y="280" font-family="Arial" font-size="11" fill="#64748b">emily.wang@company.com</text>
  <text x="230" y="272" font-family="Arial" font-size="12" fill="#475569">Design</text>
  <text x="370" y="272" font-family="Arial" font-size="12" fill="#475569">UX Designer</text>
  <text x="520" y="272" font-family="Arial" font-size="12" fill="#475569">Aug 20, 2023</text>
  <rect x="630" y="260" width="65" height="24" rx="12" fill="#fef3c7"/>
  <text x="640" y="276" font-family="Arial" font-size="10" fill="#d97706">On Leave</text>
  <rect x="720" y="262" width="50" height="20" rx="4" fill="#f1f5f9"/>
  <text x="735" y="276" font-family="Arial" font-size="10" fill="#64748b">Edit</text>
  
  <rect x="20" y="300" width="760" height="60" fill="#ffffff"/>
  <rect x="20" y="359" width="760" height="1" fill="#e2e8f0"/>
  <circle cx="55" cy="330" r="18" fill="#d9f99d"/>
  <text x="48" y="335" font-family="Arial" font-size="12" font-weight="600" fill="#65a30d">JD</text>
  <text x="85" y="325" font-family="Arial" font-size="13" font-weight="500" fill="#1e293b">James Davis</text>
  <text x="85" y="340" font-family="Arial" font-size="11" fill="#64748b">james.davis@company.com</text>
  <text x="230" y="332" font-family="Arial" font-size="12" fill="#475569">Sales</text>
  <text x="370" y="332" font-family="Arial" font-size="12" fill="#475569">Account Executive</text>
  <text x="520" y="332" font-family="Arial" font-size="12" fill="#475569">Nov 1, 2022</text>
  <rect x="630" y="320" width="55" height="24" rx="12" fill="#dcfce7"/>
  <text x="643" y="336" font-family="Arial" font-size="10" fill="#16a34a">Active</text>
  <rect x="720" y="322" width="50" height="20" rx="4" fill="#f1f5f9"/>
  <text x="735" y="336" font-family="Arial" font-size="10" fill="#64748b">Edit</text>
  
  <rect x="20" y="360" width="760" height="60" fill="#ffffff"/>
  <circle cx="55" cy="390" r="18" fill="#fde68a"/>
  <text x="48" y="395" font-family="Arial" font-size="12" font-weight="600" fill="#ca8a04">LM</text>
  <text x="85" y="385" font-family="Arial" font-size="13" font-weight="500" fill="#1e293b">Lisa Martinez</text>
  <text x="85" y="400" font-family="Arial" font-size="11" fill="#64748b">lisa.martinez@company.com</text>
  <text x="230" y="392" font-family="Arial" font-size="12" fill="#475569">HR</text>
  <text x="370" y="392" font-family="Arial" font-size="12" fill="#475569">HR Coordinator</text>
  <text x="520" y="392" font-family="Arial" font-size="12" fill="#475569">Jun 10, 2020</text>
  <rect x="630" y="380" width="55" height="24" rx="12" fill="#dcfce7"/>
  <text x="643" y="396" font-family="Arial" font-size="10" fill="#16a34a">Active</text>
  <rect x="720" y="382" width="50" height="20" rx="4" fill="#f1f5f9"/>
  <text x="735" y="396" font-family="Arial" font-size="10" fill="#64748b">Edit</text>
  
  <!-- Pagination -->
  <rect x="20" y="435" width="760" height="50" fill="#ffffff"/>
  <text x="40" y="465" font-family="Arial" font-size="12" fill="#64748b">Showing 1-5 of 1,247 employees</text>
  
  <rect x="660" y="450" width="30" height="28" rx="4" fill="#f1f5f9"/>
  <text x="671" y="468" font-family="Arial" font-size="11" fill="#64748b">1</text>
  
  <rect x="695" y="450" width="30" height="28" rx="4" fill="#6366f1"/>
  <text x="706" y="468" font-family="Arial" font-size="11" fill="#ffffff">2</text>
  
  <rect x="730" y="450" width="30" height="28" rx="4" fill="#f1f5f9"/>
  <text x="741" y="468" font-family="Arial" font-size="11" fill="#64748b">3</text>
</svg>
