<svg xmlns="http://www.w3.org/2000/svg" viewBox="0 0 800 500">
  <rect fill="#0a0a0b" width="800" height="500"/>
  <!-- Desktop Window Chrome -->
  <rect fill="#1a1a1d" x="0" y="0" width="800" height="30"/>
  <circle cx="18" cy="15" r="6" fill="#ef4444"/>
  <circle cx="38" cy="15" r="6" fill="#f59e0b"/>
  <circle cx="58" cy="15" r="6" fill="#22c55e"/>
  <text fill="#a1a1aa" x="320" y="19" font-family="system-ui" font-size="11">GeoViz Pro - Well Correlation</text>
  <!-- Toolbar -->
  <rect fill="#111113" x="0" y="30" width="800" height="40"/>
  <rect fill="#1a1a1d" x="20" y="40" width="100" height="24" rx="4"/>
  <text fill="#a1a1aa" x="40" y="56" font-family="system-ui" font-size="10">Add Well</text>
  <rect fill="#1a1a1d" x="130" y="40" width="120" height="24" rx="4"/>
  <text fill="#a1a1aa" x="145" y="56" font-family="system-ui" font-size="10">Correlation Line</text>
  <rect fill="#f59e0b" x="680" y="40" width="100" height="24" rx="4"/>
  <text fill="#000" x="698" y="56" font-family="system-ui" font-size="10">Save Project</text>
  <!-- Multi-well display -->
  <!-- Well 1 -->
  <rect fill="#111113" x="20" y="80" width="180" height="400" rx="4"/>
  <text fill="#fff" x="80" y="100" font-family="system-ui" font-size="11" font-weight="500">Well-01</text>
  <text fill="#71717a" x="35" y="115" font-family="system-ui" font-size="9">GR | RHOB | DT</text>
  <line x1="35" y1="130" x2="35" y2="460" stroke="#3f3f46" stroke-width="1"/>
  <line x1="95" y1="130" x2="95" y2="460" stroke="#3f3f46" stroke-width="1"/>
  <line x1="155" y1="130" x2="155" y2="460" stroke="#3f3f46" stroke-width="1"/>
  <!-- GR curve -->
  <polyline points="35,140 55,160 45,180 65,200 50,220 70,240 55,260 75,280 60,300 80,320 65,340 85,360 70,380 90,400 75,420 95,440" fill="none" stroke="#22c55e" stroke-width="1.5"/>
  <!-- RHOB curve -->
  <polyline points="95,145 110,165 100,185 115,205 105,225 120,245 110,265 125,285 115,305 130,325 120,345 135,365 125,385 140,405 130,425 145,445" fill="none" stroke="#ef4444" stroke-width="1.5"/>
  <!-- DT curve -->
  <polyline points="155,150 165,170 160,190 170,210 165,230 175,250 170,270 180,290 175,310 185,330 180,350 190,370 185,390 195,410 190,430 200,450" fill="none" stroke="#3b82f6" stroke-width="1.5"/>
  <!-- Formation tops -->
  <line x1="20" y1="200" x2="200" y2="200" stroke="#f59e0b" stroke-width="1" stroke-dasharray="4"/>
  <line x1="20" y1="320" x2="200" y2="320" stroke="#f59e0b" stroke-width="1" stroke-dasharray="4"/>
  <!-- Well 2 -->
  <rect fill="#111113" x="220" y="80" width="180" height="400" rx="4"/>
  <text fill="#fff" x="280" y="100" font-family="system-ui" font-size="11" font-weight="500">Well-02</text>
  <text fill="#71717a" x="235" y="115" font-family="system-ui" font-size="9">GR | RHOB | DT</text>
  <line x1="235" y1="130" x2="235" y2="460" stroke="#3f3f46" stroke-width="1"/>
  <line x1="295" y1="130" x2="295" y2="460" stroke="#3f3f46" stroke-width="1"/>
  <line x1="355" y1="130" x2="355" y2="460" stroke="#3f3f46" stroke-width="1"/>
  <polyline points="235,145 250,165 240,185 255,205 245,225 260,245 250,265 265,285 255,305 270,325 260,345 275,365 265,385 280,405 270,425 285,445" fill="none" stroke="#22c55e" stroke-width="1.5"/>
  <polyline points="295,140 305,160 300,180 310,200 305,220 315,240 310,260 320,280 315,300 325,320 320,340 330,360 325,380 335,400 330,420 340,440" fill="none" stroke="#ef4444" stroke-width="1.5"/>
  <polyline points="355,148 362,168 358,188 365,208 362,228 370,248 367,268 375,288 372,308 380,328 377,348 385,368 382,388 390,408 387,428 395,448" fill="none" stroke="#3b82f6" stroke-width="1.5"/>
  <line x1="220" y1="210" x2="400" y2="210" stroke="#f59e0b" stroke-width="1" stroke-dasharray="4"/>
  <line x1="220" y1="340" x2="400" y2="340" stroke="#f59e0b" stroke-width="1" stroke-dasharray="4"/>
  <!-- Correlation lines connecting wells -->
  <line x1="200" y1="200" x2="220" y2="210" stroke="#f59e0b" stroke-width="2"/>
  <line x1="200" y1="320" x2="220" y2="340" stroke="#f59e0b" stroke-width="2"/>
  <!-- Well 3 -->
  <rect fill="#111113" x="420" y="80" width="180" height="400" rx="4"/>
  <text fill="#fff" x="480" y="100" font-family="system-ui" font-size="11" font-weight="500">Well-03</text>
  <text fill="#71717a" x="435" y="115" font-family="system-ui" font-size="9">GR | RHOB | DT</text>
  <line x1="435" y1="130" x2="435" y2="460" stroke="#3f3f46" stroke-width="1"/>
  <line x1="495" y1="130" x2="495" y2="460" stroke="#3f3f46" stroke-width="1"/>
  <line x1="555" y1="130" x2="555" y2="460" stroke="#3f3f46" stroke-width="1"/>
  <polyline points="435,150 448,170 440,190 453,210 445,230 458,250 450,270 463,290 455,310 468,330 460,350 473,370 465,390 478,410 470,430 483,450" fill="none" stroke="#22c55e" stroke-width="1.5"/>
  <polyline points="495,142 508,162 500,182 513,202 505,222 518,242 510,262 523,282 515,302 528,322 520,342 533,362 525,382 538,402 530,422 543,442" fill="none" stroke="#ef4444" stroke-width="1.5"/>
  <polyline points="555,155 565,175 560,195 570,215 565,235 575,255 570,275 580,295 575,315 585,335 580,355 590,375 585,395 595,415 590,435 600,455" fill="none" stroke="#3b82f6" stroke-width="1.5"/>
  <line x1="420" y1="230" x2="600" y2="230" stroke="#f59e0b" stroke-width="1" stroke-dasharray="4"/>
  <line x1="420" y1="360" x2="600" y2="360" stroke="#f59e0b" stroke-width="1" stroke-dasharray="4"/>
  <line x1="400" y1="210" x2="420" y2="230" stroke="#f59e0b" stroke-width="2"/>
  <line x1="400" y1="340" x2="420" y2="360" stroke="#f59e0b" stroke-width="2"/>
  <!-- Properties Panel -->
  <rect fill="#111113" x="620" y="80" width="170" height="400" rx="4"/>
  <text fill="#fff" x="636" y="105" font-family="system-ui" font-size="11" font-weight="500">Formations</text>
  <rect fill="#1a1a1d" x="630" y="120" width="150" height="50" rx="4"/>
  <rect fill="#f59e0b" x="640" y="130" width="8" height="30" rx="2"/>
  <text fill="#fff" x="658" y="145" font-family="system-ui" font-size="10">Formation A</text>
  <text fill="#71717a" x="658" y="160" font-family="system-ui" font-size="9">Top: 1850m - 2100m</text>
  <rect fill="#1a1a1d" x="630" y="180" width="150" height="50" rx="4"/>
  <rect fill="#3b82f6" x="640" y="190" width="8" height="30" rx="2"/>
  <text fill="#fff" x="658" y="205" font-family="system-ui" font-size="10">Formation B</text>
  <text fill="#71717a" x="658" y="220" font-family="system-ui" font-size="9">Top: 2100m - 2650m</text>
  <text fill="#fff" x="636" y="270" font-family="system-ui" font-size="11" font-weight="500">Curve Legend</text>
  <line x1="640" y1="290" x2="660" y2="290" stroke="#22c55e" stroke-width="2"/>
  <text fill="#a1a1aa" x="670" y="294" font-family="system-ui" font-size="9">Gamma Ray</text>
  <line x1="640" y1="315" x2="660" y2="315" stroke="#ef4444" stroke-width="2"/>
  <text fill="#a1a1aa" x="670" y="319" font-family="system-ui" font-size="9">Density</text>
  <line x1="640" y1="340" x2="660" y2="340" stroke="#3b82f6" stroke-width="2"/>
  <text fill="#a1a1aa" x="670" y="344" font-family="system-ui" font-size="9">Sonic</text>
</svg>
