<svg xmlns="http://www.w3.org/2000/svg" viewBox="0 0 800 500">
  <rect fill="#0a0a0b" width="800" height="500"/>
  <!-- Desktop Window Chrome -->
  <rect fill="#1a1a1d" x="0" y="0" width="800" height="30"/>
  <circle cx="18" cy="15" r="6" fill="#ef4444"/>
  <circle cx="38" cy="15" r="6" fill="#f59e0b"/>
  <circle cx="58" cy="15" r="6" fill="#22c55e"/>
  <text fill="#a1a1aa" x="320" y="19" font-family="system-ui" font-size="11">GeoViz Pro - Dataset Explorer</text>
  <!-- Toolbar -->
  <rect fill="#111113" x="0" y="30" width="800" height="40"/>
  <rect fill="#1a1a1d" x="20" y="40" width="200" height="24" rx="4"/>
  <text fill="#71717a" x="35" y="56" font-family="system-ui" font-size="10">Search datasets...</text>
  <rect fill="#1a1a1d" x="240" y="40" width="100" height="24" rx="4"/>
  <text fill="#a1a1aa" x="260" y="56" font-family="system-ui" font-size="10">All Types</text>
  <rect fill="#f59e0b" x="680" y="40" width="100" height="24" rx="4"/>
  <text fill="#000" x="705" y="56" font-family="system-ui" font-size="10">Import</text>
  <!-- Dataset Grid -->
  <rect fill="#111113" x="15" y="80" width="240" height="130" rx="8"/>
  <rect fill="#f59e0b30" x="15" y="80" width="240" height="70" rx="8 8 0 0"/>
  <text fill="#fff" x="100" y="120" font-family="system-ui" font-size="12" font-weight="600">SEG-Y</text>
  <text fill="#fff" x="30" y="170" font-family="system-ui" font-size="11" font-weight="500">North Sea Survey 2023</text>
  <text fill="#71717a" x="30" y="188" font-family="system-ui" font-size="9">4.2 GB - 1,250 traces</text>
  <text fill="#71717a" x="30" y="202" font-family="system-ui" font-size="9">Modified: Jan 12, 2024</text>
  
  <rect fill="#111113" x="270" y="80" width="240" height="130" rx="8"/>
  <rect fill="#3b82f630" x="270" y="80" width="240" height="70" rx="8 8 0 0"/>
  <text fill="#fff" x="365" y="120" font-family="system-ui" font-size="12" font-weight="600">LAS</text>
  <text fill="#fff" x="285" y="170" font-family="system-ui" font-size="11" font-weight="500">Well Log Collection A</text>
  <text fill="#71717a" x="285" y="188" font-family="system-ui" font-size="9">156 MB - 42 wells</text>
  <text fill="#71717a" x="285" y="202" font-family="system-ui" font-size="9">Modified: Jan 10, 2024</text>
  
  <rect fill="#111113" x="525" y="80" width="260" height="130" rx="8"/>
  <rect fill="#22c55e30" x="525" y="80" width="260" height="70" rx="8 8 0 0"/>
  <text fill="#fff" x="630" y="120" font-family="system-ui" font-size="12" font-weight="600">HDF5</text>
  <text fill="#fff" x="540" y="170" font-family="system-ui" font-size="11" font-weight="500">Velocity Model v3</text>
  <text fill="#71717a" x="540" y="188" font-family="system-ui" font-size="9">12.8 GB - 3D cube</text>
  <text fill="#71717a" x="540" y="202" font-family="system-ui" font-size="9">Modified: Jan 8, 2024</text>
  
  <rect fill="#111113" x="15" y="225" width="240" height="130" rx="8"/>
  <rect fill="#ec489930" x="15" y="225" width="240" height="70" rx="8 8 0 0"/>
  <text fill="#fff" x="100" y="265" font-family="system-ui" font-size="12" font-weight="600">DLIS</text>
  <text fill="#fff" x="30" y="315" font-family="system-ui" font-size="11" font-weight="500">Exploration Wells B</text>
  <text fill="#71717a" x="30" y="333" font-family="system-ui" font-size="9">890 MB - 18 wells</text>
  <text fill="#71717a" x="30" y="347" font-family="system-ui" font-size="9">Modified: Jan 5, 2024</text>
  
  <rect fill="#111113" x="270" y="225" width="240" height="130" rx="8"/>
  <rect fill="#8b5cf630" x="270" y="225" width="240" height="70" rx="8 8 0 0"/>
  <text fill="#fff" x="355" y="265" font-family="system-ui" font-size="12" font-weight="600">SHAPE</text>
  <text fill="#fff" x="285" y="315" font-family="system-ui" font-size="11" font-weight="500">Fault Interpretation</text>
  <text fill="#71717a" x="285" y="333" font-family="system-ui" font-size="9">24 MB - 156 features</text>
  <text fill="#71717a" x="285" y="347" font-family="system-ui" font-size="9">Modified: Dec 28, 2023</text>
  
  <rect fill="#111113" x="525" y="225" width="260" height="130" rx="8"/>
  <rect fill="#06b6d430" x="525" y="225" width="260" height="70" rx="8 8 0 0"/>
  <text fill="#fff" x="630" y="265" font-family="system-ui" font-size="12" font-weight="600">TIFF</text>
  <text fill="#fff" x="540" y="315" font-family="system-ui" font-size="11" font-weight="500">Seismic Section Export</text>
  <text fill="#71717a" x="540" y="333" font-family="system-ui" font-size="9">2.1 GB - Geo-referenced</text>
  <text fill="#71717a" x="540" y="347" font-family="system-ui" font-size="9">Modified: Dec 20, 2023</text>
  <!-- Status Bar -->
  <rect fill="#111113" x="0" y="470" width="800" height="30"/>
  <text fill="#71717a" x="20" y="490" font-family="system-ui" font-size="10">6 datasets - 20.2 GB total</text>
  <text fill="#71717a" x="650" y="490" font-family="system-ui" font-size="10">Last sync: 5 min ago</text>
  <!-- Pagination -->
  <rect fill="#1a1a1d" x="350" y="385" width="100" height="30" rx="4"/>
  <text fill="#a1a1aa" x="365" y="405" font-family="system-ui" font-size="10">Page 1 of 4</text>
</svg>
