<svg xmlns="http://www.w3.org/2000/svg" viewBox="0 0 800 500">
  <rect fill="#0a0a0a" width="800" height="500"/>
  <!-- Top Toolbar -->
  <rect fill="#141414" x="0" y="0" width="800" height="50"/>
  <rect fill="#14b8a6" x="15" y="10" width="30" height="30" rx="4"/>
  <text x="52" y="30" fill="#ffffff" font-family="system-ui" font-size="13" font-weight="600">GeoAnalyzer Pro</text>
  <text x="260" y="30" fill="#888888" font-family="system-ui" font-size="11">View</text>
  <text x="305" y="30" fill="#14b8a6" font-family="system-ui" font-size="11">Analysis</text>
  <text x="370" y="30" fill="#888888" font-family="system-ui" font-size="11">Tools</text>
  <!-- Multi-Well Correlation Panel -->
  <text x="20" y="80" fill="#ffffff" font-family="system-ui" font-size="14" font-weight="500">Multi-Well Correlation</text>
  <!-- Well columns -->
  <rect fill="#141414" x="20" y="100" width="180" height="380" rx="6"/>
  <text x="85" y="125" fill="#ffffff" font-family="system-ui" font-size="11" font-weight="500">Well A-12</text>
  <text x="30" y="145" fill="#666666" font-family="system-ui" font-size="8">GR | RHOB | NPHI</text>
  <!-- Well log tracks -->
  <rect fill="#0f0f0f" x="30" y="155" width="45" height="300" rx="2"/>
  <polyline fill="none" stroke="#22c55e" stroke-width="1" points="35,180 50,200 42,230 55,260 40,290 52,320 45,350 58,380 42,410 50,440"/>
  <rect fill="#0f0f0f" x="82" y="155" width="45" height="300" rx="2"/>
  <polyline fill="none" stroke="#3b82f6" stroke-width="1" points="87,190 100,210 92,235 105,270 90,300 102,330 95,360 108,390 92,420 100,450"/>
  <rect fill="#0f0f0f" x="134" y="155" width="45" height="300" rx="2"/>
  <polyline fill="none" stroke="#f59e0b" stroke-width="1" points="139,185 152,205 144,238 157,265 142,295 154,325 147,358 160,385 144,415 152,445"/>
  <!-- Horizon markers -->
  <line x1="25" y1="220" x2="185" y2="220" stroke="#14b8a6" stroke-width="1" stroke-dasharray="3"/>
  <line x1="25" y1="320" x2="185" y2="320" stroke="#8b5cf6" stroke-width="1" stroke-dasharray="3"/>
  
  <rect fill="#141414" x="220" y="100" width="180" height="380" rx="6"/>
  <text x="285" y="125" fill="#ffffff" font-family="system-ui" font-size="11" font-weight="500">Well B-07</text>
  <text x="230" y="145" fill="#666666" font-family="system-ui" font-size="8">GR | RHOB | NPHI</text>
  <rect fill="#0f0f0f" x="230" y="155" width="45" height="300" rx="2"/>
  <polyline fill="none" stroke="#22c55e" stroke-width="1" points="235,195 250,215 242,245 255,275 240,305 252,335 245,365 258,395 242,425 250,450"/>
  <rect fill="#0f0f0f" x="282" y="155" width="45" height="300" rx="2"/>
  <polyline fill="none" stroke="#3b82f6" stroke-width="1" points="287,200 300,220 292,250 305,280 290,310 302,340 295,370 308,400 292,430 300,455"/>
  <rect fill="#0f0f0f" x="334" y="155" width="45" height="300" rx="2"/>
  <polyline fill="none" stroke="#f59e0b" stroke-width="1" points="339,190 352,210 344,243 357,270 342,300 354,330 347,363 360,390 344,420 352,450"/>
  <line x1="225" y1="235" x2="385" y2="235" stroke="#14b8a6" stroke-width="1" stroke-dasharray="3"/>
  <line x1="225" y1="340" x2="385" y2="340" stroke="#8b5cf6" stroke-width="1" stroke-dasharray="3"/>
  
  <rect fill="#141414" x="420" y="100" width="180" height="380" rx="6"/>
  <text x="485" y="125" fill="#ffffff" font-family="system-ui" font-size="11" font-weight="500">Well C-03</text>
  <text x="430" y="145" fill="#666666" font-family="system-ui" font-size="8">GR | RHOB | NPHI</text>
  <rect fill="#0f0f0f" x="430" y="155" width="45" height="300" rx="2"/>
  <polyline fill="none" stroke="#22c55e" stroke-width="1" points="435,185 450,205 442,235 455,265 440,295 452,325 445,355 458,385 442,415 450,445"/>
  <rect fill="#0f0f0f" x="482" y="155" width="45" height="300" rx="2"/>
  <polyline fill="none" stroke="#3b82f6" stroke-width="1" points="487,190 500,210 492,240 505,270 490,300 502,330 495,360 508,390 492,420 500,450"/>
  <rect fill="#0f0f0f" x="534" y="155" width="45" height="300" rx="2"/>
  <polyline fill="none" stroke="#f59e0b" stroke-width="1" points="539,195 552,215 544,248 557,275 542,305 554,335 547,368 560,395 544,425 552,455"/>
  <line x1="425" y1="210" x2="585" y2="210" stroke="#14b8a6" stroke-width="1" stroke-dasharray="3"/>
  <line x1="425" y1="315" x2="585" y2="315" stroke="#8b5cf6" stroke-width="1" stroke-dasharray="3"/>
  <!-- Correlation lines between wells -->
  <line x1="185" y1="220" x2="225" y2="235" stroke="#14b8a620" stroke-width="8"/>
  <line x1="385" y1="235" x2="425" y2="210" stroke="#14b8a620" stroke-width="8"/>
  <line x1="185" y1="320" x2="225" y2="340" stroke="#8b5cf620" stroke-width="8"/>
  <line x1="385" y1="340" x2="425" y2="315" stroke="#8b5cf620" stroke-width="8"/>
  <!-- Properties Panel -->
  <rect fill="#141414" x="620" y="100" width="160" height="380" rx="6"/>
  <text x="635" y="130" fill="#ffffff" font-family="system-ui" font-size="12" font-weight="500">Correlation</text>
  <text x="635" y="160" fill="#888888" font-family="system-ui" font-size="9">Active Horizon</text>
  <rect fill="#14b8a620" x="635" y="170" width="130" height="28" rx="4"/>
  <text x="650" y="188" fill="#14b8a6" font-family="system-ui" font-size="10">Top Reservoir</text>
  <text x="635" y="220" fill="#888888" font-family="system-ui" font-size="9">Confidence</text>
  <rect fill="#1a1a1a" x="635" y="230" width="130" height="8" rx="4"/>
  <rect fill="#22c55e" x="635" y="230" width="110" height="8" rx="4"/>
  <text x="635" y="255" fill="#22c55e" font-family="system-ui" font-size="10">High (92%)</text>
  <text x="635" y="290" fill="#888888" font-family="system-ui" font-size="9">Thickness Variation</text>
  <text x="635" y="310" fill="#ffffff" font-family="system-ui" font-size="11">45m - 78m</text>
  <rect fill="#14b8a6" x="635" y="440" width="130" height="28" rx="4"/>
  <text x="670" y="458" fill="#000000" font-family="system-ui" font-size="10" font-weight="500">Save</text>
</svg>
