<svg xmlns="http://www.w3.org/2000/svg" viewBox="0 0 800 500">
  <rect fill="#0f1419" width="800" height="500"/>
  <text fill="#f3f4f6" x="30" y="40" font-size="20" font-weight="bold">Impact Dashboard</text>
  <rect fill="#22c55e" opacity="0.1" x="30" y="60" width="740" height="100" rx="12"/>
  <text fill="#22c55e" x="50" y="95" font-size="12" font-weight="bold">YOUR ENVIRONMENTAL IMPACT</text>
  <text fill="#f3f4f6" x="50" y="130" font-size="36" font-weight="bold">12,450</text>
  <text fill="#9ca3af" x="200" y="130" font-size="14">tonnes of CO2 offset</text>
  <text fill="#9ca3af" x="450" y="110" font-size="11">Equivalent to:</text>
  <text fill="#f3f4f6" x="450" y="130" font-size="12">2,700 cars off the road for a year</text>
  <text fill="#f3f4f6" x="450" y="148" font-size="12">580,000 trees planted</text>
  <rect fill="#1e2433" x="30" y="175" width="365" height="305" rx="12"/>
  <text fill="#f3f4f6" x="50" y="210" font-size="14" font-weight="500">Offset by Category</text>
  <circle fill="none" stroke="#22c55e" stroke-width="20" cx="210" cy="340" r="80" stroke-dasharray="200 100"/>
  <circle fill="none" stroke="#3b82f6" stroke-width="20" cx="210" cy="340" r="80" stroke-dasharray="100 200" stroke-dashoffset="-200"/>
  <circle fill="none" stroke="#f59e0b" stroke-width="20" cx="210" cy="340" r="80" stroke-dasharray="50 250" stroke-dashoffset="-300"/>
  <text fill="#f3f4f6" x="180" y="345" font-size="20" font-weight="bold">100%</text>
  <rect fill="#22c55e" x="310" y="280" width="12" height="12" rx="2"/>
  <text fill="#9ca3af" x="330" y="291" font-size="10">Forest (67%)</text>
  <rect fill="#3b82f6" x="310" y="305" width="12" height="12" rx="2"/>
  <text fill="#9ca3af" x="330" y="316" font-size="10">Renewable (24%)</text>
  <rect fill="#f59e0b" x="310" y="330" width="12" height="12" rx="2"/>
  <text fill="#9ca3af" x="330" y="341" font-size="10">Methane (9%)</text>
  <rect fill="#1e2433" x="410" y="175" width="360" height="145" rx="12"/>
  <text fill="#f3f4f6" x="430" y="210" font-size="14" font-weight="500">Monthly Progress</text>
  <rect fill="#0f1419" x="430" y="230" width="320" height="70" rx="8"/>
  <rect fill="#22c55e" x="450" y="260" width="30" height="25" rx="3"/>
  <rect fill="#22c55e" x="490" y="250" width="30" height="35" rx="3"/>
  <rect fill="#22c55e" x="530" y="255" width="30" height="30" rx="3"/>
  <rect fill="#22c55e" x="570" y="240" width="30" height="45" rx="3"/>
  <rect fill="#22c55e" x="610" y="245" width="30" height="40" rx="3"/>
  <rect fill="#22c55e" x="650" y="230" width="30" height="55" rx="3"/>
  <rect fill="#22c55e" opacity="0.5" x="690" y="265" width="30" height="20" rx="3"/>
  <rect fill="#1e2433" x="410" y="335" width="360" height="145" rx="12"/>
  <text fill="#f3f4f6" x="430" y="370" font-size="14" font-weight="500">Certificates</text>
  <rect fill="#0f1419" x="430" y="390" width="160" height="70" rx="8"/>
  <text fill="#22c55e" x="450" y="420" font-size="18">📜</text>
  <text fill="#f3f4f6" x="480" y="418" font-size="11">VCS Certificate</text>
  <text fill="#9ca3af" x="480" y="435" font-size="9">5,200 tCO2e</text>
  <rect fill="#0f1419" x="600" y="390" width="160" height="70" rx="8"/>
  <text fill="#3b82f6" x="620" y="420" font-size="18">📜</text>
  <text fill="#f3f4f6" x="650" y="418" font-size="11">GS Certificate</text>
  <text fill="#9ca3af" x="650" y="435" font-size="9">4,100 tCO2e</text>
</svg>
