<svg xmlns="http://www.w3.org/2000/svg" viewBox="0 0 800 500">
  <rect fill="#0f1419" width="800" height="500"/>
  <rect fill="#1a1f2e" x="0" y="0" width="200" height="500"/>
  <circle fill="#22c55e" cx="35" cy="35" r="16"/>
  <text fill="#f3f4f6" x="60" y="40" font-size="14" font-weight="bold">CarbonChain</text>
  <rect fill="#374151" x="20" y="70" width="160" height="36" rx="6"/>
  <text fill="#9ca3af" x="40" y="93" font-size="11">Dashboard</text>
  <rect fill="#22c55e" opacity="0.2" x="20" y="116" width="160" height="36" rx="6"/>
  <rect fill="#22c55e" x="16" y="116" width="4" height="36"/>
  <text fill="#22c55e" x="40" y="139" font-size="11">Carbon Credits</text>
  <rect fill="#374151" x="20" y="162" width="160" height="36" rx="6"/>
  <text fill="#9ca3af" x="40" y="185" font-size="11">Marketplace</text>
  <rect fill="#374151" x="20" y="208" width="160" height="36" rx="6"/>
  <text fill="#9ca3af" x="40" y="231" font-size="11">Certifications</text>
  <rect fill="#374151" x="20" y="254" width="160" height="36" rx="6"/>
  <text fill="#9ca3af" x="40" y="277" font-size="11">Analytics</text>
  <text fill="#f3f4f6" x="220" y="40" font-size="20" font-weight="bold">Carbon Credit Portfolio</text>
  <rect fill="#1e2433" x="220" y="60" width="190" height="100" rx="12"/>
  <text fill="#9ca3af" x="240" y="85" font-size="10">Total Credits</text>
  <text fill="#22c55e" x="240" y="120" font-size="28" font-weight="bold">12,450</text>
  <text fill="#22c55e" x="240" y="145" font-size="11">tCO2e</text>
  <rect fill="#1e2433" x="420" y="60" width="190" height="100" rx="12"/>
  <text fill="#9ca3af" x="440" y="85" font-size="10">Portfolio Value</text>
  <text fill="#f3f4f6" x="440" y="120" font-size="28" font-weight="bold">$248K</text>
  <text fill="#22c55e" x="440" y="145" font-size="11">↑ 12.5% this month</text>
  <rect fill="#1e2433" x="620" y="60" width="160" height="100" rx="12"/>
  <text fill="#9ca3af" x="640" y="85" font-size="10">Avg Price/Credit</text>
  <text fill="#f3f4f6" x="640" y="120" font-size="28" font-weight="bold">$19.92</text>
  <text fill="#f59e0b" x="640" y="145" font-size="11">Market: $21.50</text>
  <rect fill="#1e2433" x="220" y="175" width="560" height="305" rx="12"/>
  <text fill="#f3f4f6" x="240" y="205" font-size="14" font-weight="500">Credit Holdings</text>
  <rect fill="#0f1419" x="240" y="225" width="520" height="50" rx="8"/>
  <circle fill="#22c55e" cx="270" cy="250" r="15"/>
  <text fill="#f3f4f6" x="300" y="245" font-size="12" font-weight="500">Verified Carbon Standard (VCS)</text>
  <text fill="#9ca3af" x="300" y="262" font-size="10">Forest Conservation - Brazil</text>
  <text fill="#f3f4f6" x="620" y="250" font-size="12">5,200 tCO2e</text>
  <text fill="#22c55e" x="700" y="250" font-size="11">$104K</text>
  <rect fill="#0f1419" x="240" y="285" width="520" height="50" rx="8"/>
  <circle fill="#3b82f6" cx="270" cy="310" r="15"/>
  <text fill="#f3f4f6" x="300" y="305" font-size="12" font-weight="500">Gold Standard (GS)</text>
  <text fill="#9ca3af" x="300" y="322" font-size="10">Renewable Energy - India</text>
  <text fill="#f3f4f6" x="620" y="310" font-size="12">4,100 tCO2e</text>
  <text fill="#22c55e" x="700" y="310" font-size="11">$86K</text>
  <rect fill="#0f1419" x="240" y="345" width="520" height="50" rx="8"/>
  <circle fill="#f59e0b" cx="270" cy="370" r="15"/>
  <text fill="#f3f4f6" x="300" y="365" font-size="12" font-weight="500">Climate Action Reserve (CAR)</text>
  <text fill="#9ca3af" x="300" y="382" font-size="10">Methane Capture - USA</text>
  <text fill="#f3f4f6" x="620" y="370" font-size="12">3,150 tCO2e</text>
  <text fill="#22c55e" x="700" y="370" font-size="11">$58K</text>
  <rect fill="#22c55e" x="620" y="420" width="120" height="40" rx="8"/>
  <text fill="#fff" x="650" y="445" font-size="12">Buy Credits</text>
</svg>
