<svg xmlns="http://www.w3.org/2000/svg" viewBox="0 0 800 500">
  <rect fill="#0f1419" width="800" height="500"/>
  <text fill="#f3f4f6" x="30" y="40" font-size="20" font-weight="bold">Carbon Credit Marketplace</text>
  <rect fill="#1e2433" x="30" y="60" width="740" height="50" rx="8"/>
  <rect fill="#0f1419" x="50" y="72" width="200" height="26" rx="13"/>
  <text fill="#9ca3af" x="70" y="90" font-size="11">Search projects...</text>
  <rect fill="#22c55e" x="270" y="72" width="80" height="26" rx="6"/>
  <text fill="#fff" x="292" y="90" font-size="10">All Types</text>
  <rect fill="#374151" x="360" y="72" width="80" height="26" rx="6"/>
  <text fill="#9ca3af" x="378" y="90" font-size="10">Location</text>
  <rect fill="#374151" x="450" y="72" width="80" height="26" rx="6"/>
  <text fill="#9ca3af" x="472" y="90" font-size="10">Price</text>
  <rect fill="#1e2433" x="30" y="125" width="360" height="170" rx="12"/>
  <rect fill="#22c55e" opacity="0.3" x="30" y="125" width="360" height="70" rx="12"/>
  <text fill="#22c55e" x="50" y="155" font-size="10" font-weight="bold">VERIFIED</text>
  <text fill="#f3f4f6" x="50" y="175" font-size="14" font-weight="500">Amazon Rainforest REDD+</text>
  <text fill="#9ca3af" x="50" y="215" font-size="11">Brazil • Forest Conservation</text>
  <text fill="#9ca3af" x="50" y="235" font-size="11">Available: 15,000 tCO2e</text>
  <text fill="#f3f4f6" x="50" y="265" font-size="18" font-weight="bold">$22.50</text>
  <text fill="#9ca3af" x="110" y="265" font-size="11">per credit</text>
  <rect fill="#22c55e" x="290" y="250" width="80" height="30" rx="6"/>
  <text fill="#fff" x="315" y="270" font-size="11">Buy</text>
  <rect fill="#1e2433" x="410" y="125" width="360" height="170" rx="12"/>
  <rect fill="#3b82f6" opacity="0.3" x="410" y="125" width="360" height="70" rx="12"/>
  <text fill="#3b82f6" x="430" y="155" font-size="10" font-weight="bold">GOLD STANDARD</text>
  <text fill="#f3f4f6" x="430" y="175" font-size="14" font-weight="500">Gujarat Solar Farm</text>
  <text fill="#9ca3af" x="430" y="215" font-size="11">India • Renewable Energy</text>
  <text fill="#9ca3af" x="430" y="235" font-size="11">Available: 8,500 tCO2e</text>
  <text fill="#f3f4f6" x="430" y="265" font-size="18" font-weight="bold">$18.75</text>
  <text fill="#9ca3af" x="490" y="265" font-size="11">per credit</text>
  <rect fill="#22c55e" x="670" y="250" width="80" height="30" rx="6"/>
  <text fill="#fff" x="695" y="270" font-size="11">Buy</text>
  <rect fill="#1e2433" x="30" y="310" width="360" height="170" rx="12"/>
  <rect fill="#f59e0b" opacity="0.3" x="30" y="310" width="360" height="70" rx="12"/>
  <text fill="#f59e0b" x="50" y="340" font-size="10" font-weight="bold">CLIMATE ACTION RESERVE</text>
  <text fill="#f3f4f6" x="50" y="360" font-size="14" font-weight="500">Texas Methane Capture</text>
  <text fill="#9ca3af" x="50" y="400" font-size="11">USA • Methane Reduction</text>
  <text fill="#9ca3af" x="50" y="420" font-size="11">Available: 12,000 tCO2e</text>
  <text fill="#f3f4f6" x="50" y="450" font-size="18" font-weight="bold">$15.90</text>
  <text fill="#9ca3af" x="110" y="450" font-size="11">per credit</text>
  <rect fill="#22c55e" x="290" y="435" width="80" height="30" rx="6"/>
  <text fill="#fff" x="315" y="455" font-size="11">Buy</text>
  <rect fill="#1e2433" x="410" y="310" width="360" height="170" rx="12"/>
  <rect fill="#a855f7" opacity="0.3" x="410" y="310" width="360" height="70" rx="12"/>
  <text fill="#a855f7" x="430" y="340" font-size="10" font-weight="bold">VERRA VCS</text>
  <text fill="#f3f4f6" x="430" y="360" font-size="14" font-weight="500">Kenya Cookstoves Project</text>
  <text fill="#9ca3af" x="430" y="400" font-size="11">Kenya • Clean Energy</text>
  <text fill="#9ca3af" x="430" y="420" font-size="11">Available: 5,200 tCO2e</text>
  <text fill="#f3f4f6" x="430" y="450" font-size="18" font-weight="bold">$24.00</text>
  <text fill="#9ca3af" x="490" y="450" font-size="11">per credit</text>
  <rect fill="#22c55e" x="670" y="435" width="80" height="30" rx="6"/>
  <text fill="#fff" x="695" y="455" font-size="11">Buy</text>
</svg>
