<svg xmlns="http://www.w3.org/2000/svg" viewBox="0 0 800 500">
  <rect fill="#0f1419" width="800" height="500"/>
  <text fill="#f3f4f6" x="30" y="40" font-size="20" font-weight="bold">My Dashboard</text>
  <rect fill="#1e2433" x="30" y="60" width="180" height="120" rx="12"/>
  <text fill="#9ca3af" x="50" y="90" font-size="11">Total Points</text>
  <text fill="#ec4899" x="50" y="130" font-size="32" font-weight="bold">2,450</text>
  <text fill="#22c55e" x="50" y="155" font-size="11">+320 this week</text>
  <rect fill="#1e2433" x="220" y="60" width="180" height="120" rx="12"/>
  <text fill="#9ca3af" x="240" y="90" font-size="11">Global Rank</text>
  <text fill="#fbbf24" x="240" y="130" font-size="32" font-weight="bold">#7</text>
  <text fill="#22c55e" x="240" y="155" font-size="11">↑ 3 positions</text>
  <rect fill="#1e2433" x="410" y="60" width="180" height="120" rx="12"/>
  <text fill="#9ca3af" x="430" y="90" font-size="11">Badges Earned</text>
  <text fill="#3b82f6" x="430" y="130" font-size="32" font-weight="bold">15</text>
  <text fill="#9ca3af" x="430" y="155" font-size="11">3 more available</text>
  <rect fill="#1e2433" x="600" y="60" width="180" height="120" rx="12"/>
  <text fill="#9ca3af" x="620" y="90" font-size="11">Streak</text>
  <text fill="#f59e0b" x="620" y="130" font-size="32" font-weight="bold">14</text>
  <text fill="#f59e0b" x="620" y="155" font-size="11">🔥 days active</text>
  <rect fill="#1e2433" x="30" y="200" width="470" height="280" rx="12"/>
  <text fill="#f3f4f6" x="50" y="235" font-size="14" font-weight="500">Weekly Activity</text>
  <rect fill="#0f1419" x="50" y="255" width="430" height="200" rx="8"/>
  <line stroke="#374151" x1="70" y1="350" x2="460" y2="350"/>
  <rect fill="#ec4899" x="90" y="280" width="35" height="70" rx="4"/>
  <rect fill="#ec4899" x="145" y="300" width="35" height="50" rx="4"/>
  <rect fill="#ec4899" x="200" y="260" width="35" height="90" rx="4"/>
  <rect fill="#ec4899" x="255" y="290" width="35" height="60" rx="4"/>
  <rect fill="#ec4899" x="310" y="250" width="35" height="100" rx="4"/>
  <rect fill="#ec4899" opacity="0.5" x="365" y="310" width="35" height="40" rx="4"/>
  <rect fill="#ec4899" opacity="0.5" x="420" y="320" width="35" height="30" rx="4"/>
  <text fill="#9ca3af" x="95" y="370" font-size="9">Mon</text>
  <text fill="#9ca3af" x="152" y="370" font-size="9">Tue</text>
  <text fill="#9ca3af" x="205" y="370" font-size="9">Wed</text>
  <text fill="#9ca3af" x="262" y="370" font-size="9">Thu</text>
  <text fill="#9ca3af" x="320" y="370" font-size="9">Fri</text>
  <text fill="#9ca3af" x="375" y="370" font-size="9">Sat</text>
  <text fill="#9ca3af" x="428" y="370" font-size="9">Sun</text>
  <rect fill="#1e2433" x="520" y="200" width="260" height="280" rx="12"/>
  <text fill="#f3f4f6" x="540" y="235" font-size="14" font-weight="500">Quick Actions</text>
  <rect fill="#ec4899" x="540" y="255" width="220" height="50" rx="8"/>
  <text fill="#fff" x="595" y="285" font-size="12">Start Challenge</text>
  <rect fill="#374151" x="540" y="315" width="220" height="50" rx="8"/>
  <text fill="#f3f4f6" x="585" y="345" font-size="12">View Leaderboard</text>
  <rect fill="#374151" x="540" y="375" width="220" height="50" rx="8"/>
  <text fill="#f3f4f6" x="590" y="405" font-size="12">Redeem Rewards</text>
  <rect fill="#374151" x="540" y="435" width="220" height="35" rx="8"/>
  <text fill="#9ca3af" x="595" y="458" font-size="11">View All Activity</text>
</svg>
