<svg xmlns="http://www.w3.org/2000/svg" viewBox="0 0 800 500">
  <rect fill="#0f1419" width="800" height="500"/>
  <rect fill="#1a1f2e" x="0" y="0" width="70" height="500"/>
  <circle fill="#ec4899" cx="35" cy="35" r="18"/>
  <rect fill="#374151" x="15" y="70" width="40" height="40" rx="8"/>
  <rect fill="#ec4899" opacity="0.3" x="15" y="120" width="40" height="40" rx="8"/>
  <rect fill="#374151" x="15" y="170" width="40" height="40" rx="8"/>
  <rect fill="#374151" x="15" y="220" width="40" height="40" rx="8"/>
  <text fill="#f3f4f6" x="90" y="40" font-size="20" font-weight="bold">Team Leaderboard</text>
  <text fill="#9ca3af" x="90" y="60" font-size="12">Q1 2026 Challenge</text>
  <rect fill="#1e2433" x="90" y="80" width="400" height="400" rx="12"/>
  <rect fill="#fbbf24" opacity="0.2" x="110" y="100" width="360" height="60" rx="8"/>
  <text fill="#fbbf24" x="130" y="125" font-size="24" font-weight="bold">1</text>
  <circle fill="#ec4899" cx="180" cy="130" r="20"/>
  <text fill="#fff" x="170" y="136" font-size="12">AT</text>
  <text fill="#f3f4f6" x="210" y="125" font-size="14" font-weight="500">Alpha Team</text>
  <text fill="#9ca3af" x="210" y="143" font-size="11">12 members</text>
  <text fill="#fbbf24" x="400" y="135" font-size="18" font-weight="bold">2,450 pts</text>
  <rect fill="#0f1419" x="110" y="170" width="360" height="55" rx="8"/>
  <text fill="#9ca3af" x="130" y="200" font-size="18">2</text>
  <circle fill="#3b82f6" cx="180" cy="197" r="18"/>
  <text fill="#fff" x="172" y="202" font-size="11">BT</text>
  <text fill="#f3f4f6" x="210" y="195" font-size="13">Beta Squad</text>
  <text fill="#9ca3af" x="210" y="210" font-size="10">9 members</text>
  <text fill="#f3f4f6" x="400" y="202" font-size="16">2,180 pts</text>
  <rect fill="#0f1419" x="110" y="235" width="360" height="55" rx="8"/>
  <text fill="#9ca3af" x="130" y="265" font-size="18">3</text>
  <circle fill="#22c55e" cx="180" cy="262" r="18"/>
  <text fill="#fff" x="172" y="267" font-size="11">GT</text>
  <text fill="#f3f4f6" x="210" y="260" font-size="13">Gamma Force</text>
  <text fill="#9ca3af" x="210" y="275" font-size="10">11 members</text>
  <text fill="#f3f4f6" x="400" y="267" font-size="16">1,920 pts</text>
  <rect fill="#0f1419" x="110" y="300" width="360" height="55" rx="8"/>
  <text fill="#9ca3af" x="130" y="330" font-size="18">4</text>
  <circle fill="#f59e0b" cx="180" cy="327" r="18"/>
  <text fill="#fff" x="172" y="332" font-size="11">DT</text>
  <text fill="#f3f4f6" x="210" y="325" font-size="13">Delta Crew</text>
  <text fill="#9ca3af" x="210" y="340" font-size="10">8 members</text>
  <text fill="#f3f4f6" x="400" y="332" font-size="16">1,750 pts</text>
  <rect fill="#1e2433" x="510" y="80" width="270" height="180" rx="12"/>
  <text fill="#f3f4f6" x="530" y="110" font-size="14" font-weight="500">Your Badges</text>
  <circle fill="#fbbf24" cx="560" cy="160" r="30"/>
  <text fill="#0f1419" x="548" y="166" font-size="18">★</text>
  <circle fill="#ec4899" cx="640" cy="160" r="30"/>
  <text fill="#fff" x="628" y="166" font-size="18">🎯</text>
  <circle fill="#3b82f6" cx="720" cy="160" r="30"/>
  <text fill="#fff" x="708" y="166" font-size="18">🔥</text>
  <text fill="#9ca3af" x="540" y="220" font-size="10">Top Performer</text>
  <text fill="#9ca3af" x="620" y="220" font-size="10">Goal Crusher</text>
  <text fill="#9ca3af" x="700" y="220" font-size="10">On Fire!</text>
  <rect fill="#1e2433" x="510" y="280" width="270" height="200" rx="12"/>
  <text fill="#f3f4f6" x="530" y="310" font-size="14" font-weight="500">Active Challenges</text>
  <rect fill="#ec4899" opacity="0.2" x="530" y="330" width="230" height="60" rx="8"/>
  <text fill="#ec4899" x="550" y="355" font-size="12" font-weight="500">Complete 5 Training</text>
  <rect fill="#0f1419" x="550" y="365" width="150" height="8" rx="4"/>
  <rect fill="#ec4899" x="550" y="365" width="90" height="8" rx="4"/>
  <text fill="#9ca3af" x="710" y="375" font-size="10">3/5</text>
  <rect fill="#22c55e" opacity="0.2" x="530" y="400" width="230" height="60" rx="8"/>
  <text fill="#22c55e" x="550" y="425" font-size="12" font-weight="500">Team Collaboration</text>
  <rect fill="#0f1419" x="550" y="435" width="150" height="8" rx="4"/>
  <rect fill="#22c55e" x="550" y="435" width="120" height="8" rx="4"/>
  <text fill="#9ca3af" x="710" y="445" font-size="10">8/10</text>
</svg>
