<svg xmlns="http://www.w3.org/2000/svg" viewBox="0 0 800 500">
  <defs>
    <linearGradient id="bg4" x1="0%" y1="0%" x2="100%" y2="100%">
      <stop offset="0%" style="stop-color:#0a0a0a"/>
      <stop offset="100%" style="stop-color:#111111"/>
    </linearGradient>
  </defs>
  <rect fill="url(#bg4)" width="800" height="500"/>
  <!-- Sidebar -->
  <rect fill="#141414" x="0" y="0" width="200" height="500"/>
  <rect fill="#14b8a6" x="20" y="20" width="32" height="32" rx="6"/>
  <text x="60" y="42" fill="#ffffff" font-family="system-ui" font-size="14" font-weight="600">HR Platform</text>
  <rect fill="transparent" x="16" y="80" width="168" height="36" rx="6"/>
  <text x="52" y="102" fill="#888888" font-family="system-ui" font-size="12">Dashboard</text>
  <rect fill="transparent" x="16" y="124" width="168" height="36" rx="6"/>
  <text x="52" y="146" fill="#888888" font-family="system-ui" font-size="12">Employees</text>
  <rect fill="transparent" x="16" y="168" width="168" height="36" rx="6"/>
  <text x="52" y="190" fill="#888888" font-family="system-ui" font-size="12">Performance</text>
  <rect fill="#1a1a1a" x="16" y="212" width="168" height="36" rx="6"/>
  <circle fill="#14b8a6" cx="36" cy="230" r="8"/>
  <text x="52" y="234" fill="#ffffff" font-family="system-ui" font-size="12">Time Off</text>
  <!-- Main Content -->
  <text x="230" y="50" fill="#ffffff" font-family="system-ui" font-size="20" font-weight="600">Time Off Management</text>
  <!-- Balance Cards -->
  <rect fill="#141414" x="230" y="80" width="130" height="80" rx="8"/>
  <text x="250" y="108" fill="#888888" font-family="system-ui" font-size="10">Vacation</text>
  <text x="250" y="135" fill="#ffffff" font-family="system-ui" font-size="24" font-weight="600">12</text>
  <text x="284" y="135" fill="#666666" font-family="system-ui" font-size="12">days left</text>
  <rect fill="#141414" x="370" y="80" width="130" height="80" rx="8"/>
  <text x="390" y="108" fill="#888888" font-family="system-ui" font-size="10">Sick Leave</text>
  <text x="390" y="135" fill="#ffffff" font-family="system-ui" font-size="24" font-weight="600">5</text>
  <text x="410" y="135" fill="#666666" font-family="system-ui" font-size="12">days left</text>
  <rect fill="#141414" x="510" y="80" width="130" height="80" rx="8"/>
  <text x="530" y="108" fill="#888888" font-family="system-ui" font-size="10">Personal</text>
  <text x="530" y="135" fill="#ffffff" font-family="system-ui" font-size="24" font-weight="600">3</text>
  <text x="550" y="135" fill="#666666" font-family="system-ui" font-size="12">days left</text>
  <rect fill="#14b8a6" x="660" y="95" width="100" height="50" rx="6"/>
  <text x="680" y="126" fill="#000000" font-family="system-ui" font-size="12" font-weight="500">Request</text>
  <!-- Calendar -->
  <rect fill="#141414" x="230" y="180" width="350" height="300" rx="8"/>
  <text x="250" y="210" fill="#ffffff" font-family="system-ui" font-size="14" font-weight="500">January 2025</text>
  <text x="510" y="210" fill="#888888" font-family="system-ui" font-size="12">&lt; &gt;</text>
  <!-- Calendar Grid -->
  <text x="260" y="245" fill="#666666" font-family="system-ui" font-size="10">Mon</text>
  <text x="300" y="245" fill="#666666" font-family="system-ui" font-size="10">Tue</text>
  <text x="340" y="245" fill="#666666" font-family="system-ui" font-size="10">Wed</text>
  <text x="380" y="245" fill="#666666" font-family="system-ui" font-size="10">Thu</text>
  <text x="420" y="245" fill="#666666" font-family="system-ui" font-size="10">Fri</text>
  <text x="460" y="245" fill="#666666" font-family="system-ui" font-size="10">Sat</text>
  <text x="500" y="245" fill="#666666" font-family="system-ui" font-size="10">Sun</text>
  <!-- Week 1 -->
  <text x="268" y="275" fill="#444444" font-family="system-ui" font-size="12">30</text>
  <text x="308" y="275" fill="#444444" font-family="system-ui" font-size="12">31</text>
  <text x="348" y="275" fill="#ffffff" font-family="system-ui" font-size="12">1</text>
  <text x="388" y="275" fill="#ffffff" font-family="system-ui" font-size="12">2</text>
  <text x="428" y="275" fill="#ffffff" font-family="system-ui" font-size="12">3</text>
  <text x="468" y="275" fill="#666666" font-family="system-ui" font-size="12">4</text>
  <text x="508" y="275" fill="#666666" font-family="system-ui" font-size="12">5</text>
  <!-- Week 2 -->
  <text x="268" y="305" fill="#ffffff" font-family="system-ui" font-size="12">6</text>
  <text x="308" y="305" fill="#ffffff" font-family="system-ui" font-size="12">7</text>
  <text x="348" y="305" fill="#ffffff" font-family="system-ui" font-size="12">8</text>
  <text x="388" y="305" fill="#ffffff" font-family="system-ui" font-size="12">9</text>
  <circle fill="#14b8a6" cx="432" cy="301" r="14"/>
  <text x="426" y="305" fill="#000000" font-family="system-ui" font-size="12">10</text>
  <text x="465" y="305" fill="#666666" font-family="system-ui" font-size="12">11</text>
  <text x="505" y="305" fill="#666666" font-family="system-ui" font-size="12">12</text>
  <!-- Week 3 - Vacation highlight -->
  <rect fill="#14b8a620" x="255" y="320" width="180" height="26" rx="4"/>
  <text x="268" y="337" fill="#14b8a6" font-family="system-ui" font-size="12">13</text>
  <text x="308" y="337" fill="#14b8a6" font-family="system-ui" font-size="12">14</text>
  <text x="348" y="337" fill="#14b8a6" font-family="system-ui" font-size="12">15</text>
  <text x="388" y="337" fill="#14b8a6" font-family="system-ui" font-size="12">16</text>
  <text x="428" y="337" fill="#14b8a6" font-family="system-ui" font-size="12">17</text>
  <text x="465" y="337" fill="#666666" font-family="system-ui" font-size="12">18</text>
  <text x="505" y="337" fill="#666666" font-family="system-ui" font-size="12">19</text>
  <!-- Pending Requests -->
  <rect fill="#141414" x="590" y="180" width="170" height="300" rx="8"/>
  <text x="610" y="210" fill="#ffffff" font-family="system-ui" font-size="14" font-weight="500">Pending</text>
  <rect fill="#1a1a1a" x="602" y="230" width="146" height="70" rx="6"/>
  <circle fill="#f59e0b" cx="622" cy="255" r="10"/>
  <text x="617" y="259" fill="#000000" font-family="system-ui" font-size="8">JS</text>
  <text x="640" y="252" fill="#ffffff" font-family="system-ui" font-size="11">John Smith</text>
  <text x="640" y="268" fill="#666666" font-family="system-ui" font-size="9">Jan 13-17 • Vacation</text>
  <rect fill="#22c55e" x="607" y="280" width="40" height="16" rx="3"/>
  <text x="615" y="291" fill="#000000" font-family="system-ui" font-size="8">Approve</text>
  <rect fill="#333333" x="652" y="280" width="40" height="16" rx="3"/>
  <text x="662" y="291" fill="#ffffff" font-family="system-ui" font-size="8">Deny</text>
  
  <rect fill="#1a1a1a" x="602" y="310" width="146" height="70" rx="6"/>
  <circle fill="#8b5cf6" cx="622" cy="335" r="10"/>
  <text x="617" y="339" fill="#000000" font-family="system-ui" font-size="8">EJ</text>
  <text x="640" y="332" fill="#ffffff" font-family="system-ui" font-size="11">Emma Johnson</text>
  <text x="640" y="348" fill="#666666" font-family="system-ui" font-size="9">Jan 20-21 • Personal</text>
  <rect fill="#22c55e" x="607" y="360" width="40" height="16" rx="3"/>
  <text x="615" y="371" fill="#000000" font-family="system-ui" font-size="8">Approve</text>
  <rect fill="#333333" x="652" y="360" width="40" height="16" rx="3"/>
  <text x="662" y="371" fill="#ffffff" font-family="system-ui" font-size="8">Deny</text>
</svg>
