<svg xmlns="http://www.w3.org/2000/svg" viewBox="0 0 800 500">
  <defs>
    <linearGradient id="bg3" x1="0%" y1="0%" x2="100%" y2="100%">
      <stop offset="0%" style="stop-color:#0a0a0a"/>
      <stop offset="100%" style="stop-color:#111111"/>
    </linearGradient>
  </defs>
  <rect fill="url(#bg3)" width="800" height="500"/>
  <!-- Sidebar -->
  <rect fill="#141414" x="0" y="0" width="200" height="500"/>
  <rect fill="#14b8a6" x="20" y="20" width="32" height="32" rx="6"/>
  <text x="60" y="42" fill="#ffffff" font-family="system-ui" font-size="14" font-weight="600">HR Platform</text>
  <rect fill="transparent" x="16" y="80" width="168" height="36" rx="6"/>
  <text x="52" y="102" fill="#888888" font-family="system-ui" font-size="12">Dashboard</text>
  <rect fill="transparent" x="16" y="124" width="168" height="36" rx="6"/>
  <text x="52" y="146" fill="#888888" font-family="system-ui" font-size="12">Employees</text>
  <rect fill="#1a1a1a" x="16" y="168" width="168" height="36" rx="6"/>
  <circle fill="#14b8a6" cx="36" cy="186" r="8"/>
  <text x="52" y="190" fill="#ffffff" font-family="system-ui" font-size="12">Performance</text>
  <!-- Main Content -->
  <text x="230" y="50" fill="#ffffff" font-family="system-ui" font-size="20" font-weight="600">Performance Reviews</text>
  <text x="230" y="72" fill="#666666" font-family="system-ui" font-size="12">Q4 2024 Review Cycle</text>
  <!-- Progress Card -->
  <rect fill="#141414" x="230" y="100" width="530" height="80" rx="8"/>
  <text x="250" y="130" fill="#ffffff" font-family="system-ui" font-size="14" font-weight="500">Review Progress</text>
  <rect fill="#1a1a1a" x="250" y="145" width="400" height="12" rx="6"/>
  <rect fill="#14b8a6" x="250" y="145" width="280" height="12" rx="6"/>
  <text x="660" y="156" fill="#ffffff" font-family="system-ui" font-size="12">70%</text>
  <text x="250" y="170" fill="#666666" font-family="system-ui" font-size="11">875 of 1,247 reviews completed</text>
  <!-- Review List -->
  <rect fill="#141414" x="230" y="200" width="350" height="280" rx="8"/>
  <text x="250" y="230" fill="#ffffff" font-family="system-ui" font-size="14" font-weight="500">Pending Reviews</text>
  <rect fill="#1a1a1a" x="242" y="250" width="326" height="60" rx="6"/>
  <circle fill="#3b82f6" cx="270" cy="280" r="14"/>
  <text x="264" y="284" fill="#ffffff" font-family="system-ui" font-size="10">JS</text>
  <text x="294" y="273" fill="#ffffff" font-family="system-ui" font-size="12">John Smith</text>
  <text x="294" y="290" fill="#666666" font-family="system-ui" font-size="10">Engineering • Self Review</text>
  <rect fill="#14b8a6" x="490" y="270" width="68" height="24" rx="4"/>
  <text x="504" y="286" fill="#000000" font-family="system-ui" font-size="10">Review</text>
  
  <rect fill="#1a1a1a" x="242" y="320" width="326" height="60" rx="6"/>
  <circle fill="#8b5cf6" cx="270" cy="350" r="14"/>
  <text x="264" y="354" fill="#ffffff" font-family="system-ui" font-size="10">EJ</text>
  <text x="294" y="343" fill="#ffffff" font-family="system-ui" font-size="12">Emma Johnson</text>
  <text x="294" y="360" fill="#666666" font-family="system-ui" font-size="10">Product • Manager Review</text>
  <rect fill="#14b8a6" x="490" y="340" width="68" height="24" rx="4"/>
  <text x="504" y="356" fill="#000000" font-family="system-ui" font-size="10">Review</text>
  
  <rect fill="#1a1a1a" x="242" y="390" width="326" height="60" rx="6"/>
  <circle fill="#f59e0b" cx="270" cy="420" r="14"/>
  <text x="264" y="424" fill="#ffffff" font-family="system-ui" font-size="10">RD</text>
  <text x="294" y="413" fill="#ffffff" font-family="system-ui" font-size="12">Robert Davis</text>
  <text x="294" y="430" fill="#666666" font-family="system-ui" font-size="10">Sales • Peer Review</text>
  <rect fill="#14b8a6" x="490" y="410" width="68" height="24" rx="4"/>
  <text x="504" y="426" fill="#000000" font-family="system-ui" font-size="10">Review</text>
  <!-- Stats Panel -->
  <rect fill="#141414" x="590" y="200" width="170" height="280" rx="8"/>
  <text x="610" y="230" fill="#ffffff" font-family="system-ui" font-size="14" font-weight="500">Review Stats</text>
  <rect fill="#1a1a1a" x="602" y="250" width="146" height="50" rx="6"/>
  <text x="615" y="275" fill="#22c55e" font-family="system-ui" font-size="20" font-weight="600">875</text>
  <text x="615" y="292" fill="#666666" font-family="system-ui" font-size="10">Completed</text>
  <rect fill="#1a1a1a" x="602" y="310" width="146" height="50" rx="6"/>
  <text x="615" y="335" fill="#f59e0b" font-family="system-ui" font-size="20" font-weight="600">312</text>
  <text x="615" y="352" fill="#666666" font-family="system-ui" font-size="10">In Progress</text>
  <rect fill="#1a1a1a" x="602" y="370" width="146" height="50" rx="6"/>
  <text x="615" y="395" fill="#ef4444" font-family="system-ui" font-size="20" font-weight="600">60</text>
  <text x="615" y="412" fill="#666666" font-family="system-ui" font-size="10">Overdue</text>
  <rect fill="#14b8a6" x="602" y="435" width="146" height="32" rx="6"/>
  <text x="632" y="456" fill="#000000" font-family="system-ui" font-size="11" font-weight="500">View Report</text>
</svg>
