<svg xmlns="http://www.w3.org/2000/svg" viewBox="0 0 800 500">
  <rect fill="#0a0a0a" width="800" height="500"/>
  <rect fill="#141414" x="0" y="0" width="200" height="500"/>
  <rect fill="#14b8a6" x="20" y="20" width="32" height="32" rx="6"/>
  <text x="60" y="42" fill="#ffffff" font-family="system-ui" font-size="14" font-weight="600">IAM Console</text>
  <rect fill="transparent" x="16" y="80" width="168" height="36" rx="6"/>
  <text x="52" y="102" fill="#888888" font-family="system-ui" font-size="12">Overview</text>
  <rect fill="transparent" x="16" y="124" width="168" height="36" rx="6"/>
  <text x="52" y="146" fill="#888888" font-family="system-ui" font-size="12">Users</text>
  <rect fill="transparent" x="16" y="168" width="168" height="36" rx="6"/>
  <text x="52" y="190" fill="#888888" font-family="system-ui" font-size="12">Applications</text>
  <rect fill="#1a1a1a" x="16" y="212" width="168" height="36" rx="6"/>
  <circle fill="#14b8a6" cx="36" cy="230" r="8"/>
  <text x="52" y="234" fill="#ffffff" font-family="system-ui" font-size="12">Policies</text>
  <text x="230" y="50" fill="#ffffff" font-family="system-ui" font-size="20" font-weight="600">Access Policies</text>
  <rect fill="#14b8a6" x="665" y="30" width="95" height="36" rx="6"/>
  <text x="680" y="54" fill="#000000" font-family="system-ui" font-size="11" font-weight="500">+ New Policy</text>
  <!-- Policy List -->
  <rect fill="#141414" x="230" y="80" width="530" height="70" rx="8"/>
  <rect fill="#22c55e" x="250" y="100" width="4" height="30" rx="2"/>
  <text x="270" y="118" fill="#ffffff" font-family="system-ui" font-size="13" font-weight="500">Admin Full Access</text>
  <text x="270" y="134" fill="#666666" font-family="system-ui" font-size="10">Grants full administrative access to all resources</text>
  <rect fill="#8b5cf620" x="550" y="108" width="60" height="18" rx="9"/>
  <text x="560" y="120" fill="#8b5cf6" font-family="system-ui" font-size="9">12 Users</text>
  <rect fill="#1a1a1a" x="620" y="105" width="60" height="24" rx="4"/>
  <text x="638" y="121" fill="#888888" font-family="system-ui" font-size="10">Edit</text>
  <rect fill="#333333" x="690" y="105" width="55" height="24" rx="4"/>
  <text x="702" y="121" fill="#888888" font-family="system-ui" font-size="10">View</text>
  
  <rect fill="#141414" x="230" y="160" width="530" height="70" rx="8"/>
  <rect fill="#3b82f6" x="250" y="180" width="4" height="30" rx="2"/>
  <text x="270" y="198" fill="#ffffff" font-family="system-ui" font-size="13" font-weight="500">Developer Access</text>
  <text x="270" y="214" fill="#666666" font-family="system-ui" font-size="10">Read/write access to development resources and APIs</text>
  <rect fill="#3b82f620" x="550" y="188" width="60" height="18" rx="9"/>
  <text x="558" y="200" fill="#3b82f6" font-family="system-ui" font-size="9">847 Users</text>
  <rect fill="#1a1a1a" x="620" y="185" width="60" height="24" rx="4"/>
  <text x="638" y="201" fill="#888888" font-family="system-ui" font-size="10">Edit</text>
  <rect fill="#333333" x="690" y="185" width="55" height="24" rx="4"/>
  <text x="702" y="201" fill="#888888" font-family="system-ui" font-size="10">View</text>
  
  <rect fill="#141414" x="230" y="240" width="530" height="70" rx="8"/>
  <rect fill="#f59e0b" x="250" y="260" width="4" height="30" rx="2"/>
  <text x="270" y="278" fill="#ffffff" font-family="system-ui" font-size="13" font-weight="500">Read-Only Viewer</text>
  <text x="270" y="294" fill="#666666" font-family="system-ui" font-size="10">Read-only access to dashboards and reports</text>
  <rect fill="#f59e0b20" x="550" y="268" width="60" height="18" rx="9"/>
  <text x="556" y="280" fill="#f59e0b" font-family="system-ui" font-size="9">2.3K Users</text>
  <rect fill="#1a1a1a" x="620" y="265" width="60" height="24" rx="4"/>
  <text x="638" y="281" fill="#888888" font-family="system-ui" font-size="10">Edit</text>
  <rect fill="#333333" x="690" y="265" width="55" height="24" rx="4"/>
  <text x="702" y="281" fill="#888888" font-family="system-ui" font-size="10">View</text>
  
  <rect fill="#141414" x="230" y="320" width="530" height="70" rx="8"/>
  <rect fill="#14b8a6" x="250" y="340" width="4" height="30" rx="2"/>
  <text x="270" y="358" fill="#ffffff" font-family="system-ui" font-size="13" font-weight="500">API Integration</text>
  <text x="270" y="374" fill="#666666" font-family="system-ui" font-size="10">Machine-to-machine access for service accounts</text>
  <rect fill="#14b8a620" x="550" y="348" width="60" height="18" rx="9"/>
  <text x="556" y="360" fill="#14b8a6" font-family="system-ui" font-size="9">156 Apps</text>
  <rect fill="#1a1a1a" x="620" y="345" width="60" height="24" rx="4"/>
  <text x="638" y="361" fill="#888888" font-family="system-ui" font-size="10">Edit</text>
  <rect fill="#333333" x="690" y="345" width="55" height="24" rx="4"/>
  <text x="702" y="361" fill="#888888" font-family="system-ui" font-size="10">View</text>
  <!-- Policy Stats -->
  <rect fill="#141414" x="230" y="410" width="530" height="70" rx="8"/>
  <text x="250" y="440" fill="#888888" font-family="system-ui" font-size="11">Total Policies: 24</text>
  <text x="380" y="440" fill="#888888" font-family="system-ui" font-size="11">Custom: 18</text>
  <text x="480" y="440" fill="#888888" font-family="system-ui" font-size="11">System: 6</text>
  <text x="250" y="462" fill="#666666" font-family="system-ui" font-size="10">Last audit: 2 hours ago • Next scheduled: Tomorrow 3:00 AM</text>
</svg>
