<svg xmlns="http://www.w3.org/2000/svg" viewBox="0 0 800 500">
  <!-- Light gray background -->
  <rect fill="#eef1f6" width="800" height="500"/>

  <!-- Blue header bar -->
  <rect fill="#2c3e6b" x="20" y="20" width="760" height="52" rx="10"/>
  <!-- Person icon -->
  <circle cx="44" cy="46" r="8" fill="none" stroke="#fff" stroke-width="1.5"/>
  <rect fill="none" x="34" y="54" width="20" height="4" rx="2" stroke="#fff" stroke-width="1.5"/>
  <text fill="#fff" x="68" y="52" font-family="system-ui" font-size="18" font-weight="700">Roles &amp; Permissions</text>
  <!-- Bell + settings icons -->
  <circle cx="730" cy="46" r="8" fill="none" stroke="#fff" stroke-width="1" opacity="0.6"/>
  <rect fill="none" x="750" y="38" width="14" height="14" rx="2" stroke="#fff" stroke-width="1" opacity="0.6"/>

  <!-- Tab bar -->
  <rect fill="#fff" x="20" y="82" width="760" height="38" rx="0"/>
  <rect fill="#3b5998" x="40" y="86" width="80" height="28" rx="14"/>
  <text fill="#fff" x="62" y="105" font-family="system-ui" font-size="11" font-weight="600">Roles</text>
  <text fill="#666" x="148" y="105" font-family="system-ui" font-size="11">Permissions</text>
  <text fill="#666" x="238" y="105" font-family="system-ui" font-size="11">Users</text>
  <!-- Filter dropdown -->
  <rect fill="#fff" x="660" y="88" width="100" height="26" rx="4" stroke="#d0d5dd" stroke-width="1"/>
  <text fill="#888" x="672" y="106" font-family="system-ui" font-size="10">Facets</text>
  <text fill="#999" x="744" y="106" font-family="system-ui" font-size="10">&#9660;</text>

  <!-- Main content card -->
  <rect fill="#fff" x="20" y="126" width="760" height="350" rx="10"/>

  <!-- Sub-tabs -->
  <text fill="#333" x="44" y="154" font-family="system-ui" font-size="11" font-weight="600" text-decoration="underline">Roles</text>
  <text fill="#888" x="100" y="154" font-family="system-ui" font-size="11">Permissions</text>

  <!-- Table Header -->
  <line x1="40" y1="166" x2="760" y2="166" stroke="#e8e8e8" stroke-width="1"/>
  <text fill="#888" x="44" y="184" font-family="system-ui" font-size="10" font-weight="500">Roles</text>
  <text fill="#888" x="220" y="184" font-family="system-ui" font-size="10" font-weight="500">Permissions</text>
  <text fill="#888" x="388" y="184" font-family="system-ui" font-size="10" font-weight="500">Editor</text>
  <text fill="#888" x="458" y="184" font-family="system-ui" font-size="10" font-weight="500">O</text>
  <text fill="#888" x="520" y="184" font-family="system-ui" font-size="10" font-weight="500">Role</text>
  <text fill="#888" x="620" y="184" font-family="system-ui" font-size="10" font-weight="500">View</text>
  <line x1="40" y1="192" x2="760" y2="192" stroke="#e8e8e8" stroke-width="1"/>

  <!-- Row 1: Administrator -->
  <text fill="#333" x="68" y="216" font-family="system-ui" font-size="11" font-weight="500">Administrator</text>
  <!-- Checkbox with check -->
  <rect fill="#3b5998" x="234" y="202" width="16" height="16" rx="3"/>
  <text fill="#fff" x="238" y="214" font-family="system-ui" font-size="10">&#10003;</text>
  <text fill="#333" x="258" y="216" font-family="system-ui" font-size="10">Manage Users</text>
  <!-- Green progress bar -->
  <rect fill="#e8e8e8" x="380" y="208" width="80" height="8" rx="4"/>
  <rect fill="#4caf50" x="380" y="208" width="80" height="8" rx="4"/>
  <circle cx="462" cy="212" r="5" fill="#3b5998"/>
  <!-- Role icons -->
  <circle cx="528" cy="212" r="7" fill="none" stroke="#ccc" stroke-width="1"/>
  <circle cx="548" cy="212" r="7" fill="none" stroke="#ccc" stroke-width="1"/>
  <!-- View avatars -->
  <rect fill="#e8f0fe" x="614" y="204" width="22" height="22" rx="4"/>
  <rect fill="#d4e4fc" x="640" y="204" width="22" height="22" rx="4"/>
  <rect fill="#fff" x="666" y="204" width="22" height="22" rx="4" stroke="#ccc" stroke-width="1"/>
  <line x1="40" y1="232" x2="760" y2="232" stroke="#f0f0f0" stroke-width="1"/>

  <!-- Row 2: Support Specialist -->
  <rect fill="#3b5998" x="48" y="242" width="16" height="16" rx="3"/>
  <text fill="#fff" x="52" y="254" font-family="system-ui" font-size="10">&#10003;</text>
  <text fill="#333" x="68" y="256" font-family="system-ui" font-size="11" font-weight="500">Support Specialist</text>
  <rect fill="#3b5998" x="234" y="242" width="16" height="16" rx="3"/>
  <text fill="#fff" x="238" y="254" font-family="system-ui" font-size="10">&#10003;</text>
  <text fill="#333" x="258" y="256" font-family="system-ui" font-size="10">Access Reports</text>
  <rect fill="#e8e8e8" x="380" y="248" width="80" height="8" rx="4"/>
  <rect fill="#4caf50" x="380" y="248" width="65" height="8" rx="4"/>
  <circle cx="530" cy="252" r="7" fill="#ff9800" opacity="0.8"/>
  <circle cx="548" cy="252" r="7" fill="none" stroke="#ccc" stroke-width="1"/>
  <rect fill="#e8f0fe" x="614" y="244" width="22" height="22" rx="4"/>
  <rect fill="#d4e4fc" x="640" y="244" width="22" height="22" rx="4"/>
  <line x1="40" y1="272" x2="760" y2="272" stroke="#f0f0f0" stroke-width="1"/>

  <!-- Row 3: Editor -->
  <rect fill="#3b5998" x="48" y="282" width="16" height="16" rx="3"/>
  <text fill="#fff" x="52" y="294" font-family="system-ui" font-size="10">&#10003;</text>
  <text fill="#333" x="68" y="296" font-family="system-ui" font-size="11" font-weight="500">Editor</text>
  <rect fill="#3b5998" x="234" y="282" width="16" height="16" rx="3"/>
  <text fill="#fff" x="238" y="294" font-family="system-ui" font-size="10">&#10003;</text>
  <text fill="#333" x="258" y="296" font-family="system-ui" font-size="10">Edit Content</text>
  <rect fill="#e8e8e8" x="380" y="288" width="80" height="8" rx="4"/>
  <rect fill="#4caf50" x="380" y="288" width="50" height="8" rx="4"/>
  <circle cx="530" cy="292" r="7" fill="none" stroke="#ccc" stroke-width="1"/>
  <rect fill="#3b5998" x="614" y="284" width="22" height="22" rx="4"/>
  <text fill="#fff" x="620" y="299" font-family="system-ui" font-size="9">&#10003;</text>
  <rect fill="#3b5998" x="640" y="284" width="22" height="22" rx="4"/>
  <text fill="#fff" x="646" y="299" font-family="system-ui" font-size="9">&#10003;</text>
  <line x1="40" y1="312" x2="760" y2="312" stroke="#f0f0f0" stroke-width="1"/>

  <!-- Row 4: Viewer -->
  <rect fill="#3b5998" x="48" y="322" width="16" height="16" rx="3"/>
  <text fill="#fff" x="52" y="334" font-family="system-ui" font-size="10">&#10003;</text>
  <text fill="#333" x="68" y="336" font-family="system-ui" font-size="11" font-weight="500">Viewer</text>
  <rect fill="#3b5998" x="234" y="322" width="16" height="16" rx="3"/>
  <text fill="#fff" x="238" y="334" font-family="system-ui" font-size="10">&#10003;</text>
  <text fill="#333" x="258" y="336" font-family="system-ui" font-size="10">View Content</text>
  <rect fill="#e8e8e8" x="380" y="328" width="80" height="8" rx="4"/>
  <rect fill="#3b5998" x="380" y="328" width="60" height="8" rx="4"/>
  <rect fill="#3b5998" x="614" y="324" width="22" height="22" rx="4"/>
  <text fill="#fff" x="620" y="339" font-family="system-ui" font-size="9">&#10003;</text>
  <rect fill="#3b5998" x="640" y="324" width="22" height="22" rx="4"/>
  <text fill="#fff" x="646" y="339" font-family="system-ui" font-size="9">&#10003;</text>

  <!-- Separator -->
  <line x1="40" y1="354" x2="760" y2="354" stroke="#d0d5dd" stroke-width="1.5"/>

  <!-- Bottom section: User Permissions -->
  <text fill="#888" x="44" y="376" font-family="system-ui" font-size="10" font-weight="500">Permission</text>
  <text fill="#888" x="260" y="376" font-family="system-ui" font-size="10" font-weight="500">Created</text>
  <text fill="#888" x="400" y="376" font-family="system-ui" font-size="10" font-weight="500">Viewer</text>
  <text fill="#888" x="540" y="376" font-family="system-ui" font-size="10" font-weight="500">Permission</text>
  <line x1="40" y1="384" x2="760" y2="384" stroke="#e8e8e8" stroke-width="1"/>

  <!-- User row 1 -->
  <circle cx="56" cy="404" r="12" fill="#e8d4c8"/>
  <text fill="#333" x="76" y="408" font-family="system-ui" font-size="11" font-weight="500">Jett Brown</text>
  <text fill="#888" x="260" y="404" font-family="system-ui" font-size="10">&#9654; 23.1/m</text>
  <text fill="#888" x="320" y="404" font-family="system-ui" font-size="10">20</text>
  <!-- Blue bar -->
  <rect fill="#e8e8e8" x="400" y="398" width="100" height="8" rx="4"/>
  <rect fill="#3b5998" x="400" y="398" width="70" height="8" rx="4"/>
  <text fill="#888" x="540" y="408" font-family="system-ui" font-size="10">&#9654; Jett Brown</text>
  <rect fill="none" x="700" y="396" width="18" height="18" rx="3" stroke="#ccc" stroke-width="1"/>
  <line x1="40" y1="424" x2="760" y2="424" stroke="#f0f0f0" stroke-width="1"/>

  <!-- User row 2 -->
  <circle cx="56" cy="442" r="12" fill="#c8d8e8"/>
  <text fill="#333" x="76" y="446" font-family="system-ui" font-size="11" font-weight="500">Sacess Carter</text>
  <text fill="#888" x="260" y="442" font-family="system-ui" font-size="10">&#9654; M6%</text>
  <text fill="#888" x="320" y="442" font-family="system-ui" font-size="10">60</text>
  <rect fill="#e8e8e8" x="400" y="436" width="100" height="8" rx="4"/>
  <rect fill="#4caf50" x="400" y="436" width="85" height="8" rx="4"/>
  <text fill="#888" x="540" y="446" font-family="system-ui" font-size="10">&#9654; Sacess Carter</text>
  <rect fill="none" x="700" y="434" width="18" height="18" rx="3" stroke="#ccc" stroke-width="1"/>

  <!-- User row 3 -->
  <circle cx="56" cy="468" r="12" fill="#d8e8c8"/>
  <text fill="#333" x="76" y="472" font-family="system-ui" font-size="11" font-weight="500">Andrew Lee</text>
  <text fill="#888" x="260" y="468" font-family="system-ui" font-size="10">&#9654; Molk</text>
  <text fill="#888" x="320" y="468" font-family="system-ui" font-size="10">40</text>
  <rect fill="#e8e8e8" x="400" y="462" width="100" height="8" rx="4"/>
  <rect fill="#4caf50" x="400" y="462" width="55" height="8" rx="4"/>
  <text fill="#888" x="540" y="472" font-family="system-ui" font-size="10">Andrew Lee</text>
  <rect fill="none" x="700" y="460" width="18" height="18" rx="3" stroke="#ccc" stroke-width="1"/>
</svg>
