<svg xmlns="http://www.w3.org/2000/svg" viewBox="0 0 800 500">
  <rect fill="#0a0a0b" width="800" height="500"/>
  <!-- Sidebar -->
  <rect fill="#111113" x="0" y="0" width="180" height="500"/>
  <rect fill="#0891b2" x="20" y="20" width="32" height="32" rx="6"/>
  <text fill="#fff" x="60" y="42" font-family="system-ui" font-size="14" font-weight="600">IAM Hub</text>
  <rect fill="#0891b2" x="0" y="264" width="4" height="36"/>
  <rect fill="#1a1a1d" x="12" y="264" width="156" height="36" rx="6"/>
  <text fill="#fff" x="44" y="287" font-family="system-ui" font-size="12">SSO Settings</text>
  <!-- Header -->
  <text fill="#fff" x="200" y="45" font-family="system-ui" font-size="20" font-weight="600">SSO Configuration</text>
  <!-- Tabs -->
  <rect fill="#0891b2" x="200" y="60" width="80" height="32" rx="6"/>
  <text fill="#fff" x="220" y="81" font-family="system-ui" font-size="11">SAML</text>
  <rect fill="#1a1a1d" x="290" y="60" width="80" height="32" rx="6"/>
  <text fill="#a1a1aa" x="310" y="81" font-family="system-ui" font-size="11">OIDC</text>
  <rect fill="#1a1a1d" x="380" y="60" width="80" height="32" rx="6"/>
  <text fill="#a1a1aa" x="400" y="81" font-family="system-ui" font-size="11">LDAP</text>
  <!-- SAML Settings Form -->
  <rect fill="#111113" x="200" y="105" width="380" height="375" rx="8"/>
  <text fill="#fff" x="216" y="130" font-family="system-ui" font-size="13" font-weight="500">SAML 2.0 Configuration</text>
  <text fill="#71717a" x="216" y="165" font-family="system-ui" font-size="11">Entity ID</text>
  <rect fill="#1a1a1d" x="216" y="175" width="348" height="36" rx="4"/>
  <text fill="#a1a1aa" x="230" y="198" font-family="system-ui" font-size="11">https://idp.company.com/metadata</text>
  <text fill="#71717a" x="216" y="235" font-family="system-ui" font-size="11">SSO URL</text>
  <rect fill="#1a1a1d" x="216" y="245" width="348" height="36" rx="4"/>
  <text fill="#a1a1aa" x="230" y="268" font-family="system-ui" font-size="11">https://idp.company.com/sso/saml</text>
  <text fill="#71717a" x="216" y="305" font-family="system-ui" font-size="11">X.509 Certificate</text>
  <rect fill="#1a1a1d" x="216" y="315" width="348" height="70" rx="4"/>
  <text fill="#52525b" x="230" y="340" font-family="system-ui" font-size="10">-----BEGIN CERTIFICATE-----</text>
  <text fill="#52525b" x="230" y="355" font-family="system-ui" font-size="10">MIICmTCCAgKgAwIBAgIBADANBgk...</text>
  <text fill="#52525b" x="230" y="370" font-family="system-ui" font-size="10">-----END CERTIFICATE-----</text>
  <text fill="#71717a" x="216" y="410" font-family="system-ui" font-size="11">Name ID Format</text>
  <rect fill="#1a1a1d" x="216" y="420" width="348" height="36" rx="4"/>
  <text fill="#a1a1aa" x="230" y="443" font-family="system-ui" font-size="11">urn:oasis:names:tc:SAML:1.1:nameid-format:email</text>
  <!-- Status Panel -->
  <rect fill="#111113" x="590" y="105" width="190" height="180" rx="8"/>
  <text fill="#fff" x="606" y="130" font-family="system-ui" font-size="13" font-weight="500">Connection Status</text>
  <circle cx="620" cy="165" r="8" fill="#22c55e"/>
  <text fill="#22c55e" x="640" y="170" font-family="system-ui" font-size="12">Connected</text>
  <text fill="#71717a" x="606" y="200" font-family="system-ui" font-size="10">Last sync: 2 minutes ago</text>
  <text fill="#71717a" x="606" y="220" font-family="system-ui" font-size="10">Users synced: 4,892</text>
  <text fill="#71717a" x="606" y="240" font-family="system-ui" font-size="10">Groups synced: 127</text>
  <rect fill="#1a1a1d" x="606" y="255" width="160" height="28" rx="4"/>
  <text fill="#a1a1aa" x="645" y="274" font-family="system-ui" font-size="10">Test Connection</text>
  <!-- MFA Settings -->
  <rect fill="#111113" x="590" y="295" width="190" height="185" rx="8"/>
  <text fill="#fff" x="606" y="320" font-family="system-ui" font-size="13" font-weight="500">MFA Policies</text>
  <rect fill="#1a1a1d" x="606" y="340" width="160" height="35" rx="4"/>
  <text fill="#a1a1aa" x="620" y="355" font-family="system-ui" font-size="10">Authenticator App</text>
  <rect fill="#22c55e" x="728" y="348" width="28" height="14" rx="7"/>
  <circle cx="751" cy="355" r="9" fill="#fff"/>
  <rect fill="#1a1a1d" x="606" y="385" width="160" height="35" rx="4"/>
  <text fill="#a1a1aa" x="620" y="400" font-family="system-ui" font-size="10">SMS Verification</text>
  <rect fill="#22c55e" x="728" y="393" width="28" height="14" rx="7"/>
  <circle cx="751" cy="400" r="9" fill="#fff"/>
  <rect fill="#1a1a1d" x="606" y="430" width="160" height="35" rx="4"/>
  <text fill="#a1a1aa" x="620" y="445" font-family="system-ui" font-size="10">Hardware Keys</text>
  <rect fill="#3f3f46" x="728" y="438" width="28" height="14" rx="7"/>
  <circle cx="733" cy="445" r="9" fill="#fff"/>
</svg>
