<svg xmlns="http://www.w3.org/2000/svg" viewBox="0 0 800 500">
  <rect fill="#0a0a0a" width="800" height="500"/>
  <rect fill="#141414" x="0" y="0" width="200" height="500"/>
  <rect fill="#14b8a6" x="20" y="20" width="32" height="32" rx="6"/>
  <text x="60" y="42" fill="#ffffff" font-family="system-ui" font-size="14" font-weight="600">BioLab LIMS</text>
  <rect fill="transparent" x="16" y="80" width="168" height="36" rx="6"/>
  <text x="52" y="102" fill="#888888" font-family="system-ui" font-size="12">Dashboard</text>
  <rect fill="#1a1a1a" x="16" y="124" width="168" height="36" rx="6"/>
  <circle fill="#14b8a6" cx="36" cy="142" r="8"/>
  <text x="52" y="146" fill="#ffffff" font-family="system-ui" font-size="12">Samples</text>
  <text x="230" y="50" fill="#ffffff" font-family="system-ui" font-size="20" font-weight="600">Sample Inventory</text>
  <!-- Filters -->
  <rect fill="#141414" x="230" y="75" width="200" height="32" rx="6"/>
  <text x="250" y="96" fill="#666666" font-family="system-ui" font-size="11">Search samples...</text>
  <rect fill="#1a1a1a" x="440" y="75" width="80" height="32" rx="6"/>
  <text x="460" y="96" fill="#888888" font-family="system-ui" font-size="10">Type ▼</text>
  <rect fill="#1a1a1a" x="530" y="75" width="80" height="32" rx="6"/>
  <text x="548" y="96" fill="#888888" font-family="system-ui" font-size="10">Status ▼</text>
  <rect fill="#14b8a6" x="680" y="75" width="80" height="32" rx="6"/>
  <text x="697" y="96" fill="#000000" font-family="system-ui" font-size="11" font-weight="500">+ Add</text>
  <!-- Sample Table -->
  <rect fill="#141414" x="230" y="120" width="530" height="36" rx="4"/>
  <text x="250" y="143" fill="#888888" font-family="system-ui" font-size="9" font-weight="500">SAMPLE ID</text>
  <text x="370" y="143" fill="#888888" font-family="system-ui" font-size="9" font-weight="500">TYPE</text>
  <text x="460" y="143" fill="#888888" font-family="system-ui" font-size="9" font-weight="500">LOCATION</text>
  <text x="560" y="143" fill="#888888" font-family="system-ui" font-size="9" font-weight="500">STATUS</text>
  <text x="660" y="143" fill="#888888" font-family="system-ui" font-size="9" font-weight="500">COLLECTED</text>
  <!-- Sample Rows -->
  <rect fill="#0f0f0f" x="230" y="160" width="530" height="50"/>
  <rect fill="#3b82f6" x="245" y="175" width="4" height="20" rx="2"/>
  <text x="260" y="185" fill="#ffffff" font-family="system-ui" font-size="11">BIO-2024-00847</text>
  <text x="260" y="200" fill="#666666" font-family="system-ui" font-size="9">Human blood sample</text>
  <text x="370" y="190" fill="#888888" font-family="system-ui" font-size="10">Blood</text>
  <text x="460" y="190" fill="#888888" font-family="system-ui" font-size="10">Freezer A-3-7</text>
  <rect fill="#22c55e20" x="560" y="180" width="55" height="18" rx="9"/>
  <text x="570" y="193" fill="#22c55e" font-family="system-ui" font-size="9">Stored</text>
  <text x="660" y="190" fill="#888888" font-family="system-ui" font-size="10">Jan 8, 2025</text>
  
  <rect fill="#141414" x="230" y="215" width="530" height="50"/>
  <rect fill="#8b5cf6" x="245" y="230" width="4" height="20" rx="2"/>
  <text x="260" y="240" fill="#ffffff" font-family="system-ui" font-size="11">DNA-2024-01203</text>
  <text x="260" y="255" fill="#666666" font-family="system-ui" font-size="9">Extracted DNA - BRCA1</text>
  <text x="370" y="245" fill="#888888" font-family="system-ui" font-size="10">DNA</text>
  <text x="460" y="245" fill="#888888" font-family="system-ui" font-size="10">Freezer B-2-4</text>
  <rect fill="#f59e0b20" x="560" y="235" width="65" height="18" rx="9"/>
  <text x="568" y="248" fill="#f59e0b" font-family="system-ui" font-size="9">In Testing</text>
  <text x="660" y="245" fill="#888888" font-family="system-ui" font-size="10">Jan 7, 2025</text>
  
  <rect fill="#0f0f0f" x="230" y="270" width="530" height="50"/>
  <rect fill="#ec4899" x="245" y="285" width="4" height="20" rx="2"/>
  <text x="260" y="295" fill="#ffffff" font-family="system-ui" font-size="11">CELL-2024-00562</text>
  <text x="260" y="310" fill="#666666" font-family="system-ui" font-size="9">HeLa cell culture</text>
  <text x="370" y="300" fill="#888888" font-family="system-ui" font-size="10">Cell Line</text>
  <text x="460" y="300" fill="#888888" font-family="system-ui" font-size="10">Incubator 2</text>
  <rect fill="#3b82f620" x="560" y="290" width="65" height="18" rx="9"/>
  <text x="570" y="303" fill="#3b82f6" font-family="system-ui" font-size="9">Growing</text>
  <text x="660" y="300" fill="#888888" font-family="system-ui" font-size="10">Jan 5, 2025</text>
  
  <rect fill="#141414" x="230" y="325" width="530" height="50"/>
  <rect fill="#22c55e" x="245" y="340" width="4" height="20" rx="2"/>
  <text x="260" y="350" fill="#ffffff" font-family="system-ui" font-size="11">PRO-2024-00891</text>
  <text x="260" y="365" fill="#666666" font-family="system-ui" font-size="9">Purified protein P53</text>
  <text x="370" y="355" fill="#888888" font-family="system-ui" font-size="10">Protein</text>
  <text x="460" y="355" fill="#888888" font-family="system-ui" font-size="10">Cold Room 1</text>
  <rect fill="#22c55e20" x="560" y="345" width="55" height="18" rx="9"/>
  <text x="570" y="358" fill="#22c55e" font-family="system-ui" font-size="9">Stored</text>
  <text x="660" y="355" fill="#888888" font-family="system-ui" font-size="10">Jan 3, 2025</text>
  <!-- Storage Summary -->
  <rect fill="#141414" x="230" y="395" width="530" height="85" rx="8"/>
  <text x="250" y="425" fill="#ffffff" font-family="system-ui" font-size="12" font-weight="500">Storage Capacity</text>
  <rect fill="#1a1a1a" x="250" y="440" width="200" height="10" rx="5"/>
  <rect fill="#14b8a6" x="250" y="440" width="140" height="10" rx="5"/>
  <text x="460" y="450" fill="#888888" font-family="system-ui" font-size="10">70% used (2,847 / 4,000 slots)</text>
  <text x="250" y="470" fill="#666666" font-family="system-ui" font-size="9">Freezer A: 85% • Freezer B: 62% • Cold Room: 55%</text>
</svg>
