<svg xmlns="http://www.w3.org/2000/svg" viewBox="0 0 800 500">
  <rect fill="#0a0a0a" width="800" height="500"/>
  <rect fill="#141414" x="0" y="0" width="200" height="500"/>
  <rect fill="#14b8a6" x="20" y="20" width="32" height="32" rx="6"/>
  <text x="60" y="42" fill="#ffffff" font-family="system-ui" font-size="14" font-weight="600">BioLab LIMS</text>
  <rect fill="#1a1a1a" x="16" y="80" width="168" height="36" rx="6"/>
  <circle fill="#14b8a6" cx="36" cy="98" r="8"/>
  <text x="52" y="102" fill="#ffffff" font-family="system-ui" font-size="12">Dashboard</text>
  <rect fill="transparent" x="16" y="124" width="168" height="36" rx="6"/>
  <text x="52" y="146" fill="#888888" font-family="system-ui" font-size="12">Samples</text>
  <rect fill="transparent" x="16" y="168" width="168" height="36" rx="6"/>
  <text x="52" y="190" fill="#888888" font-family="system-ui" font-size="12">Experiments</text>
  <rect fill="transparent" x="16" y="212" width="168" height="36" rx="6"/>
  <text x="52" y="234" fill="#888888" font-family="system-ui" font-size="12">Equipment</text>
  <rect fill="transparent" x="16" y="256" width="168" height="36" rx="6"/>
  <text x="52" y="278" fill="#888888" font-family="system-ui" font-size="12">Protocols</text>
  <text x="230" y="50" fill="#ffffff" font-family="system-ui" font-size="20" font-weight="600">Lab Dashboard</text>
  <text x="230" y="70" fill="#666666" font-family="system-ui" font-size="12">Research Lab A - Building 3</text>
  <!-- Stats -->
  <rect fill="#141414" x="230" y="90" width="130" height="80" rx="8"/>
  <text x="250" y="115" fill="#888888" font-family="system-ui" font-size="10">Active Samples</text>
  <text x="250" y="145" fill="#ffffff" font-family="system-ui" font-size="26" font-weight="600">2,847</text>
  <rect fill="#141414" x="370" y="90" width="130" height="80" rx="8"/>
  <text x="390" y="115" fill="#888888" font-family="system-ui" font-size="10">Running Tests</text>
  <text x="390" y="145" fill="#14b8a6" font-family="system-ui" font-size="26" font-weight="600">156</text>
  <rect fill="#141414" x="510" y="90" width="130" height="80" rx="8"/>
  <text x="530" y="115" fill="#888888" font-family="system-ui" font-size="10">Pending Review</text>
  <text x="530" y="145" fill="#f59e0b" font-family="system-ui" font-size="26" font-weight="600">42</text>
  <rect fill="#141414" x="650" y="90" width="110" height="80" rx="8"/>
  <text x="670" y="115" fill="#888888" font-family="system-ui" font-size="10">Compliance</text>
  <text x="670" y="145" fill="#22c55e" font-family="system-ui" font-size="26" font-weight="600">98%</text>
  <!-- Recent Activity -->
  <rect fill="#141414" x="230" y="190" width="280" height="200" rx="8"/>
  <text x="250" y="220" fill="#ffffff" font-family="system-ui" font-size="14" font-weight="500">Recent Sample Activity</text>
  <rect fill="#1a1a1a" x="242" y="240" width="256" height="45" rx="4"/>
  <rect fill="#22c55e" x="252" y="250" width="4" height="25" rx="2"/>
  <text x="268" y="265" fill="#ffffff" font-family="system-ui" font-size="11">PCR-2024-0847 completed</text>
  <text x="268" y="280" fill="#666666" font-family="system-ui" font-size="9">Gene expression analysis • 5 min ago</text>
  <rect fill="#1a1a1a" x="242" y="295" width="256" height="45" rx="4"/>
  <rect fill="#3b82f6" x="252" y="305" width="4" height="25" rx="2"/>
  <text x="268" y="320" fill="#ffffff" font-family="system-ui" font-size="11">CELL-2024-1204 in progress</text>
  <text x="268" y="335" fill="#666666" font-family="system-ui" font-size="9">Cell culture analysis • 12 min ago</text>
  <rect fill="#1a1a1a" x="242" y="350" width="256" height="30" rx="4"/>
  <text x="268" y="370" fill="#888888" font-family="system-ui" font-size="10">+ 28 more activities today</text>
  <!-- Equipment Status -->
  <rect fill="#141414" x="520" y="190" width="240" height="200" rx="8"/>
  <text x="540" y="220" fill="#ffffff" font-family="system-ui" font-size="14" font-weight="500">Equipment Status</text>
  <rect fill="#1a1a1a" x="532" y="240" width="216" height="40" rx="4"/>
  <circle fill="#22c55e" cx="552" cy="260" r="6"/>
  <text x="568" y="256" fill="#ffffff" font-family="system-ui" font-size="10">PCR Thermal Cycler #1</text>
  <text x="568" y="270" fill="#666666" font-family="system-ui" font-size="9">Available</text>
  <rect fill="#1a1a1a" x="532" y="288" width="216" height="40" rx="4"/>
  <circle fill="#f59e0b" cx="552" cy="308" r="6"/>
  <text x="568" y="304" fill="#ffffff" font-family="system-ui" font-size="10">Centrifuge A</text>
  <text x="568" y="318" fill="#666666" font-family="system-ui" font-size="9">In use - 45 min remaining</text>
  <rect fill="#1a1a1a" x="532" y="336" width="216" height="40" rx="4"/>
  <circle fill="#ef4444" cx="552" cy="356" r="6"/>
  <text x="568" y="352" fill="#ffffff" font-family="system-ui" font-size="10">Microscope Station 2</text>
  <text x="568" y="366" fill="#666666" font-family="system-ui" font-size="9">Maintenance required</text>
  <!-- Quick Actions -->
  <rect fill="#141414" x="230" y="410" width="530" height="70" rx="8"/>
  <text x="250" y="440" fill="#ffffff" font-family="system-ui" font-size="12" font-weight="500">Quick Actions</text>
  <rect fill="#14b8a6" x="250" y="452" width="100" height="22" rx="4"/>
  <text x="266" y="467" fill="#000000" font-family="system-ui" font-size="9" font-weight="500">New Sample</text>
  <rect fill="#1a1a1a" x="360" y="452" width="110" height="22" rx="4"/>
  <text x="375" y="467" fill="#888888" font-family="system-ui" font-size="9">Start Experiment</text>
  <rect fill="#1a1a1a" x="480" y="452" width="100" height="22" rx="4"/>
  <text x="495" y="467" fill="#888888" font-family="system-ui" font-size="9">Book Equipment</text>
</svg>
