<svg xmlns="http://www.w3.org/2000/svg" viewBox="0 0 800 500">
  <!-- LIGHT Theme Life Sciences Dashboard -->
  <rect width="800" height="500" fill="#f0fdf4"/>
  
  <!-- Sidebar -->
  <rect x="0" y="0" width="180" height="500" fill="#ffffff"/>
  <rect x="179" y="0" width="1" height="500" fill="#e2e8f0"/>
  
  <rect x="20" y="20" width="32" height="32" rx="6" fill="#059669"/>
  <text x="60" y="42" font-family="Arial" font-size="14" font-weight="600" fill="#1e293b">LabOS</text>
  
  <rect x="12" y="75" width="156" height="38" rx="6" fill="#ecfdf5"/>
  <text x="40" y="99" font-family="Arial" font-size="12" fill="#059669" font-weight="500">Dashboard</text>
  
  <text x="40" y="138" font-family="Arial" font-size="12" fill="#64748b">Samples</text>
  <text x="40" y="170" font-family="Arial" font-size="12" fill="#64748b">Experiments</text>
  <text x="40" y="202" font-family="Arial" font-size="12" fill="#64748b">Equipment</text>
  <text x="40" y="234" font-family="Arial" font-size="12" fill="#64748b">Protocols</text>
  
  <!-- Main content -->
  <text x="200" y="45" font-family="Arial" font-size="20" font-weight="600" fill="#1e293b">Lab Overview</text>
  <text x="200" y="65" font-family="Arial" font-size="12" fill="#64748b">Good morning, Dr. Martinez</text>
  
  <!-- Metric cards -->
  <rect x="200" y="85" width="140" height="85" rx="10" fill="#ffffff" stroke="#e2e8f0"/>
  <text x="215" y="110" font-family="Arial" font-size="11" fill="#64748b">Active Samples</text>
  <text x="215" y="140" font-family="Arial" font-size="26" font-weight="700" fill="#1e293b">2,847</text>
  <text x="215" y="158" font-family="Arial" font-size="10" fill="#059669">+156 this week</text>
  
  <rect x="350" y="85" width="140" height="85" rx="10" fill="#ffffff" stroke="#e2e8f0"/>
  <text x="365" y="110" font-family="Arial" font-size="11" fill="#64748b">Running Expts</text>
  <text x="365" y="140" font-family="Arial" font-size="26" font-weight="700" fill="#1e293b">23</text>
  <text x="365" y="158" font-family="Arial" font-size="10" fill="#059669">All on schedule</text>
  
  <rect x="500" y="85" width="140" height="85" rx="10" fill="#ffffff" stroke="#e2e8f0"/>
  <text x="515" y="110" font-family="Arial" font-size="11" fill="#64748b">Equipment</text>
  <text x="515" y="140" font-family="Arial" font-size="26" font-weight="700" fill="#1e293b">18/20</text>
  <text x="515" y="158" font-family="Arial" font-size="10" fill="#059669">Available</text>
  
  <rect x="650" y="85" width="130" height="85" rx="10" fill="#ffffff" stroke="#e2e8f0"/>
  <text x="665" y="110" font-family="Arial" font-size="11" fill="#64748b">Pending QC</text>
  <text x="665" y="140" font-family="Arial" font-size="26" font-weight="700" fill="#1e293b">42</text>
  <text x="665" y="158" font-family="Arial" font-size="10" fill="#f59e0b">samples</text>
  
  <!-- Experiment Timeline -->
  <rect x="200" y="185" width="380" height="195" rx="12" fill="#ffffff" stroke="#e2e8f0"/>
  <text x="220" y="215" font-family="Arial" font-size="14" font-weight="600" fill="#1e293b">Experiment Timeline</text>
  
  <rect x="220" y="235" width="340" height="45" rx="6" fill="#f8fafc"/>
  <rect x="230" y="245" width="250" height="25" rx="4" fill="#059669"/>
  <text x="240" y="262" font-family="Arial" font-size="10" fill="#ffffff">EXP-2024-047: Gene Expression Analysis</text>
  <text x="490" y="262" font-family="Arial" font-size="9" fill="#64748b">Day 5/7</text>
  
  <rect x="220" y="290" width="340" height="45" rx="6" fill="#f8fafc"/>
  <rect x="230" y="300" width="180" height="25" rx="4" fill="#10b981"/>
  <text x="240" y="317" font-family="Arial" font-size="10" fill="#ffffff">EXP-2024-048: Cell Culture</text>
  <text x="420" y="317" font-family="Arial" font-size="9" fill="#64748b">Day 3/6</text>
  
  <rect x="220" y="335" width="340" height="35" rx="6" fill="#f8fafc"/>
  <rect x="230" y="342" width="100" height="20" rx="4" fill="#f59e0b"/>
  <text x="240" y="356" font-family="Arial" font-size="9" fill="#ffffff">EXP-049</text>
  <text x="340" y="356" font-family="Arial" font-size="9" fill="#64748b">Day 1/10</text>
  
  <!-- Recent Activity -->
  <rect x="590" y="185" width="190" height="195" rx="12" fill="#ffffff" stroke="#e2e8f0"/>
  <text x="610" y="215" font-family="Arial" font-size="14" font-weight="600" fill="#1e293b">Recent Activity</text>
  
  <circle cx="620" cy="250" r="5" fill="#059669"/>
  <text x="635" y="254" font-family="Arial" font-size="11" fill="#1e293b">Sample SMP-4521 logged</text>
  
  <circle cx="620" cy="285" r="5" fill="#06b6d4"/>
  <text x="635" y="289" font-family="Arial" font-size="11" fill="#1e293b">Exp 047 checkpoint</text>
  
  <circle cx="620" cy="320" r="5" fill="#f59e0b"/>
  <text x="635" y="324" font-family="Arial" font-size="11" fill="#1e293b">PCR machine reserved</text>
  
  <circle cx="620" cy="355" r="5" fill="#10b981"/>
  <text x="635" y="359" font-family="Arial" font-size="11" fill="#1e293b">QC batch approved</text>
  
  <!-- Equipment Schedule -->
  <rect x="200" y="395" width="580" height="90" rx="12" fill="#ffffff" stroke="#e2e8f0"/>
  <text x="220" y="425" font-family="Arial" font-size="14" font-weight="600" fill="#1e293b">Equipment Schedule</text>
  
  <rect x="220" y="440" width="100" height="40" rx="6" fill="#ecfdf5" stroke="#d1fae5"/>
  <text x="240" y="458" font-family="Arial" font-size="10" fill="#059669" font-weight="500">PCR-01</text>
  <text x="240" y="472" font-family="Arial" font-size="9" fill="#64748b">In Use</text>
  
  <rect x="330" y="440" width="100" height="40" rx="6" fill="#f0fdf4" stroke="#d1fae5"/>
  <text x="345" y="458" font-family="Arial" font-size="10" fill="#10b981" font-weight="500">Centrifuge-A</text>
  <text x="345" y="472" font-family="Arial" font-size="9" fill="#64748b">Available</text>
  
  <rect x="440" y="440" width="100" height="40" rx="6" fill="#f0fdf4" stroke="#d1fae5"/>
  <text x="460" y="458" font-family="Arial" font-size="10" fill="#10b981" font-weight="500">Sequencer</text>
  <text x="460" y="472" font-family="Arial" font-size="9" fill="#64748b">Available</text>
  
  <rect x="550" y="440" width="100" height="40" rx="6" fill="#fef3c7" stroke="#fde68a"/>
  <text x="560" y="458" font-family="Arial" font-size="10" fill="#d97706" font-weight="500">Microscope-2</text>
  <text x="560" y="472" font-family="Arial" font-size="9" fill="#64748b">Maintenance</text>
</svg>
