<svg xmlns="http://www.w3.org/2000/svg" viewBox="0 0 800 500">
  <!-- LIGHT Theme Life Sciences Sample Inventory -->
  <rect width="800" height="500" fill="#f0fdf4"/>
  
  <!-- Sidebar -->
  <rect x="0" y="0" width="180" height="500" fill="#ffffff"/>
  <rect x="179" y="0" width="1" height="500" fill="#e2e8f0"/>
  
  <rect x="20" y="20" width="32" height="32" rx="6" fill="#059669"/>
  <text x="60" y="42" font-family="Arial" font-size="14" font-weight="600" fill="#1e293b">LabOS</text>
  
  <text x="40" y="85" font-family="Arial" font-size="12" fill="#64748b">Dashboard</text>
  
  <rect x="12" y="100" width="156" height="38" rx="6" fill="#ecfdf5"/>
  <text x="40" y="124" font-family="Arial" font-size="12" fill="#059669" font-weight="500">Samples</text>
  
  <text x="40" y="165" font-family="Arial" font-size="12" fill="#64748b">Experiments</text>
  <text x="40" y="200" font-family="Arial" font-size="12" fill="#64748b">Equipment</text>
  
  <!-- Header -->
  <text x="200" y="42" font-family="Arial" font-size="20" font-weight="600" fill="#1e293b">Sample Inventory</text>
  
  <!-- Search and filters -->
  <rect x="200" y="55" width="220" height="34" rx="6" fill="#ffffff" stroke="#e2e8f0"/>
  <text x="218" y="77" font-family="Arial" font-size="11" fill="#94a3b8">Search samples or barcodes...</text>
  
  <rect x="430" y="55" width="100" height="34" rx="6" fill="#ffffff" stroke="#e2e8f0"/>
  <text x="448" y="77" font-family="Arial" font-size="11" fill="#64748b">All Types</text>
  
  <rect x="540" y="55" width="80" height="34" rx="6" fill="#ffffff" stroke="#e2e8f0"/>
  <text x="558" y="77" font-family="Arial" font-size="11" fill="#64748b">Status</text>
  
  <rect x="680" y="55" width="100" height="34" rx="6" fill="#059669"/>
  <text x="702" y="77" font-family="Arial" font-size="11" fill="#ffffff">+ Register</text>
  
  <!-- Table -->
  <rect x="200" y="100" width="580" height="380" rx="10" fill="#ffffff" stroke="#e2e8f0"/>
  
  <!-- Table header -->
  <rect x="200" y="100" width="580" height="40" rx="10" fill="#f8fafc"/>
  <text x="230" y="125" font-family="Arial" font-size="10" font-weight="600" fill="#64748b">SAMPLE ID</text>
  <text x="350" y="125" font-family="Arial" font-size="10" font-weight="600" fill="#64748b">TYPE</text>
  <text x="440" y="125" font-family="Arial" font-size="10" font-weight="600" fill="#64748b">LOCATION</text>
  <text x="560" y="125" font-family="Arial" font-size="10" font-weight="600" fill="#64748b">COLLECTED</text>
  <text x="680" y="125" font-family="Arial" font-size="10" font-weight="600" fill="#64748b">STATUS</text>
  
  <!-- Row 1 -->
  <rect x="210" y="150" width="80" height="24" rx="4" fill="#ecfdf5"/>
  <text x="225" y="166" font-family="Arial" font-size="10" fill="#059669" font-weight="500">SMP-4521</text>
  <text x="350" y="166" font-family="Arial" font-size="11" fill="#475569">Blood</text>
  <text x="440" y="166" font-family="Arial" font-size="11" fill="#475569">Freezer-A2-R3</text>
  <text x="560" y="166" font-family="Arial" font-size="11" fill="#64748b">Jan 15, 2024</text>
  <rect x="680" y="152" width="55" height="22" rx="11" fill="#dcfce7"/>
  <text x="693" y="167" font-family="Arial" font-size="9" fill="#16a34a">Active</text>
  <rect x="210" y="180" width="560" height="1" fill="#f1f5f9"/>
  
  <!-- Row 2 -->
  <rect x="210" y="195" width="80" height="24" rx="4" fill="#fdf2f8"/>
  <text x="225" y="211" font-family="Arial" font-size="10" fill="#db2777" font-weight="500">SMP-4520</text>
  <text x="350" y="211" font-family="Arial" font-size="11" fill="#475569">Tissue</text>
  <text x="440" y="211" font-family="Arial" font-size="11" fill="#475569">Freezer-B1-R1</text>
  <text x="560" y="211" font-family="Arial" font-size="11" fill="#64748b">Jan 14, 2024</text>
  <rect x="680" y="197" width="65" height="22" rx="11" fill="#fef3c7"/>
  <text x="688" y="212" font-family="Arial" font-size="9" fill="#d97706">QC Pending</text>
  <rect x="210" y="225" width="560" height="1" fill="#f1f5f9"/>
  
  <!-- Row 3 -->
  <rect x="210" y="240" width="80" height="24" rx="4" fill="#f3e8ff"/>
  <text x="225" y="256" font-family="Arial" font-size="10" fill="#7c3aed" font-weight="500">SMP-4519</text>
  <text x="350" y="256" font-family="Arial" font-size="11" fill="#475569">DNA</text>
  <text x="440" y="256" font-family="Arial" font-size="11" fill="#475569">Freezer-A1-R5</text>
  <text x="560" y="256" font-family="Arial" font-size="11" fill="#64748b">Jan 14, 2024</text>
  <rect x="680" y="242" width="55" height="22" rx="11" fill="#dcfce7"/>
  <text x="693" y="257" font-family="Arial" font-size="9" fill="#16a34a">Active</text>
  <rect x="210" y="270" width="560" height="1" fill="#f1f5f9"/>
  
  <!-- Row 4 -->
  <rect x="210" y="285" width="80" height="24" rx="4" fill="#dcfce7"/>
  <text x="225" y="301" font-family="Arial" font-size="10" fill="#16a34a" font-weight="500">SMP-4518</text>
  <text x="350" y="301" font-family="Arial" font-size="11" fill="#475569">RNA</text>
  <text x="440" y="301" font-family="Arial" font-size="11" fill="#475569">Freezer-C2-R2</text>
  <text x="560" y="301" font-family="Arial" font-size="11" fill="#64748b">Jan 13, 2024</text>
  <rect x="680" y="287" width="55" height="22" rx="11" fill="#dcfce7"/>
  <text x="693" y="302" font-family="Arial" font-size="9" fill="#16a34a">Active</text>
  <rect x="210" y="315" width="560" height="1" fill="#f1f5f9"/>
  
  <!-- Row 5 -->
  <rect x="210" y="330" width="80" height="24" rx="4" fill="#dbeafe"/>
  <text x="225" y="346" font-family="Arial" font-size="10" fill="#2563eb" font-weight="500">SMP-4517</text>
  <text x="350" y="346" font-family="Arial" font-size="11" fill="#475569">Protein</text>
  <text x="440" y="346" font-family="Arial" font-size="11" fill="#475569">Freezer-A3-R4</text>
  <text x="560" y="346" font-family="Arial" font-size="11" fill="#64748b">Jan 12, 2024</text>
  <rect x="680" y="332" width="55" height="22" rx="11" fill="#f1f5f9"/>
  <text x="690" y="347" font-family="Arial" font-size="9" fill="#64748b">Depleted</text>
  
  <!-- Pagination -->
  <text x="230" y="460" font-family="Arial" font-size="11" fill="#64748b">Showing 1-5 of 2,847 samples</text>
  
  <rect x="660" y="445" width="30" height="28" rx="4" fill="#f1f5f9"/>
  <text x="670" y="463" font-family="Arial" font-size="11" fill="#64748b">←</text>
  
  <rect x="695" y="445" width="30" height="28" rx="4" fill="#059669"/>
  <text x="706" y="463" font-family="Arial" font-size="11" fill="#ffffff">1</text>
  
  <rect x="730" y="445" width="30" height="28" rx="4" fill="#f1f5f9"/>
  <text x="740" y="463" font-family="Arial" font-size="11" fill="#64748b">→</text>
</svg>
