<svg xmlns="http://www.w3.org/2000/svg" viewBox="0 0 800 500">
  <!-- LIGHT Theme Life Sciences Experiment Detail -->
  <rect width="800" height="500" fill="#f0fdf4"/>
  
  <!-- Sidebar -->
  <rect x="0" y="0" width="180" height="500" fill="#ffffff"/>
  <rect x="179" y="0" width="1" height="500" fill="#e2e8f0"/>
  
  <rect x="20" y="20" width="32" height="32" rx="6" fill="#059669"/>
  <text x="60" y="42" font-family="Arial" font-size="14" font-weight="600" fill="#1e293b">LabOS</text>
  
  <text x="40" y="85" font-family="Arial" font-size="12" fill="#64748b">Dashboard</text>
  <text x="40" y="117" font-family="Arial" font-size="12" fill="#64748b">Samples</text>
  
  <rect x="12" y="130" width="156" height="38" rx="6" fill="#ecfdf5"/>
  <text x="40" y="154" font-family="Arial" font-size="12" fill="#059669" font-weight="500">Experiments</text>
  
  <!-- Breadcrumb and title -->
  <text x="200" y="30" font-family="Arial" font-size="11" fill="#64748b">Experiments / EXP-2024-047</text>
  <text x="200" y="55" font-family="Arial" font-size="20" font-weight="600" fill="#1e293b">Gene Expression Analysis</text>
  
  <rect x="480" y="38" width="70" height="26" rx="13" fill="#dcfce7"/>
  <text x="495" y="56" font-family="Arial" font-size="11" fill="#16a34a">Running</text>
  
  <!-- Info cards -->
  <rect x="200" y="75" width="200" height="90" rx="10" fill="#ffffff" stroke="#e2e8f0"/>
  <text x="216" y="100" font-family="Arial" font-size="10" fill="#64748b">Protocol</text>
  <text x="216" y="122" font-family="Arial" font-size="13" font-weight="500" fill="#1e293b">RT-qPCR Standard</text>
  <text x="216" y="145" font-family="Arial" font-size="11" fill="#059669">View Protocol →</text>
  
  <rect x="410" y="75" width="180" height="90" rx="10" fill="#ffffff" stroke="#e2e8f0"/>
  <text x="426" y="100" font-family="Arial" font-size="10" fill="#64748b">Principal Investigator</text>
  <text x="426" y="122" font-family="Arial" font-size="13" font-weight="500" fill="#1e293b">Dr. Sarah Chen</text>
  <text x="426" y="145" font-family="Arial" font-size="11" fill="#64748b">Lab: Molecular Biology</text>
  
  <rect x="600" y="75" width="180" height="90" rx="10" fill="#ffffff" stroke="#e2e8f0"/>
  <text x="616" y="100" font-family="Arial" font-size="10" fill="#64748b">Progress</text>
  <text x="616" y="125" font-family="Arial" font-size="20" font-weight="700" fill="#1e293b">Day 5 of 7</text>
  <rect x="616" y="138" width="148" height="10" rx="5" fill="#e2e8f0"/>
  <rect x="616" y="138" width="105" height="10" rx="5" fill="#059669"/>
  
  <!-- Tabs -->
  <rect x="200" y="180" width="90" height="32" rx="6" fill="#059669"/>
  <text x="222" y="201" font-family="Arial" font-size="11" fill="#ffffff">Timeline</text>
  <text x="310" y="201" font-family="Arial" font-size="11" fill="#64748b">Samples</text>
  <text x="390" y="201" font-family="Arial" font-size="11" fill="#64748b">Results</text>
  <text x="470" y="201" font-family="Arial" font-size="11" fill="#64748b">Notes</text>
  
  <!-- Timeline -->
  <rect x="200" y="225" width="580" height="255" rx="12" fill="#ffffff" stroke="#e2e8f0"/>
  <text x="220" y="255" font-family="Arial" font-size="14" font-weight="600" fill="#1e293b">Experiment Timeline</text>
  
  <rect x="240" y="275" width="4" height="185" fill="#e2e8f0" rx="2"/>
  
  <circle cx="242" cy="295" r="10" fill="#16a34a"/>
  <text x="270" y="292" font-family="Arial" font-size="12" font-weight="600" fill="#1e293b">Sample Preparation</text>
  <text x="270" y="310" font-family="Arial" font-size="10" fill="#64748b">Jan 10, 2024 - Completed by Dr. Chen</text>
  <text x="270" y="328" font-family="Arial" font-size="10" fill="#475569">24 samples prepared, QC passed</text>
  
  <circle cx="242" cy="365" r="10" fill="#16a34a"/>
  <text x="270" y="362" font-family="Arial" font-size="12" font-weight="600" fill="#1e293b">RNA Extraction</text>
  <text x="270" y="380" font-family="Arial" font-size="10" fill="#64748b">Jan 11-12, 2024 - Completed by Lab Tech</text>
  <text x="270" y="398" font-family="Arial" font-size="10" fill="#475569">Yield: 2.5-4.2 ug, RIN > 8.0</text>
  
  <circle cx="242" cy="430" r="10" fill="#059669"/>
  <text x="270" y="427" font-family="Arial" font-size="12" font-weight="600" fill="#1e293b">RT-qPCR Running</text>
  <text x="270" y="445" font-family="Arial" font-size="10" fill="#64748b">Jan 13-15, 2024 - In Progress</text>
  <text x="270" y="463" font-family="Arial" font-size="10" fill="#059669">Cycle 28/40 - Est. completion: 6 hours</text>
</svg>
