<svg xmlns="http://www.w3.org/2000/svg" viewBox="0 0 800 500">
  <!-- LIGHT Theme Logistics CRM Dashboard -->
  <rect width="800" height="500" fill="#f5f3ff"/>
  
  <!-- Sidebar -->
  <rect x="0" y="0" width="200" height="500" fill="#ffffff"/>
  <rect x="199" y="0" width="1" height="500" fill="#e9d5ff"/>
  
  <circle cx="35" cy="30" r="14" fill="#8b5cf6"/>
  <text x="58" y="35" font-family="Arial" font-size="14" font-weight="700" fill="#1e293b">LogiFlow CRM</text>
  
  <rect x="15" y="60" width="170" height="38" rx="8" fill="#f3e8ff"/>
  <text x="40" y="84" font-family="Arial" font-size="12" fill="#8b5cf6" font-weight="500">Dashboard</text>
  
  <text x="40" y="125" font-family="Arial" font-size="12" fill="#64748b">Shipments</text>
  <text x="40" y="160" font-family="Arial" font-size="12" fill="#64748b">Customers</text>
  <text x="40" y="195" font-family="Arial" font-size="12" fill="#64748b">Carriers</text>
  <text x="40" y="230" font-family="Arial" font-size="12" fill="#64748b">Analytics</text>
  
  <!-- Main content -->
  <text x="220" y="40" font-family="Arial" font-size="20" font-weight="700" fill="#1e293b">Operations Dashboard</text>
  <text x="220" y="60" font-family="Arial" font-size="12" fill="#64748b">Real-time shipment tracking</text>
  
  <!-- Metric cards -->
  <rect x="220" y="80" width="170" height="90" rx="12" fill="#ffffff" stroke="#e2e8f0"/>
  <text x="240" y="108" font-family="Arial" font-size="11" fill="#64748b">Active Shipments</text>
  <text x="240" y="140" font-family="Arial" font-size="28" font-weight="700" fill="#8b5cf6">342</text>
  <text x="240" y="160" font-family="Arial" font-size="10" fill="#16a34a">18 delivered today</text>
  
  <rect x="400" y="80" width="170" height="90" rx="12" fill="#ffffff" stroke="#e2e8f0"/>
  <text x="420" y="108" font-family="Arial" font-size="11" fill="#64748b">Pending Pickups</text>
  <text x="420" y="140" font-family="Arial" font-size="28" font-weight="700" fill="#f59e0b">47</text>
  <text x="420" y="160" font-family="Arial" font-size="10" fill="#f59e0b">5 urgent</text>
  
  <rect x="580" y="80" width="200" height="90" rx="12" fill="#ffffff" stroke="#e2e8f0"/>
  <text x="600" y="108" font-family="Arial" font-size="11" fill="#64748b">On-Time Delivery Rate</text>
  <text x="600" y="140" font-family="Arial" font-size="28" font-weight="700" fill="#16a34a">96.4%</text>
  <text x="600" y="160" font-family="Arial" font-size="10" fill="#16a34a">↑ 2.1% vs last month</text>
  
  <!-- Recent Shipments -->
  <rect x="220" y="185" width="350" height="295" rx="12" fill="#ffffff" stroke="#e2e8f0"/>
  <text x="240" y="215" font-family="Arial" font-size="14" font-weight="600" fill="#1e293b">Recent Shipments</text>
  
  <rect x="240" y="235" width="310" height="55" rx="8" fill="#f8fafc"/>
  <circle cx="268" cy="262" r="14" fill="#dcfce7"/>
  <text x="262" y="267" font-family="Arial" font-size="9" fill="#16a34a">✓</text>
  <text x="295" y="255" font-family="Arial" font-size="12" font-weight="500" fill="#1e293b">#SHP-4521 • NYC → LAX</text>
  <text x="295" y="272" font-family="Arial" font-size="10" fill="#64748b">Delivered • 2h ago</text>
  
  <rect x="240" y="300" width="310" height="55" rx="8" fill="#f8fafc"/>
  <circle cx="268" cy="327" r="14" fill="#dbeafe"/>
  <text x="262" y="332" font-family="Arial" font-size="10" fill="#2563eb">🚚</text>
  <text x="295" y="320" font-family="Arial" font-size="12" font-weight="500" fill="#1e293b">#SHP-4520 • CHI → MIA</text>
  <text x="295" y="337" font-family="Arial" font-size="10" fill="#64748b">In Transit • ETA 6h</text>
  
  <rect x="240" y="365" width="310" height="55" rx="8" fill="#f8fafc"/>
  <circle cx="268" cy="392" r="14" fill="#fef3c7"/>
  <text x="262" y="397" font-family="Arial" font-size="10" fill="#d97706">⏳</text>
  <text x="295" y="385" font-family="Arial" font-size="12" font-weight="500" fill="#1e293b">#SHP-4519 • SEA → DEN</text>
  <text x="295" y="402" font-family="Arial" font-size="10" fill="#64748b">Awaiting Pickup</text>
  
  <rect x="240" y="430" width="310" height="40" rx="8" fill="#fef2f2"/>
  <circle cx="268" cy="450" r="14" fill="#fecaca"/>
  <text x="262" y="455" font-family="Arial" font-size="10" fill="#dc2626">!</text>
  <text x="295" y="447" font-family="Arial" font-size="12" font-weight="500" fill="#1e293b">#SHP-4518 • ATL → PHX</text>
  <text x="420" y="447" font-family="Arial" font-size="10" fill="#dc2626">Delayed • Weather</text>
  
  <!-- Quick Actions -->
  <rect x="580" y="185" width="200" height="295" rx="12" fill="#ffffff" stroke="#e2e8f0"/>
  <text x="600" y="215" font-family="Arial" font-size="14" font-weight="600" fill="#1e293b">Quick Actions</text>
  
  <rect x="600" y="235" width="160" height="42" rx="8" fill="#8b5cf6"/>
  <text x="630" y="261" font-family="Arial" font-size="12" fill="#ffffff">+ New Shipment</text>
  
  <rect x="600" y="287" width="160" height="42" rx="8" fill="#f3e8ff"/>
  <text x="640" y="313" font-family="Arial" font-size="12" fill="#8b5cf6">Track Order</text>
  
  <rect x="600" y="339" width="160" height="42" rx="8" fill="#f1f5f9"/>
  <text x="642" y="365" font-family="Arial" font-size="12" fill="#64748b">Get Quote</text>
  
  <rect x="600" y="391" width="160" height="42" rx="8" fill="#f1f5f9"/>
  <text x="635" y="417" font-family="Arial" font-size="12" fill="#64748b">Add Carrier</text>
</svg>
