<svg xmlns="http://www.w3.org/2000/svg" viewBox="0 0 800 500">
  <rect fill="#ffffff" width="800" height="500"/>
  <rect fill="#f8fafc" x="0" y="0" width="800" height="50"/>
  <text fill="#1e293b" x="30" y="32" font-size="16" font-weight="bold">Customer Management</text>
  <rect fill="#8b5cf6" x="660" y="12" width="110" height="28" rx="6"/>
  <text fill="#fff" x="680" y="31" font-size="11">+ Add Customer</text>
  
  <rect fill="#ffffff" x="30" y="65" width="745" height="50" rx="8" stroke="#e2e8f0" stroke-width="1"/>
  <rect fill="#f8fafc" x="50" y="78" width="220" height="28" rx="14"/>
  <text fill="#94a3b8" x="70" y="97" font-size="10">Search customers...</text>
  <rect fill="#8b5cf6" x="290" y="78" width="90" height="28" rx="14"/>
  <text fill="#fff" x="305" y="97" font-size="10">All Customers</text>
  <rect fill="#f1f5f9" x="390" y="78" width="70" height="28" rx="14"/>
  <text fill="#64748b" x="408" y="97" font-size="10">Active</text>
  <rect fill="#f1f5f9" x="470" y="78" width="80" height="28" rx="14"/>
  <text fill="#64748b" x="485" y="97" font-size="10">Enterprise</text>
  
  <rect fill="#ffffff" x="30" y="130" width="745" height="350" rx="12" stroke="#e2e8f0" stroke-width="1"/>
  
  <rect fill="#f8fafc" x="50" y="150" width="705" height="40" rx="6"/>
  <text fill="#64748b" x="70" y="175" font-size="9" font-weight="500">Company</text>
  <text fill="#64748b" x="220" y="175" font-size="9" font-weight="500">Contact</text>
  <text fill="#64748b" x="350" y="175" font-size="9" font-weight="500">Total Shipments</text>
  <text fill="#64748b" x="470" y="175" font-size="9" font-weight="500">Revenue</text>
  <text fill="#64748b" x="570" y="175" font-size="9" font-weight="500">Status</text>
  <text fill="#64748b" x="680" y="175" font-size="9" font-weight="500">Actions</text>
  
  <rect fill="#ffffff" x="50" y="200" width="705" height="55" rx="6" stroke="#e2e8f0" stroke-width="1"/>
  <circle fill="#8b5cf6" cx="85" cy="227" r="16"/>
  <text fill="#fff" x="75" y="232" font-size="10">AC</text>
  <text fill="#1e293b" x="115" y="222" font-size="11" font-weight="500">Acme Corporation</text>
  <text fill="#94a3b8" x="115" y="238" font-size="9">Since 2022</text>
  <text fill="#1e293b" x="220" y="230" font-size="10">John Smith</text>
  <text fill="#1e293b" x="350" y="230" font-size="10">1,247</text>
  <text fill="#1e293b" x="470" y="230" font-size="10">$428,500</text>
  <rect fill="#dcfce7" x="570" y="217" width="70" height="22" rx="11"/>
  <text fill="#16a34a" x="582" y="232" font-size="9">Enterprise</text>
  <text fill="#8b5cf6" x="680" y="230" font-size="10">View</text>
  
  <rect fill="#ffffff" x="50" y="265" width="705" height="55" rx="6" stroke="#e2e8f0" stroke-width="1"/>
  <circle fill="#3b82f6" cx="85" cy="292" r="16"/>
  <text fill="#fff" x="76" y="297" font-size="10">GT</text>
  <text fill="#1e293b" x="115" y="287" font-size="11" font-weight="500">Global Tech Inc</text>
  <text fill="#94a3b8" x="115" y="303" font-size="9">Since 2023</text>
  <text fill="#1e293b" x="220" y="295" font-size="10">Sarah Chen</text>
  <text fill="#1e293b" x="350" y="295" font-size="10">892</text>
  <text fill="#1e293b" x="470" y="295" font-size="10">$312,200</text>
  <rect fill="#dcfce7" x="570" y="282" width="70" height="22" rx="11"/>
  <text fill="#16a34a" x="582" y="297" font-size="9">Enterprise</text>
  <text fill="#8b5cf6" x="680" y="295" font-size="10">View</text>
  
  <rect fill="#ffffff" x="50" y="330" width="705" height="55" rx="6" stroke="#e2e8f0" stroke-width="1"/>
  <circle fill="#16a34a" cx="85" cy="357" r="16"/>
  <text fill="#fff" x="74" y="362" font-size="10">SM</text>
  <text fill="#1e293b" x="115" y="352" font-size="11" font-weight="500">Smith Manufacturing</text>
  <text fill="#94a3b8" x="115" y="368" font-size="9">Since 2024</text>
  <text fill="#1e293b" x="220" y="360" font-size="10">Mike Johnson</text>
  <text fill="#1e293b" x="350" y="360" font-size="10">456</text>
  <text fill="#1e293b" x="470" y="360" font-size="10">$145,800</text>
  <rect fill="#dbeafe" x="570" y="347" width="50" height="22" rx="11"/>
  <text fill="#3b82f6" x="582" y="362" font-size="9">Active</text>
  <text fill="#8b5cf6" x="680" y="360" font-size="10">View</text>
  
  <rect fill="#ffffff" x="50" y="395" width="705" height="55" rx="6" stroke="#e2e8f0" stroke-width="1"/>
  <circle fill="#f59e0b" cx="85" cy="422" r="16"/>
  <text fill="#fff" x="77" y="427" font-size="10">RL</text>
  <text fill="#1e293b" x="115" y="417" font-size="11" font-weight="500">Retail Logistics Co</text>
  <text fill="#94a3b8" x="115" y="433" font-size="9">Since 2024</text>
  <text fill="#1e293b" x="220" y="425" font-size="10">Emma Davis</text>
  <text fill="#1e293b" x="350" y="425" font-size="10">234</text>
  <text fill="#1e293b" x="470" y="425" font-size="10">$89,400</text>
  <rect fill="#dbeafe" x="570" y="412" width="50" height="22" rx="11"/>
  <text fill="#3b82f6" x="582" y="427" font-size="9">Active</text>
  <text fill="#8b5cf6" x="680" y="425" font-size="10">View</text>
</svg>
