<svg xmlns="http://www.w3.org/2000/svg" viewBox="0 0 800 500">
  <rect fill="#ffffff" width="800" height="500"/>
  <rect fill="#f8fafc" x="0" y="0" width="800" height="50"/>
  <text fill="#1e293b" x="30" y="32" font-size="16" font-weight="bold">Analytics &amp; Reporting</text>
  <rect fill="#f1f5f9" x="620" y="12" width="80" height="28" rx="6"/>
  <text fill="#64748b" x="635" y="31" font-size="10">This Month</text>
  <rect fill="#8b5cf6" x="710" y="12" width="60" height="28" rx="6"/>
  <text fill="#fff" x="722" y="31" font-size="10">Export</text>
  
  <rect fill="#ffffff" x="30" y="65" width="470" height="195" rx="12" stroke="#e2e8f0" stroke-width="1"/>
  <text fill="#1e293b" x="50" y="95" font-size="13" font-weight="600">Shipment Volume Trend</text>
  <rect fill="#f8fafc" x="50" y="115" width="430" height="125" rx="8"/>
  <line stroke="#e2e8f0" x1="70" y1="190" x2="460" y2="190"/>
  <polyline fill="none" stroke="#8b5cf6" stroke-width="2.5" points="90,180 130,170 170,165 210,150 250,155 290,140 330,135 370,125 410,130 450,115"/>
  <circle fill="#8b5cf6" cx="450" cy="115" r="5"/>
  <text fill="#64748b" x="90" y="205" font-size="8">W1</text>
  <text fill="#64748b" x="170" y="205" font-size="8">W3</text>
  <text fill="#64748b" x="250" y="205" font-size="8">W5</text>
  <text fill="#64748b" x="330" y="205" font-size="8">W7</text>
  <text fill="#64748b" x="410" y="205" font-size="8">W9</text>
  <rect fill="#dcfce7" x="380" y="98" width="90" height="22" rx="11"/>
  <text fill="#16a34a" x="395" y="113" font-size="10">+24% growth</text>
  
  <rect fill="#ffffff" x="515" y="65" width="260" height="195" rx="12" stroke="#e2e8f0" stroke-width="1"/>
  <text fill="#1e293b" x="535" y="95" font-size="13" font-weight="600">Delivery Performance</text>
  <rect fill="#f8fafc" x="535" y="115" width="100" height="60" rx="8"/>
  <text fill="#64748b" x="555" y="138" font-size="9">On-Time</text>
  <text fill="#16a34a" x="555" y="163" font-size="22" font-weight="bold">96.4%</text>
  <rect fill="#f8fafc" x="645" y="115" width="110" height="60" rx="8"/>
  <text fill="#64748b" x="665" y="138" font-size="9">Delayed</text>
  <text fill="#f59e0b" x="665" y="163" font-size="22" font-weight="bold">2.8%</text>
  <rect fill="#f8fafc" x="535" y="185" width="220" height="55" rx="8"/>
  <text fill="#64748b" x="555" y="208" font-size="9">Average Delivery Time</text>
  <text fill="#1e293b" x="555" y="230" font-size="18" font-weight="bold">2.4 days</text>
  <text fill="#16a34a" x="665" y="230" font-size="10">0.3 days faster</text>
  
  <rect fill="#ffffff" x="30" y="275" width="365" height="205" rx="12" stroke="#e2e8f0" stroke-width="1"/>
  <text fill="#1e293b" x="50" y="305" font-size="13" font-weight="600">Revenue by Region</text>
  
  <rect fill="#f8fafc" x="50" y="325" width="325" height="45" rx="6"/>
  <text fill="#1e293b" x="70" y="352" font-size="11">Northeast</text>
  <rect fill="#e2e8f0" x="180" y="340" width="140" height="16" rx="3"/>
  <rect fill="#8b5cf6" x="180" y="340" width="118" height="16" rx="3"/>
  <text fill="#1e293b" x="330" y="352" font-size="10">$428K</text>
  
  <rect fill="#f8fafc" x="50" y="380" width="325" height="45" rx="6"/>
  <text fill="#1e293b" x="70" y="407" font-size="11">Southeast</text>
  <rect fill="#e2e8f0" x="180" y="395" width="140" height="16" rx="3"/>
  <rect fill="#3b82f6" x="180" y="395" width="98" height="16" rx="3"/>
  <text fill="#1e293b" x="330" y="407" font-size="10">$356K</text>
  
  <rect fill="#f8fafc" x="50" y="435" width="325" height="40" rx="6"/>
  <text fill="#1e293b" x="70" y="460" font-size="11">West Coast</text>
  <rect fill="#e2e8f0" x="180" y="448" width="140" height="16" rx="3"/>
  <rect fill="#16a34a" x="180" y="448" width="80" height="16" rx="3"/>
  <text fill="#1e293b" x="330" y="460" font-size="10">$289K</text>
  
  <rect fill="#ffffff" x="410" y="275" width="365" height="205" rx="12" stroke="#e2e8f0" stroke-width="1"/>
  <text fill="#1e293b" x="430" y="305" font-size="13" font-weight="600">Top Carriers</text>
  
  <rect fill="#ede9fe" x="430" y="325" width="325" height="50" rx="8"/>
  <text fill="#1e293b" x="450" y="350" font-size="11" font-weight="500">FastFreight LLC</text>
  <text fill="#64748b" x="450" y="367" font-size="9">1,245 shipments | 97.2% on-time</text>
  <text fill="#f59e0b" x="690" y="352" font-size="11">4.9</text>
  
  <rect fill="#dbeafe" x="430" y="385" width="325" height="50" rx="8"/>
  <text fill="#1e293b" x="450" y="410" font-size="11" font-weight="500">SpeedLine Express</text>
  <text fill="#64748b" x="450" y="427" font-size="9">892 shipments | 95.8% on-time</text>
  <text fill="#f59e0b" x="690" y="412" font-size="11">4.7</text>
  
  <rect fill="#dcfce7" x="430" y="445" width="325" height="30" rx="8"/>
  <text fill="#1e293b" x="450" y="465" font-size="11" font-weight="500">Regional Trucking Co</text>
  <text fill="#f59e0b" x="690" y="465" font-size="11">4.6</text>
</svg>
