<svg xmlns="http://www.w3.org/2000/svg" viewBox="0 0 800 500">
  <rect fill="#0f1419" width="800" height="500"/>
  <rect fill="#1e2433" x="100" y="20" width="250" height="460" rx="24"/>
  <rect fill="#0f1419" x="110" y="30" width="230" height="440" rx="20"/>
  <rect fill="#1e2433" x="110" y="30" width="230" height="50"/>
  <text fill="#f3f4f6" x="180" y="62" font-size="14" font-weight="bold">SupplyChain Pro</text>
  <circle fill="#374151" cx="315" cy="55" r="12"/>
  <rect fill="#10b981" opacity="0.2" x="125" y="95" width="200" height="70" rx="10"/>
  <text fill="#10b981" x="145" y="120" font-size="10" font-weight="bold">TODAY'S OVERVIEW</text>
  <text fill="#f3f4f6" x="145" y="145" font-size="20" font-weight="bold">47 Orders</text>
  <text fill="#9ca3af" x="240" y="145" font-size="10">pending</text>
  <rect fill="#1e2433" x="125" y="180" width="95" height="70" rx="10"/>
  <text fill="#9ca3af" x="140" y="205" font-size="9">Inbound</text>
  <text fill="#3b82f6" x="140" y="230" font-size="18" font-weight="bold">12</text>
  <rect fill="#1e2433" x="230" y="180" width="95" height="70" rx="10"/>
  <text fill="#9ca3af" x="245" y="205" font-size="9">Outbound</text>
  <text fill="#10b981" x="245" y="230" font-size="18" font-weight="bold">35</text>
  <text fill="#f3f4f6" x="125" y="280" font-size="12" font-weight="500">Recent Activity</text>
  <rect fill="#1e2433" x="125" y="295" width="200" height="50" rx="8"/>
  <circle fill="#10b981" cx="150" cy="320" r="8"/>
  <text fill="#f3f4f6" x="165" y="315" font-size="10">Order #4521 shipped</text>
  <text fill="#9ca3af" x="165" y="330" font-size="8">5 min ago</text>
  <rect fill="#1e2433" x="125" y="355" width="200" height="50" rx="8"/>
  <circle fill="#f59e0b" cx="150" cy="380" r="8"/>
  <text fill="#f3f4f6" x="165" y="375" font-size="10">Low stock: Widget A</text>
  <text fill="#9ca3af" x="165" y="390" font-size="8">15 min ago</text>
  <rect fill="#1e2433" x="110" y="420" width="230" height="50" rx="0"/>
  <rect fill="#10b981" x="145" y="432" width="30" height="30" rx="15"/>
  <rect fill="#374151" x="195" y="432" width="30" height="30" rx="15"/>
  <rect fill="#374151" x="245" y="432" width="30" height="30" rx="15"/>
  <rect fill="#374151" x="295" y="432" width="30" height="30" rx="15"/>
  <rect fill="#1e2433" x="450" y="20" width="250" height="460" rx="24"/>
  <rect fill="#0f1419" x="460" y="30" width="230" height="440" rx="20"/>
  <rect fill="#1e2433" x="460" y="30" width="230" height="50"/>
  <text fill="#f3f4f6" x="530" y="62" font-size="14" font-weight="bold">Inventory</text>
  <rect fill="#0f1419" x="475" y="95" width="200" height="35" rx="17"/>
  <text fill="#9ca3af" x="495" y="117" font-size="10">Search products...</text>
  <rect fill="#1e2433" x="475" y="145" width="200" height="65" rx="10"/>
  <rect fill="#3b82f6" x="490" y="160" width="40" height="35" rx="6"/>
  <text fill="#f3f4f6" x="545" y="175" font-size="11" font-weight="500">Widget Pro X</text>
  <text fill="#9ca3af" x="545" y="192" font-size="9">SKU: WPX-001</text>
  <text fill="#10b981" x="620" y="175" font-size="10">245</text>
  <rect fill="#1e2433" x="475" y="220" width="200" height="65" rx="10"/>
  <rect fill="#10b981" x="490" y="235" width="40" height="35" rx="6"/>
  <text fill="#f3f4f6" x="545" y="250" font-size="11" font-weight="500">Sensor Module</text>
  <text fill="#9ca3af" x="545" y="267" font-size="9">SKU: SM-042</text>
  <text fill="#10b981" x="620" y="250" font-size="10">892</text>
  <rect fill="#1e2433" x="475" y="295" width="200" height="65" rx="10"/>
  <rect fill="#f59e0b" x="490" y="310" width="40" height="35" rx="6"/>
  <text fill="#f3f4f6" x="545" y="325" font-size="11" font-weight="500">Power Unit</text>
  <text fill="#9ca3af" x="545" y="342" font-size="9">SKU: PU-108</text>
  <text fill="#f59e0b" x="620" y="325" font-size="10">23</text>
  <rect fill="#1e2433" x="475" y="370" width="200" height="65" rx="10"/>
  <rect fill="#ef4444" x="490" y="385" width="40" height="35" rx="6"/>
  <text fill="#f3f4f6" x="545" y="400" font-size="11" font-weight="500">Control Board</text>
  <text fill="#9ca3af" x="545" y="417" font-size="9">SKU: CB-215</text>
  <text fill="#ef4444" x="620" y="400" font-size="10">8</text>
</svg>
