<svg xmlns="http://www.w3.org/2000/svg" viewBox="0 0 800 500">
  <rect fill="#0f1419" width="800" height="500"/>
  <rect fill="#1e2433" x="100" y="20" width="250" height="460" rx="24"/>
  <rect fill="#0f1419" x="110" y="30" width="230" height="440" rx="20"/>
  <rect fill="#1e2433" x="110" y="30" width="230" height="50"/>
  <text fill="#f3f4f6" x="185" y="62" font-size="14" font-weight="bold">Scan Item</text>
  <rect fill="#374151" x="125" y="95" width="200" height="180" rx="12"/>
  <rect fill="none" stroke="#10b981" stroke-width="3" x="165" y="135" width="120" height="100" rx="8"/>
  <line stroke="#10b981" stroke-width="2" x1="165" y1="185" x2="285" y2="185"/>
  <text fill="#9ca3af" x="175" y="290" font-size="10">Position barcode in frame</text>
  <rect fill="#10b981" x="125" y="310" width="200" height="45" rx="10"/>
  <text fill="#fff" x="180" y="340" font-size="12" font-weight="500">Scan Barcode</text>
  <rect fill="#1e2433" x="125" y="370" width="200" height="60" rx="10"/>
  <text fill="#9ca3af" x="145" y="395" font-size="10">Last scanned:</text>
  <text fill="#f3f4f6" x="145" y="415" font-size="11" font-weight="500">Widget Pro X (WPX-001)</text>
  <rect fill="#1e2433" x="450" y="20" width="250" height="460" rx="24"/>
  <rect fill="#0f1419" x="460" y="30" width="230" height="440" rx="20"/>
  <rect fill="#1e2433" x="460" y="30" width="230" height="50"/>
  <text fill="#f3f4f6" x="530" y="62" font-size="14" font-weight="bold">Order Details</text>
  <rect fill="#10b981" opacity="0.2" x="475" y="95" width="200" height="50" rx="10"/>
  <text fill="#10b981" x="495" y="117" font-size="10" font-weight="bold">ORDER #4521</text>
  <text fill="#f3f4f6" x="495" y="135" font-size="11">Ready for Shipment</text>
  <rect fill="#1e2433" x="475" y="160" width="200" height="80" rx="10"/>
  <text fill="#9ca3af" x="495" y="185" font-size="9">Destination</text>
  <text fill="#f3f4f6" x="495" y="205" font-size="11">Acme Corp - Chicago</text>
  <text fill="#9ca3af" x="495" y="225" font-size="9">123 Industrial Ave, IL 60601</text>
  <text fill="#f3f4f6" x="475" y="265" font-size="11" font-weight="500">Items (3)</text>
  <rect fill="#1e2433" x="475" y="280" width="200" height="40" rx="8"/>
  <text fill="#f3f4f6" x="495" y="305" font-size="10">Widget Pro X</text>
  <text fill="#9ca3af" x="635" y="305" font-size="10">x25</text>
  <rect fill="#1e2433" x="475" y="330" width="200" height="40" rx="8"/>
  <text fill="#f3f4f6" x="495" y="355" font-size="10">Sensor Module</text>
  <text fill="#9ca3af" x="635" y="355" font-size="10">x50</text>
  <rect fill="#1e2433" x="475" y="380" width="200" height="40" rx="8"/>
  <text fill="#f3f4f6" x="495" y="405" font-size="10">Power Unit</text>
  <text fill="#9ca3af" x="635" y="405" font-size="10">x10</text>
  <rect fill="#10b981" x="475" y="435" width="95" height="35" rx="8"/>
  <text fill="#fff" x="497" y="458" font-size="10">Confirm</text>
  <rect fill="#374151" x="580" y="435" width="95" height="35" rx="8"/>
  <text fill="#f3f4f6" x="605" y="458" font-size="10">Edit</text>
</svg>
