<svg xmlns="http://www.w3.org/2000/svg" viewBox="0 0 800 500">
  <rect fill="#0f1419" width="800" height="500"/>
  <rect fill="#1e2433" x="100" y="20" width="250" height="460" rx="24"/>
  <rect fill="#0f1419" x="110" y="30" width="230" height="440" rx="20"/>
  <rect fill="#1e2433" x="110" y="30" width="230" height="50"/>
  <text fill="#f3f4f6" x="170" y="62" font-size="14" font-weight="bold">Warehouse Map</text>
  <rect fill="#1e2433" x="125" y="95" width="200" height="200" rx="10"/>
  <rect fill="#374151" x="140" y="110" width="50" height="80" rx="4"/>
  <text fill="#9ca3af" x="155" y="155" font-size="8">A1</text>
  <rect fill="#10b981" opacity="0.5" x="200" y="110" width="50" height="80" rx="4"/>
  <text fill="#fff" x="215" y="155" font-size="8">A2</text>
  <rect fill="#374151" x="260" y="110" width="50" height="80" rx="4"/>
  <text fill="#9ca3af" x="275" y="155" font-size="8">A3</text>
  <rect fill="#f59e0b" opacity="0.5" x="140" y="200" width="50" height="80" rx="4"/>
  <text fill="#fff" x="155" y="245" font-size="8">B1</text>
  <rect fill="#374151" x="200" y="200" width="50" height="80" rx="4"/>
  <text fill="#9ca3af" x="215" y="245" font-size="8">B2</text>
  <rect fill="#ef4444" opacity="0.5" x="260" y="200" width="50" height="80" rx="4"/>
  <text fill="#fff" x="275" y="245" font-size="8">B3</text>
  <rect fill="#10b981" x="125" y="310" width="12" height="12" rx="2"/>
  <text fill="#9ca3af" x="145" y="320" font-size="9">High stock</text>
  <rect fill="#f59e0b" x="125" y="330" width="12" height="12" rx="2"/>
  <text fill="#9ca3af" x="145" y="340" font-size="9">Low stock</text>
  <rect fill="#ef4444" x="210" y="310" width="12" height="12" rx="2"/>
  <text fill="#9ca3af" x="230" y="320" font-size="9">Critical</text>
  <rect fill="#374151" x="210" y="330" width="12" height="12" rx="2"/>
  <text fill="#9ca3af" x="230" y="340" font-size="9">Empty</text>
  <rect fill="#10b981" x="125" y="365" width="200" height="40" rx="10"/>
  <text fill="#fff" x="178" y="390" font-size="11">Navigate to B3</text>
  <rect fill="#1e2433" x="450" y="20" width="250" height="460" rx="24"/>
  <rect fill="#0f1419" x="460" y="30" width="230" height="440" rx="20"/>
  <rect fill="#1e2433" x="460" y="30" width="230" height="50"/>
  <text fill="#f3f4f6" x="520" y="62" font-size="14" font-weight="bold">Quick Actions</text>
  <rect fill="#10b981" x="475" y="95" width="200" height="60" rx="12"/>
  <text fill="#fff" x="530" y="130" font-size="12" font-weight="500">Receive Shipment</text>
  <rect fill="#3b82f6" x="475" y="165" width="200" height="60" rx="12"/>
  <text fill="#fff" x="535" y="200" font-size="12" font-weight="500">Create Order</text>
  <rect fill="#8b5cf6" x="475" y="235" width="200" height="60" rx="12"/>
  <text fill="#fff" x="525" y="270" font-size="12" font-weight="500">Stock Adjustment</text>
  <rect fill="#f59e0b" x="475" y="305" width="200" height="60" rx="12"/>
  <text fill="#fff" x="525" y="340" font-size="12" font-weight="500">Inventory Count</text>
  <rect fill="#1e2433" x="475" y="385" width="200" height="70" rx="12"/>
  <text fill="#f3f4f6" x="495" y="415" font-size="11" font-weight="500">Shift Summary</text>
  <text fill="#9ca3af" x="495" y="435" font-size="9">Orders: 47 • Items: 1,245</text>
</svg>
