<svg xmlns="http://www.w3.org/2000/svg" viewBox="0 0 800 500">
  <rect fill="#0f1419" width="800" height="500"/>
  <rect fill="#1e2433" x="100" y="20" width="250" height="460" rx="24"/>
  <rect fill="#0f1419" x="110" y="30" width="230" height="440" rx="20"/>
  <rect fill="#1e2433" x="110" y="30" width="230" height="50"/>
  <text fill="#f3f4f6" x="182" y="62" font-size="14" font-weight="bold">Analytics</text>
  <rect fill="#1e2433" x="125" y="95" width="200" height="100" rx="10"/>
  <text fill="#9ca3af" x="145" y="118" font-size="10">Weekly Orders</text>
  <text fill="#f3f4f6" x="145" y="145" font-size="24" font-weight="bold">324</text>
  <text fill="#10b981" x="145" y="170" font-size="10">↑ 12% vs last week</text>
  <text fill="#f3f4f6" x="125" y="220" font-size="11" font-weight="500">Order Trend</text>
  <rect fill="#1e2433" x="125" y="235" width="200" height="80" rx="10"/>
  <rect fill="#10b981" x="145" y="270" width="20" height="30" rx="3"/>
  <rect fill="#10b981" x="175" y="260" width="20" height="40" rx="3"/>
  <rect fill="#10b981" x="205" y="265" width="20" height="35" rx="3"/>
  <rect fill="#10b981" x="235" y="250" width="20" height="50" rx="3"/>
  <rect fill="#10b981" x="265" y="255" width="20" height="45" rx="3"/>
  <rect fill="#10b981" opacity="0.5" x="295" y="275" width="20" height="25" rx="3"/>
  <text fill="#f3f4f6" x="125" y="340" font-size="11" font-weight="500">Top Products</text>
  <rect fill="#1e2433" x="125" y="355" width="200" height="35" rx="8"/>
  <text fill="#f3f4f6" x="145" y="378" font-size="10">Widget Pro X</text>
  <text fill="#10b981" x="275" y="378" font-size="10">1,245</text>
  <rect fill="#1e2433" x="125" y="395" width="200" height="35" rx="8"/>
  <text fill="#f3f4f6" x="145" y="418" font-size="10">Sensor Module</text>
  <text fill="#10b981" x="275" y="418" font-size="10">892</text>
  <rect fill="#1e2433" x="450" y="20" width="250" height="460" rx="24"/>
  <rect fill="#0f1419" x="460" y="30" width="230" height="440" rx="20"/>
  <rect fill="#1e2433" x="460" y="30" width="230" height="50"/>
  <text fill="#f3f4f6" x="540" y="62" font-size="14" font-weight="bold">Alerts</text>
  <rect fill="#ef4444" opacity="0.2" x="475" y="95" width="200" height="70" rx="10"/>
  <circle fill="#ef4444" cx="495" cy="130" r="10"/>
  <text fill="#fff" x="491" y="134" font-size="10">!</text>
  <text fill="#f3f4f6" x="515" y="120" font-size="11" font-weight="500">Critical Stock Alert</text>
  <text fill="#9ca3af" x="515" y="140" font-size="9">Control Board: 8 units left</text>
  <rect fill="#f59e0b" opacity="0.2" x="475" y="175" width="200" height="70" rx="10"/>
  <circle fill="#f59e0b" cx="495" cy="210" r="10"/>
  <text fill="#fff" x="488" y="214" font-size="10">⚠</text>
  <text fill="#f3f4f6" x="515" y="200" font-size="11" font-weight="500">Low Stock Warning</text>
  <text fill="#9ca3af" x="515" y="220" font-size="9">Power Unit: 23 units left</text>
  <rect fill="#3b82f6" opacity="0.2" x="475" y="255" width="200" height="70" rx="10"/>
  <circle fill="#3b82f6" cx="495" cy="290" r="10"/>
  <text fill="#fff" x="489" y="294" font-size="10">📦</text>
  <text fill="#f3f4f6" x="515" y="280" font-size="11" font-weight="500">Shipment Arriving</text>
  <text fill="#9ca3af" x="515" y="300" font-size="9">PO-4892 • ETA 2 hours</text>
  <rect fill="#10b981" opacity="0.2" x="475" y="335" width="200" height="70" rx="10"/>
  <circle fill="#10b981" cx="495" cy="370" r="10"/>
  <text fill="#fff" x="489" y="374" font-size="10">✓</text>
  <text fill="#f3f4f6" x="515" y="360" font-size="11" font-weight="500">Order Completed</text>
  <text fill="#9ca3af" x="515" y="380" font-size="9">#4520 delivered to client</text>
</svg>
