<svg xmlns="http://www.w3.org/2000/svg" viewBox="0 0 800 500">
  <!-- LIGHT Theme Telehealth Scheduling Dashboard -->
  <rect width="800" height="500" fill="#faf5ff"/>
  
  <!-- Sidebar -->
  <rect x="0" y="0" width="180" height="500" fill="#ffffff"/>
  <rect x="179" y="0" width="1" height="500" fill="#e9d5ff"/>
  
  <circle cx="40" cy="30" r="16" fill="#7c3aed"/>
  <text x="65" y="36" font-family="Arial" font-size="14" font-weight="600" fill="#1e293b">MindCare</text>
  
  <rect x="12" y="70" width="156" height="38" rx="6" fill="#f3e8ff"/>
  <text x="40" y="94" font-family="Arial" font-size="12" fill="#7c3aed" font-weight="500">Appointments</text>
  
  <text x="40" y="130" font-family="Arial" font-size="12" fill="#64748b">Patients</text>
  <text x="40" y="162" font-family="Arial" font-size="12" fill="#64748b">Messages</text>
  <text x="40" y="194" font-family="Arial" font-size="12" fill="#64748b">Notes</text>
  <text x="40" y="226" font-family="Arial" font-size="12" fill="#64748b">Settings</text>
  
  <!-- Main content -->
  <text x="200" y="40" font-family="Arial" font-size="20" font-weight="600" fill="#1e293b">Today's Schedule</text>
  <text x="200" y="60" font-family="Arial" font-size="12" fill="#64748b">6 appointments scheduled • Wednesday, Jan 15</text>
  
  <!-- Appointment cards -->
  <rect x="200" y="85" width="370" height="100" rx="12" fill="#ffffff" stroke="#e9d5ff"/>
  <circle cx="240" cy="130" r="20" fill="#dcfce7"/>
  <text x="232" y="135" font-family="Arial" font-size="12" fill="#16a34a">SM</text>
  <text x="275" y="115" font-family="Arial" font-size="14" font-weight="600" fill="#1e293b">Sarah Mitchell - Therapy Session</text>
  <text x="275" y="135" font-family="Arial" font-size="12" fill="#64748b">9:00 AM - 10:00 AM • Video Call</text>
  <rect x="275" y="150" width="80" height="28" rx="6" fill="#7c3aed"/>
  <text x="293" y="168" font-family="Arial" font-size="11" fill="#ffffff">Join Call</text>
  <rect x="365" y="150" width="80" height="28" rx="6" fill="#f3e8ff"/>
  <text x="380" y="168" font-family="Arial" font-size="11" fill="#7c3aed">View Notes</text>
  <rect x="510" y="108" width="50" height="24" rx="12" fill="#dcfce7"/>
  <text x="523" y="124" font-family="Arial" font-size="10" fill="#16a34a">Now</text>
  
  <rect x="200" y="195" width="370" height="100" rx="12" fill="#ffffff" stroke="#e2e8f0"/>
  <circle cx="240" cy="240" r="20" fill="#fef3c7"/>
  <text x="232" y="245" font-family="Arial" font-size="12" fill="#d97706">JT</text>
  <text x="275" y="225" font-family="Arial" font-size="14" font-weight="600" fill="#1e293b">James Thompson - Initial Consult</text>
  <text x="275" y="245" font-family="Arial" font-size="12" fill="#64748b">10:30 AM - 11:30 AM • Video Call</text>
  <rect x="275" y="260" width="100" height="28" rx="6" fill="#f1f5f9"/>
  <text x="293" y="278" font-family="Arial" font-size="11" fill="#64748b">In 45 minutes</text>
  
  <rect x="200" y="305" width="370" height="100" rx="12" fill="#ffffff" stroke="#e2e8f0"/>
  <circle cx="240" cy="350" r="20" fill="#ddd6fe"/>
  <text x="232" y="355" font-family="Arial" font-size="12" fill="#7c3aed">ER</text>
  <text x="275" y="335" font-family="Arial" font-size="14" font-weight="600" fill="#1e293b">Emily Rodriguez - Follow-up</text>
  <text x="275" y="355" font-family="Arial" font-size="12" fill="#64748b">1:00 PM - 1:30 PM • In Person</text>
  <rect x="275" y="370" width="80" height="28" rx="6" fill="#f1f5f9"/>
  <text x="295" y="388" font-family="Arial" font-size="11" fill="#64748b">2:00 PM</text>
  
  <!-- Stats panel -->
  <rect x="590" y="85" width="190" height="180" rx="12" fill="#ffffff" stroke="#e9d5ff"/>
  <text x="610" y="115" font-family="Arial" font-size="14" font-weight="600" fill="#1e293b">Quick Stats</text>
  
  <rect x="610" y="130" width="75" height="55" rx="8" fill="#f3e8ff"/>
  <text x="628" y="155" font-family="Arial" font-size="20" font-weight="700" fill="#7c3aed">24</text>
  <text x="620" y="175" font-family="Arial" font-size="9" fill="#64748b">This Week</text>
  
  <rect x="695" y="130" width="75" height="55" rx="8" fill="#dcfce7"/>
  <text x="713" y="155" font-family="Arial" font-size="20" font-weight="700" fill="#16a34a">89%</text>
  <text x="702" y="175" font-family="Arial" font-size="9" fill="#64748b">Show Rate</text>
  
  <rect x="610" y="195" width="160" height="55" rx="8" fill="#fef3c7"/>
  <text x="628" y="220" font-family="Arial" font-size="20" font-weight="700" fill="#d97706">4.9</text>
  <text x="620" y="240" font-family="Arial" font-size="9" fill="#64748b">Patient Rating (142 reviews)</text>
  
  <!-- Upcoming section -->
  <rect x="590" y="280" width="190" height="125" rx="12" fill="#ffffff" stroke="#e2e8f0"/>
  <text x="610" y="310" font-family="Arial" font-size="14" font-weight="600" fill="#1e293b">Tomorrow</text>
  <text x="610" y="340" font-family="Arial" font-size="11" fill="#64748b">5 appointments</text>
  <text x="610" y="365" font-family="Arial" font-size="11" fill="#64748b">9:00 AM - 5:00 PM</text>
  <rect x="610" y="380" width="80" height="22" rx="4" fill="#f3e8ff"/>
  <text x="625" y="395" font-family="Arial" font-size="10" fill="#7c3aed">View All</text>
  
  <!-- Bottom action bar -->
  <rect x="200" y="420" width="370" height="65" rx="12" fill="#ffffff" stroke="#e2e8f0"/>
  <rect x="220" y="440" width="110" height="32" rx="6" fill="#7c3aed"/>
  <text x="235" y="460" font-family="Arial" font-size="11" fill="#ffffff">+ New Session</text>
  <rect x="340" y="440" width="100" height="32" rx="6" fill="#f3e8ff"/>
  <text x="360" y="460" font-family="Arial" font-size="11" fill="#7c3aed">Block Time</text>
  <rect x="450" y="440" width="100" height="32" rx="6" fill="#f1f5f9"/>
  <text x="470" y="460" font-family="Arial" font-size="11" fill="#64748b">Settings</text>
</svg>
